<?xml version="1.0" encoding="utf-8"?>
<!-- Generator: Adobe Illustrator 18.1.1, SVG Export Plug-In . SVG Version: 6.00 Build 0)  -->
<svg version="1.1" id="Layer_1" xmlns="http://www.w3.org/2000/svg" xmlns:xlink="http://www.w3.org/1999/xlink" x="0px" y="0px"
	 width="400px" height="260px" viewBox="0 0 400 260" enable-background="new 0 0 400 260" xml:space="preserve">
<path fill="#FFFFFF" d="M32.5,192.9c0,0,20.8-0.9,33.7-2c1.6-0.1,5.8,6.1,5.5,18c-0.2,10.8-4,13.5-4,13.5s-37.2-2-35.4-2.7
	C35,218.8,35.3,202.1,32.5,192.9z"/>
<polygon fill="#D2BDA7" points="207.3,95.9 207.3,108.8 196.9,108.8 196.9,95.9 186.4,95.9 186.4,108.8 176,108.8 176,95.9 
	165.6,95.9 165.6,108.8 155.1,108.8 155.1,95.9 144.7,95.9 144.7,108.8 150.9,123.6 150.9,256.5 211.5,256.5 211.5,123.3 
	217.8,108.8 217.8,95.9 "/>
<rect x="174.4" y="132.5" fill="#231F20" width="13.6" height="21.3"/>
<rect x="224.2" y="127.2" fill="#D0D2D3" width="90.8" height="46"/>
<rect x="336.8" y="136.6" fill="#D0D2D3" width="43.9" height="36.5"/>
<rect x="230.6" y="136.6" fill="#231F20" width="8.7" height="13.6"/>
<rect x="247.6" y="136.6" fill="#231F20" width="8.7" height="13.6"/>
<rect x="264.7" y="136.6" fill="#231F20" width="8.7" height="13.6"/>
<rect x="281.8" y="136.6" fill="#231F20" width="8.7" height="13.6"/>
<rect x="298.9" y="136.6" fill="#231F20" width="8.7" height="13.6"/>
<rect x="341.4" y="144.7" fill="#231F20" width="7" height="10.9"/>
<rect x="355.2" y="144.7" fill="#231F20" width="7" height="10.9"/>
<rect x="369" y="144.7" fill="#231F20" width="7" height="10.9"/>
<rect x="314.9" y="78.9" fill="#E8E3DB" width="21.9" height="125.8"/>
<polygon fill="#95A1AA" points="314.8,78 325.8,27.8 336.8,78 "/>
<polygon fill="#EED9BF" points="384.9,162.9 384.9,173.2 376.3,173.2 376.3,162.9 367.6,162.9 367.6,173.2 358.9,173.2 358.9,162.9 
	350.2,162.9 350.2,173.2 341.5,173.2 341.5,162.9 332.9,162.9 332.9,173.2 328.1,173.2 328.1,162.9 327.9,162.9 319.4,162.9 
	319.3,162.9 319.3,173.2 307,173.2 307,162.9 298.3,162.9 298.3,173.2 289.6,173.2 289.6,162.9 280.9,162.9 280.9,173.2 
	272.3,173.2 272.3,162.9 263.6,162.9 263.6,173.2 254.9,173.2 254.9,162.9 246.2,162.9 246.2,173.2 237.5,173.2 237.5,162.9 
	228.8,162.9 228.8,173.2 220.2,173.2 220.2,162.9 211.5,162.9 211.5,173.2 150.9,173.2 150.9,162.9 142.3,162.9 142.3,173.2 
	133.6,173.2 133.6,162.9 124.9,162.9 124.9,173.2 124.9,256.5 393.6,256.5 393.6,173.2 393.6,162.9 "/>
<rect x="159" y="162.9" fill="#EED9BF" width="8.7" height="10.3"/>
<rect x="176.4" y="162.9" fill="#EED9BF" width="8.7" height="10.3"/>
<rect x="194" y="162.9" fill="#EED9BF" width="8.7" height="10.3"/>
<rect x="321.5" y="87.1" fill="#231F20" width="8.7" height="13.6"/>
<path fill="#E8E3DB" d="M308.7,100.1h33.7c0,0,0,11.2-6.8,11.6c-6.1,0.4-19.9-0.1-19.9-0.1S309.5,112,308.7,100.1z"/>
<path fill="#A61F25" d="M49.7,180.4c0,0-7.6-0.3-11.6,2c-4,2.3-4.5,1.6-6.4,1.6c-1.9,0,4,2.3,9,1.4c5-0.9,8.9-0.8,8.9-0.8
	L49.7,180.4z"/>
<path fill="#8A5D3B" d="M12.7,232.6c0,0,19.2,3.5,32,3.2s32.8-2.8,33.6-3.2c0.8-0.4-5,19.8-11.1,20.3c-5.4,0.4-19.2,1.4-32.8,0.7
	c-7.3-0.4-7.2-0.7-9.7-1.8c-1.3-0.6-3.9-0.6-5-1.9C15.3,245.3,11.3,231.9,12.7,232.6z"/>
<path fill="#8A5D3B" d="M71,190.9c0,0.3-0.2,0.6-0.6,0.7l-40.1,2.1c-0.3,0-0.6-0.2-0.7-0.6l0,0c0-0.3,0.2-0.6,0.6-0.7l40.1-2.1
	C70.7,190.3,71,190.6,71,190.9L71,190.9z"/>
<path fill="#8A5D3B" d="M47.9,237.3l1.8-56.8H50l0.3,56.8C50.3,237.3,49.1,238,47.9,237.3z"/>
<path fill="#603813" d="M13.8,238.8c0,0,5.5,9.8,11,11.7c5.5,2,19.1,3.1,26.8,2.7c6.1-0.3,17.1-1.1,17.6-1.2c0,0-1.3,1.7-10.8,2.2
	c-6.9,0.4-14.5,1.5-22.1,1s-13.4,0.3-18-7C14.7,242.5,14.3,240.2,13.8,238.8z"/>
</svg>
