<?xml version="1.0" encoding="utf-8"?>
<!-- Generator: Adobe Illustrator 18.1.1, SVG Export Plug-In . SVG Version: 6.00 Build 0)  -->
<svg version="1.1" id="Layer_1" xmlns="http://www.w3.org/2000/svg" xmlns:xlink="http://www.w3.org/1999/xlink" x="0px" y="0px"
	 width="400px" height="260px" viewBox="0 0 400 260" enable-background="new 0 0 400 260" xml:space="preserve">
<rect x="212.3" y="153.8" fill="#B5E1E4" width="107.9" height="97.7"/>
<path fill="#096C69" d="M319.9,141.5c0,0,1.5-18.5-17.2-32.5c-20.5-15.3-36.4-22.7-36.4-22.7s-14.9,7.1-36.4,22.7
	c-17.6,12.8-17.2,32.5-17.2,32.5l-0.2,12.1h53.9h53.9L319.9,141.5z"/>
<rect x="11.3" y="133.3" fill="#B5E1E4" width="30.7" height="117.7"/>
<path fill="#51ABAD" d="M11.3,133.3c0-10.3,6.8-18.6,15.3-18.6c8.4,0,15.3,8.3,15.3,18.6"/>
<circle fill="#51ABAD" cx="26.6" cy="109.5" r="2.8"/>
<line fill="none" stroke="#51ABAD" stroke-miterlimit="10" x1="26.6" y1="103.7" x2="26.6" y2="114.7"/>
<circle fill="#096C69" cx="266.2" cy="83" r="3.7"/>
<line fill="none" stroke="#096C69" stroke-width="2" stroke-miterlimit="10" x1="266.2" y1="75.6" x2="266.2" y2="86.7"/>
<path fill="#231F20" d="M16.8,158.2v-17.4c0,0,0-0.2,0.1-0.3c0.2-0.5,0.8-1.8,2.5-2c2.2-0.3,4,1.1,4,2.6c0,1.5,0,17.2,0,17.2H16.8z"
	/>
<path fill="#231F20" d="M29,158.2v-17.4c0,0,0-0.2,0.1-0.3c0.2-0.5,0.8-1.8,2.5-2c2.2-0.3,4,1.1,4,2.6c0,1.5,0,17.2,0,17.2H29z"/>
<rect x="358.8" y="133.7" fill="#B5E1E4" width="30.7" height="117.7"/>
<path fill="#51ABAD" d="M358.8,133.7c0-10.3,6.8-18.6,15.3-18.6c8.4,0,15.3,8.3,15.3,18.6"/>
<circle fill="#51ABAD" cx="374.1" cy="110" r="2.8"/>
<line fill="none" stroke="#51ABAD" stroke-miterlimit="10" x1="374.1" y1="104.1" x2="374.1" y2="115.2"/>
<path fill="#231F20" d="M364.3,158.7v-17.4c0,0,0-0.2,0.1-0.3c0.2-0.5,0.8-1.8,2.5-2c2.2-0.3,4,1.1,4,2.6c0,1.5,0,17.2,0,17.2H364.3
	z"/>
<path fill="#231F20" d="M376.5,158.7v-17.4c0,0,0-0.2,0.1-0.3c0.2-0.5,0.8-1.8,2.5-2c2.2-0.3,4,1.1,4,2.6c0,1.5,0,17.2,0,17.2H376.5
	z"/>
<rect x="267.5" y="160.2" fill="#EED9BF" width="39.9" height="91.2"/>
<polygon fill="#51ABAD" points="78.6,153.5 78.6,192.1 42,192.1 42,250.9 78.6,250.9 115.9,250.9 115.9,153.5 "/>
<rect x="115.9" y="130" fill="#EED9BF" width="77.8" height="120.9"/>
<path fill="#AA8563" d="M132.4,250.9v-58.8c0,0-0.1-13.3,22.2-33.6c0,0,22.6,17.8,22.6,33.6v58.8H132.4z"/>
<path fill="#231F20" d="M89.5,192.1v-20.3c0,0,0-4.6,7.6-11.6c0,0,7.8,6.1,7.8,11.6v20.3H89.5z"/>
<path fill="#231F20" d="M89.5,250.9v-20.3c0,0,0-4.6,7.6-11.6c0,0,7.8,6.1,7.8,11.6v20.3H89.5z"/>
<path fill="#231F20" d="M51.3,250.9v-20.3c0,0,0-4.6,7.6-11.6c0,0,7.8,6.1,7.8,11.6v20.3H51.3z"/>
<rect x="115.9" y="118.1" fill="#B5E1E4" width="4.8" height="11.9"/>
<rect x="78.6" y="141.6" fill="#51ABAD" width="4.8" height="12"/>
<polygon fill="#51ABAD" points="230.9,192.1 230.9,153.5 193.6,153.5 193.6,250.9 230.9,250.9 267.5,250.9 267.5,192.1 "/>
<path fill="#231F20" d="M220,192.1v-20.3c0,0,0-4.6-7.6-11.6c0,0-7.8,6.1-7.8,11.6v20.3H220z"/>
<path fill="#231F20" d="M220,250.9v-20.3c0,0,0-4.6-7.6-11.6c0,0-7.8,6.1-7.8,11.6v20.3H220z"/>
<path fill="#231F20" d="M258.2,250.9v-20.3c0,0,0-4.6-7.6-11.6c0,0-7.8,6.1-7.8,11.6v20.3H258.2z"/>
<rect x="226.1" y="141.6" fill="#51ABAD" width="4.8" height="12"/>
<rect x="188.8" y="118.1" fill="#B5E1E4" width="4.8" height="11.9"/>
<rect x="178.4" y="118.1" fill="#B5E1E4" width="4.8" height="11.9"/>
<rect x="168" y="118.1" fill="#B5E1E4" width="4.8" height="11.9"/>
<rect x="157.6" y="118.1" fill="#B5E1E4" width="4.8" height="11.9"/>
<rect x="147.1" y="118.1" fill="#B5E1E4" width="4.8" height="11.9"/>
<rect x="136.7" y="118.1" fill="#B5E1E4" width="4.8" height="11.9"/>
<rect x="126.3" y="118.1" fill="#B5E1E4" width="4.8" height="11.9"/>
<rect x="307.4" y="191.3" fill="#EED9BF" width="51.3" height="60.5"/>
<path fill="#51ABAD" d="M267.6,160.1c0-10.3,8.9-18.6,19.9-18.6c11,0,19.9,8.3,19.9,18.6"/>
<path fill="#AA8563" d="M348,250.9v-25.4c0,0,0.1-5.7-13.8-14.5c0,0-14.1,7.7-14.1,14.5v25.4H348z"/>
<circle fill="#51ABAD" cx="287.5" cy="136.4" r="2.8"/>
<line fill="none" stroke="#51ABAD" stroke-miterlimit="10" x1="287.5" y1="130.5" x2="287.5" y2="141.6"/>
<rect x="115.9" y="130" fill="#B5E1E4" width="77.8" height="11.6"/>
</svg>
