<?xml version="1.0" encoding="utf-8"?>
<!-- Generator: Adobe Illustrator 16.0.0, SVG Export Plug-In . SVG Version: 6.00 Build 0)  -->
<!DOCTYPE svg PUBLIC "-//W3C//DTD SVG 1.1//EN" "http://www.w3.org/Graphics/SVG/1.1/DTD/svg11.dtd">
<svg version="1.1" id="Ebene_1" xmlns="http://www.w3.org/2000/svg" xmlns:xlink="http://www.w3.org/1999/xlink" x="0px" y="0px"
	 width="374.222px" height="173.453px" viewBox="0 0 374.222 173.453" enable-background="new 0 0 374.222 173.453"
	 xml:space="preserve">
<g>
	<rect x="198.873" y="77.297" fill="#B5E1E4" width="106.767" height="96.156"/>
	<path fill="#096C69" d="M305.339,65.172c0,0,1.514-18.328-17.061-32.183c-20.27-15.12-36.061-22.489-36.061-22.489
		s-14.789,7.021-36.061,22.489c-17.453,12.69-17.059,32.183-17.059,32.183l-0.226,12.02h53.345h53.346L305.339,65.172z"/>
	<rect y="57.033" fill="#B5E1E4" width="30.398" height="116.42"/>
	<path fill="#51ABAD" d="M0,57.033C0,46.88,6.776,38.648,15.135,38.648c8.359,0,15.134,8.231,15.134,18.385"/>
	<circle fill="#51ABAD" cx="15.199" cy="33.507" r="2.729"/>
	<line fill="none" stroke="#51ABAD" stroke-miterlimit="10" x1="15.199" y1="27.726" x2="15.199" y2="38.648"/>
	<circle fill="#096C69" cx="252.257" cy="7.278" r="3.646"/>
	<line fill="none" stroke="#096C69" stroke-width="2" stroke-miterlimit="10" x1="252.257" y1="0" x2="252.257" y2="10.924"/>
	<path fill="#231F20" d="M5.501,81.729V64.521c0,0,0.018-0.206,0.061-0.331c0.176-0.509,0.79-1.815,2.505-2.021
		c2.137-0.257,3.915,1.09,3.954,2.564c0.04,1.518,0,16.994,0,16.994H5.501z"/>
	<path fill="#231F20" d="M17.575,81.729V64.521c0,0,0.017-0.206,0.059-0.331c0.178-0.509,0.792-1.815,2.507-2.021
		c2.137-0.257,3.915,1.09,3.954,2.564c0.04,1.518,0,16.994,0,16.994H17.575z"/>
	<rect x="343.826" y="57.498" fill="#B5E1E4" width="30.396" height="116.42"/>
	<path fill="#51ABAD" d="M343.826,57.498c0-10.154,6.775-18.385,15.133-18.385c8.359,0,15.135,8.23,15.135,18.385"/>
	<circle fill="#51ABAD" cx="359.023" cy="33.971" r="2.729"/>
	<line fill="none" stroke="#51ABAD" stroke-miterlimit="10" x1="359.023" y1="28.189" x2="359.023" y2="39.113"/>
	<path fill="#231F20" d="M349.326,82.191V64.984c0,0,0.016-0.205,0.061-0.329c0.176-0.509,0.789-1.813,2.505-2.021
		c2.138-0.258,3.915,1.09,3.954,2.564c0.04,1.518,0,16.992,0,16.992H349.326z"/>
	<path fill="#231F20" d="M361.398,82.191V64.984c0,0,0.018-0.205,0.061-0.329c0.176-0.509,0.791-1.813,2.506-2.021
		c2.137-0.258,3.914,1.09,3.954,2.564c0.04,1.518,0,16.992,0,16.992H361.398z"/>
	<rect x="253.533" y="83.723" fill="#EED9BF" width="39.508" height="89.73"/>
	<polygon fill="#51ABAD" points="66.617,77.086 66.617,115.242 30.398,115.242 30.398,173.453 66.617,173.453 103.482,173.453 
		103.482,77.086 	"/>
	<rect x="103.482" y="53.805" fill="#EED9BF" width="76.965" height="119.648"/>
	<path fill="#AA8563" d="M119.833,173.453v-58.211c0,0-0.087-13.135,21.948-33.197c0,0,22.321,17.619,22.321,33.197v58.211H119.833z
		"/>
	<path fill="#231F20" d="M77.418,115.242V95.171c0,0-0.031-4.53,7.567-11.448c0,0,7.697,6.076,7.697,11.448v20.071H77.418z"/>
	<path fill="#231F20" d="M77.416,173.453v-20.072c0,0-0.029-4.529,7.569-11.448c0,0,7.697,6.076,7.697,11.448v20.072H77.416z"/>
	<path fill="#231F20" d="M39.63,173.453v-20.072c0,0-0.031-4.529,7.567-11.448c0,0,7.699,6.076,7.699,11.448v20.072H39.63z"/>
	<rect x="103.482" y="41.978" fill="#B5E1E4" width="4.755" height="11.794"/>
	<rect x="66.617" y="65.239" fill="#51ABAD" width="4.777" height="11.847"/>
	<polygon fill="#51ABAD" points="217.314,115.242 217.314,77.086 180.447,77.086 180.447,173.453 217.314,173.453 253.533,173.453 
		253.533,115.242 	"/>
	<path fill="#231F20" d="M206.512,115.242V95.171c0,0,0.032-4.53-7.567-11.448c0,0-7.697,6.076-7.697,11.448v20.071H206.512z"/>
	<path fill="#231F20" d="M206.512,173.453v-20.072c0,0,0.032-4.529-7.567-11.448c0,0-7.697,6.076-7.697,11.448v20.072H206.512z"/>
	<path fill="#231F20" d="M244.3,173.453v-20.072c0,0,0.03-4.529-7.569-11.448c0,0-7.696,6.076-7.696,11.448v20.072H244.3z"/>
	<rect x="212.537" y="65.239" fill="#51ABAD" width="4.777" height="11.847"/>
	<rect x="175.693" y="41.978" fill="#B5E1E4" width="4.754" height="11.794"/>
	<rect x="165.377" y="41.978" fill="#B5E1E4" width="4.754" height="11.794"/>
	<rect x="155.061" y="41.978" fill="#B5E1E4" width="4.756" height="11.794"/>
	<rect x="144.745" y="41.978" fill="#B5E1E4" width="4.755" height="11.794"/>
	<rect x="134.43" y="41.978" fill="#B5E1E4" width="4.754" height="11.794"/>
	<rect x="124.114" y="41.978" fill="#B5E1E4" width="4.753" height="11.794"/>
	<rect x="113.798" y="41.978" fill="#B5E1E4" width="4.754" height="11.794"/>
	<rect x="293.041" y="114.436" fill="#EED9BF" width="50.783" height="59.018"/>
	<path fill="#51ABAD" d="M253.616,83.625c0-10.154,8.807-18.386,19.669-18.386c10.863,0,19.67,8.231,19.67,18.386"/>
	<path fill="#AA8563" d="M333.212,173.453v-25.165c0,0,0.055-5.681-13.67-14.354c0,0-13.902,7.618-13.902,14.354v25.165H333.212z"/>
	<circle fill="#51ABAD" cx="273.286" cy="60.097" r="2.729"/>
	<line fill="none" stroke="#51ABAD" stroke-miterlimit="10" x1="273.285" y1="54.314" x2="273.285" y2="65.239"/>
	<rect x="103.482" y="53.805" fill="#B5E1E4" width="76.965" height="11.435"/>
</g>
</svg>
