<?xml version="1.0" encoding="utf-8"?>
<!-- Generator: Adobe Illustrator 16.0.0, SVG Export Plug-In . SVG Version: 6.00 Build 0)  -->
<!DOCTYPE svg PUBLIC "-//W3C//DTD SVG 1.1//EN" "http://www.w3.org/Graphics/SVG/1.1/DTD/svg11.dtd">
<svg version="1.1" id="Ebene_1" xmlns="http://www.w3.org/2000/svg" xmlns:xlink="http://www.w3.org/1999/xlink" x="0px" y="0px"
	 width="183.701px" height="156.282px" viewBox="0 0 183.701 156.282" enable-background="new 0 0 183.701 156.282"
	 xml:space="preserve">
<g>
	<polygon fill="#D2BDA7" points="56.367,46.532 56.367,55.361 49.225,55.361 49.225,46.532 42.082,46.532 42.082,55.361 
		34.94,55.361 34.94,46.532 27.799,46.532 27.799,55.361 20.655,55.361 20.655,46.532 13.514,46.532 13.514,55.361 17.807,65.451 
		17.807,156.282 59.217,156.282 59.217,65.237 63.51,55.361 63.51,46.532 	"/>
	<rect x="33.848" y="71.564" fill="#231F20" width="9.326" height="14.59"/>
	<rect x="67.857" y="67.926" fill="#A7C0C9" width="62.065" height="31.417"/>
	<rect x="144.835" y="74.364" fill="#A7C0C9" width="30.015" height="24.979"/>
	<rect x="72.23" y="74.364" fill="#231F20" width="5.938" height="9.27"/>
	<rect x="83.915" y="74.364" fill="#231F20" width="5.935" height="9.27"/>
	<rect x="95.596" y="74.364" fill="#231F20" width="5.938" height="9.27"/>
	<rect x="107.277" y="74.364" fill="#231F20" width="5.938" height="9.27"/>
	<rect x="118.959" y="74.364" fill="#231F20" width="5.937" height="9.27"/>
	<rect x="148.007" y="79.894" fill="#231F20" width="4.787" height="7.481"/>
	<rect x="157.431" y="79.894" fill="#231F20" width="4.789" height="7.481"/>
	<rect x="166.856" y="79.894" fill="#231F20" width="4.789" height="7.481"/>
	<rect x="129.895" y="34.893" fill="#E8E3DB" width="14.94" height="85.986"/>
	<polygon fill="#95A1AA" points="129.837,34.285 137.364,0 144.89,34.285 	"/>
	<g>
		<polygon fill="#B27953" points="177.767,92.305 177.767,99.343 171.853,99.343 171.853,92.305 165.917,92.305 165.917,99.343 
			159.981,99.343 159.981,92.305 154.046,92.305 154.046,99.343 148.11,99.343 148.11,92.305 142.175,92.305 142.175,99.343 
			138.905,99.343 138.905,92.305 138.813,92.305 132.97,92.305 132.878,92.305 132.878,99.343 124.46,99.343 124.46,92.305 
			118.525,92.305 118.525,99.343 112.589,99.343 112.589,92.305 106.652,92.305 106.652,99.343 100.74,99.343 100.74,92.305 
			94.805,92.305 94.805,99.343 88.867,99.343 88.867,92.305 82.934,92.305 82.934,99.343 76.996,99.343 76.996,92.305 
			71.062,92.305 71.062,99.343 65.127,99.343 65.127,92.305 59.189,92.305 59.189,99.343 17.807,99.343 17.807,92.305 
			11.871,92.305 11.871,99.343 5.936,99.343 5.936,92.305 0,92.305 0,99.343 0,156.282 183.702,156.282 183.702,99.343 
			183.702,92.305 		"/>
		<rect x="23.313" y="92.305" fill="#B27953" width="5.936" height="7.038"/>
		<rect x="35.184" y="92.305" fill="#B27953" width="5.936" height="7.038"/>
		<rect x="47.271" y="92.305" fill="#B27953" width="5.937" height="7.038"/>
	</g>
	<rect x="134.392" y="40.535" fill="#231F20" width="5.943" height="9.3"/>
	<path fill="#E8E3DB" d="M125.622,49.383h23.044c0,0,0,7.648-4.628,7.963c-4.17,0.284-13.596-0.038-13.596-0.038
		S126.226,57.534,125.622,49.383z"/>
</g>
<g display="none">
	<g display="inline">
		<path fill="#51ABAD" d="M-104.446,31.097c4.743,3.375,11.687,1.973,15.857-1.462c7.447-6.135,13.815-15.042,24.073-8.116
			c6.222,4.201,9.323,10.534,17.222,11.462c8.792,1.033,13.344-7.586,19.777-11.93c10.132-6.842,16.687,4.765,24.075,9.596
			c6.181,4.041,13.043,2.184,18.03-2.408c3.342-3.076,6.392-6.401,10.482-8.509c5.381-2.773,10.932,0.658,14.924,4.149
			c6.362,5.565,9.669,10.058,18.812,8.866c1.891-0.246,1.914-3.25,0-3c-3.538,0.461-7.162,0.41-10.08-1.855
			c-3.559-2.761-6.485-6.24-10.1-8.962c-6.096-4.591-13.488-3.732-19.237,0.888c-6.406,5.147-12.346,14.107-21.564,8.08
			c-3.844-2.514-6.737-6.547-10.54-9.231c-3.136-2.213-6.788-2.887-10.541-2.485c-7.774,0.832-12.324,8.988-18.327,12.951
			c-3.119,2.06-8.5,0.945-11.317-1.24c-3.56-2.76-6.488-6.24-10.102-8.962c-6.096-4.591-13.488-3.732-19.237,0.888
			c-5.473,4.398-12.557,14.48-20.694,8.69C-104.513,27.382-106.008,29.986-104.446,31.097L-104.446,31.097z"/>
	</g>
</g>
<g display="none">
	<g display="inline">
		<g>
			<path fill="#51ABAD" d="M-54.182,2.61c4.744,3.376,11.686,1.977,15.858-1.461c7.447-6.136,13.816-15.038,24.072-8.114
				C-8.029-2.764-4.928,3.57,2.971,4.497c8.792,1.032,13.343-7.586,19.775-11.93c10.137-6.845,16.688,4.768,24.079,9.6
				c6.18,4.04,13.042,2.178,18.028-2.412c3.341-3.076,6.391-6.4,10.48-8.508c5.383-2.774,10.936,0.658,14.927,4.15
				c6.364,5.567,9.666,10.058,18.813,8.865c1.891-0.247,1.914-3.25,0-3c-3.536,0.461-7.166,0.413-10.083-1.854
				c-3.557-2.763-6.483-6.241-10.097-8.962c-6.096-4.591-13.491-3.734-19.24,0.886C63.251-3.523,57.309,5.439,48.093-0.585
				c-3.845-2.514-6.738-6.551-10.542-9.236c-3.137-2.214-6.788-2.886-10.542-2.484C19.233-11.472,14.686-3.317,8.682,0.646
				C5.563,2.705,0.184,1.592-2.634-0.592c-3.561-2.76-6.488-6.241-10.104-8.962c-6.096-4.591-13.486-3.733-19.235,0.886
				C-37.448-4.27-44.529,5.812-52.668,0.02C-54.248-1.104-55.744,1.499-54.182,2.61L-54.182,2.61z"/>
		</g>
	</g>
</g>
</svg>
