<?xml version="1.0" encoding="utf-8"?>
<!-- Generator: Adobe Illustrator 16.0.0, SVG Export Plug-In . SVG Version: 6.00 Build 0)  -->
<!DOCTYPE svg PUBLIC "-//W3C//DTD SVG 1.1//EN" "http://www.w3.org/Graphics/SVG/1.1/DTD/svg11.dtd">
<svg version="1.1" id="Ebene_1" xmlns="http://www.w3.org/2000/svg" xmlns:xlink="http://www.w3.org/1999/xlink" x="0px" y="0px"
	 width="506.406px" height="418.965px" viewBox="0 0 506.406 418.965" enable-background="new 0 0 506.406 418.965"
	 xml:space="preserve">
<g>
	<rect x="14.183" y="373.656" fill="#A61F25" width="8.346" height="45.309"/>
	<rect x="37.36" y="367.191" fill="#A61F25" width="8.349" height="51.773"/>
	<rect x="60.003" y="367.191" fill="#A61F25" width="8.344" height="51.773"/>
	<rect x="83.356" y="367.191" fill="#A61F25" width="8.347" height="51.773"/>
	<rect x="108.448" y="367.191" fill="#A61F25" width="8.346" height="51.773"/>
	<rect x="134.521" y="367.191" fill="#A61F25" width="8.344" height="51.773"/>
	<rect x="159.005" y="367.191" fill="#A61F25" width="8.346" height="51.773"/>
	<rect x="182.28" y="367.191" fill="#A61F25" width="8.346" height="51.773"/>
	<rect x="316.921" y="367.191" fill="#A61F25" width="8.346" height="51.773"/>
	<rect x="340.322" y="367.191" fill="#A61F25" width="8.348" height="51.773"/>
	<rect x="364.126" y="367.191" fill="#A61F25" width="8.346" height="51.773"/>
	<rect x="387.363" y="367.191" fill="#A61F25" width="8.348" height="51.773"/>
	<rect x="411.335" y="367.191" fill="#A61F25" width="8.346" height="51.773"/>
	<rect x="436.148" y="367.191" fill="#A61F25" width="8.344" height="51.773"/>
	<rect x="460.632" y="367.191" fill="#A61F25" width="8.346" height="51.773"/>
	<rect x="483.908" y="367.191" fill="#A61F25" width="8.346" height="51.773"/>
	<path fill="#E98424" d="M245.86,9.758c0,0-52.542,61.356-70.398,61.311c0,0,0.639,5.572,16.642,8.609
		c16.005,3.039,96.025,6.674,106.49,4.137c10.463-2.537,19.844-13.642,17.738-14.057C295.679,65.679,258.376,22.238,245.86,9.758z"
		/>
	<path fill="#51ABAD" d="M245.974,10.359c0,0-0.561-0.482-0.58-0.146c-0.301,5.53-2.814,49.704-11.742,59.544h23.391
		c0,0-8-12.48-10.363-59.18C246.608,9.183,246.024,11.484,245.974,10.359z"/>
	<path fill="#51ABAD" d="M172.163,68.581c0,0,23.02,5.978,40.254,4.538c17.234-1.44,33.557-9.823,33.557-9.823
		s25.842,11.741,37.844,11.502c12.006-0.239,35.734-5.759,35.734-5.759s-0.338,11.039-10.496,13.439
		c-10.156,2.401-131.418,2.189-131.418,2.189L172.163,68.581z"/>
	<path fill="#231F20" d="M179.999,88.639c0,0,5.537,2.534-3.6-2.301c-11.381-6.018-4.236-17.757-4.236-17.757
		s16.244,10.18,36.15,10.074c30.571-0.159,37.547-15.359,37.547-15.359s11.697,15.462,34.672,15.856
		c30.781,0.525,39.02-10.113,39.02-10.113s3.703,13.119-4.92,18.298C306.011,92.518,179.999,88.639,179.999,88.639z"/>
	<rect x="176.399" y="95.114" fill="#A61F25" width="139.411" height="35.022"/>
	<rect x="176.399" y="86.338" fill="#FBBB74" width="139.411" height="8.776"/>
	<path fill="#51ABAD" d="M179.238,72.193c0,0,18.315-5.968,36.78-25.663c18.467-19.694,30.084-34.853,30.084-34.853l-0.242-1.92
		c0,0-31.209,30.414-38.51,36.827c-6.891,6.056-16.02,15.814-27.039,20.517c-6.025,2.571-8.148,1.479-8.148,1.479L179.238,72.193z"
		/>
	<path fill="#51ABAD" d="M312.261,72.979c0,0-18.992-6.07-37.459-25.766c-18.467-19.693-29.378-35.535-29.378-35.535l0.284-2.117
		c0,0,31.168,30.611,38.469,37.024c6.889,6.056,18.904,16.031,24.557,19.341c6.559,3.842,10.818,3.113,10.818,3.113L312.261,72.979z
		"/>
	<circle fill="#096C69" cx="246.814" cy="6.88" r="6.88"/>
	<g>
		<rect x="188.874" y="102.152" fill="#D0D2D3" width="19.199" height="19.199"/>
		<rect x="220.626" y="101.506" fill="#D0D2D3" width="19.201" height="19.198"/>
		<rect x="252.382" y="102.152" fill="#D0D2D3" width="19.199" height="19.199"/>
		<rect x="284.136" y="103.026" fill="#D0D2D3" width="19.199" height="19.198"/>
	</g>
	<polygon fill="#E98424" points="335.369,150.158 330.658,163.027 188.874,165.089 155.634,147.562 168.354,144.225 
		176.399,130.137 315.81,130.137 315.81,134.918 	"/>
	<path fill="#51ABAD" d="M155.634,147.562c0,0,28.436,5.977,49.73,4.536c21.293-1.439,41.459-9.821,41.459-9.821
		s31.928,11.741,46.758,11.502c14.828-0.24,44.145-5.76,44.145-5.76s-0.418,11.039-12.967,13.439s-162.362,2.189-162.362,2.189
		L155.634,147.562z"/>
	<path fill="#51ABAD" d="M181.077,130.137l-16.799,20.994l-8.645-3.568c0,0,5.012-0.729,10.531-5.285
		c5.522-4.555,10.234-12.141,10.234-12.141H181.077z"/>
	<path fill="#51ABAD" d="M309.99,130.137l20.18,21.238c0,0,7.75-2.011,8.184-3.355c0,0-10.809-0.408-22.543-17.883H309.99z"/>
	<path fill="#51ABAD" d="M242.608,130.137c-1.745,8.967-4.117,16.879-7.31,20.399h23.39c0,0-3.189-4.975-6.137-20.395
		L242.608,130.137z"/>
	<rect x="156.54" y="172.551" fill="#A61F25" width="180.032" height="35.021"/>
	<path fill="#231F20" d="M162.679,166.432c-13.076-4.408-7.045-18.869-7.045-18.869s20.137,10.18,44.814,10.074
		c37.901-0.16,46.551-15.359,46.551-15.359s14.502,15.462,42.983,15.854c38.158,0.528,48.371-10.112,48.371-10.112
		s4.592,13.119-6.096,18.299C321.568,171.498,174.35,170.365,162.679,166.432z"/>
	<rect x="156.8" y="163.027" fill="#FBBB74" width="180.03" height="8.778"/>
	<g>
		<rect x="189.138" y="178.558" fill="#D0D2D3" width="19.201" height="19.199"/>
		<rect x="220.894" y="178.558" fill="#D0D2D3" width="19.199" height="19.199"/>
		<rect x="252.646" y="178.558" fill="#D0D2D3" width="19.201" height="19.199"/>
		<rect x="284.779" y="178.558" fill="#D0D2D3" width="19.199" height="19.199"/>
	</g>
	<polygon fill="#E98424" points="362.738,226.312 354.103,240.537 173.13,242.598 135.202,228.64 146.94,221.734 157.208,207.646 
		335.152,207.646 335.152,212.429 	"/>
	<path fill="#51ABAD" d="M130.704,225.072c0,0,36.297,5.977,63.473,4.537c27.181-1.441,52.92-9.822,52.92-9.822
		s40.752,11.742,59.68,11.502s56.348-5.76,56.348-5.76s-0.533,11.039-16.551,13.439c-16.016,2.4-207.235,2.189-207.235,2.189
		L130.704,225.072z"/>
	<path fill="#51ABAD" d="M163.179,207.646l-21.441,20.994l-11.033-3.567c0,0,5.769,1.865,16.236-6.93
		c6.424-5.398,9.6-10.57,9.6-10.57L163.179,207.646z"/>
	<path fill="#51ABAD" d="M328.988,207.635l24.49,21.252c0,0,11.898-3.482,10.449-3.357c-1.945,0.164-20.174-8.438-27.355-17.957
		L328.988,207.635z"/>
	<path fill="#51ABAD" d="M241.717,207.646c-2.227,8.966-5.255,16.88-9.33,20.399h29.855c0,0-4.071-4.974-7.832-20.393
		L241.717,207.646z"/>
	<rect x="132.19" y="250.061" fill="#A61F25" width="229.792" height="35.021"/>
	<path fill="#231F20" d="M141.57,244.926c-19.004-4.389-10.866-19.854-10.866-19.854s25.703,10.178,57.203,10.073
		c48.373-0.159,59.412-15.358,59.412-15.358s18.508,15.462,54.866,15.855c48.705,0.527,61.742-10.113,61.742-10.113
		s5.859,13.119-7.785,18.298C342.501,249.008,156.422,248.355,141.57,244.926z"/>
	<rect x="132.19" y="240.537" fill="#FBBB74" width="229.792" height="8.777"/>
	<rect x="174.181" y="256.882" fill="#D0D2D3" width="19.199" height="19.199"/>
	<rect x="205.934" y="256.882" fill="#D0D2D3" width="19.199" height="19.199"/>
	<rect x="237.687" y="256.882" fill="#D0D2D3" width="19.2" height="19.199"/>
	<rect x="269.817" y="256.882" fill="#D0D2D3" width="19.2" height="19.199"/>
	<rect x="301.761" y="256.882" fill="#D0D2D3" width="19.201" height="19.199"/>
	<polygon fill="#E98424" points="394.21,303.211 384.605,318.048 162.511,320.107 110.444,302.581 130.37,299.244 142.97,285.155 
		361.345,285.155 361.345,289.938 	"/>
	<path fill="#51ABAD" d="M110.444,302.581c0,0,44.543,5.978,77.898,4.536c33.352-1.439,64.941-9.821,64.941-9.821
		s50.01,11.741,73.239,11.502c23.23-0.239,70.137-5.759,70.137-5.759s-1.641,11.039-21.297,13.438
		c-19.654,2.401-254.323,2.191-254.323,2.191L110.444,302.581z"/>
	<path fill="#51ABAD" d="M143.653,285.155l-21.381,24.833l-16.129-7.357c0,0,7.141-0.65,15.539-5.646
		c11.537-6.859,10.508-11.902,10.508-11.902L143.653,285.155z"/>
	<path fill="#51ABAD" d="M353.783,285.145l30.053,21.25c0,0,14.328-3.242,12.824-3.355c-5.395-0.408-25.867-8.438-34.678-17.957
		L353.783,285.145z"/>
	<path fill="#51ABAD" d="M246.681,285.156c-2.732,8.967-6.449,16.879-11.449,20.398h36.639c0,0-4.997-4.974-9.611-20.395
		L246.681,285.156z"/>
	<rect x="112.622" y="328.395" fill="#A61F25" width="282" height="51.773"/>
	<path fill="#231F20" d="M118.665,320.338c-17.701-3.883-12.521-17.707-12.521-17.707s35.844,10.129,74.5,10.024
		c59.365-0.159,72.912-15.359,72.912-15.359s22.717,15.464,67.331,15.856c59.775,0.525,75.773-10.113,75.773-10.113
		s7.191,13.119-9.553,18.299C370.365,326.516,136.628,324.279,118.665,320.338z"/>
	<rect x="112.271" y="318.048" fill="#FBBB74" width="282" height="8.776"/>
	<polygon fill="#E98424" points="266.003,381.74 127.368,381.181 23.503,382.688 3.036,380.295 8.471,377.396 15.466,367.075 
		251.674,367.075 251.674,370.578 	"/>
	<path fill="#51ABAD" d="M18.356,367.191L6.052,382.572L0,379.957c0,0,3.388-0.535,7.433-3.872c4.047-3.337,7.496-8.894,7.496-8.894
		H18.356z"/>
	<rect y="379.841" fill="#51ABAD" width="245.528" height="5.048"/>
	<polygon fill="#E98424" points="240.405,380.641 379.039,380.079 482.906,381.588 503.371,379.193 497.937,376.295 
		490.941,365.975 254.733,365.975 254.733,369.478 	"/>
	<path fill="#51ABAD" d="M488.05,366.092l12.309,15.379l6.047-2.613c0,0-3.387-0.535-7.432-3.873
		c-4.045-3.337-7.496-8.893-7.496-8.893H488.05z"/>
	<rect x="260.878" y="378.74" fill="#51ABAD" width="245.528" height="5.047"/>
	<polygon fill="#E98424" points="317.556,353.264 314.103,352.703 210.235,354.212 189.771,351.818 195.206,348.92 201.097,338.599 
		303.228,338.599 303.228,342.102 	"/>
	<path fill="#51ABAD" d="M205.091,338.599l-12.305,15.38l-6.334-2.613c0,0,3.672-0.536,7.715-3.873
		c4.046-3.337,7.496-8.894,7.496-8.894H205.091z"/>
	<path fill="#51ABAD" d="M299.531,338.599l14.781,15.56c0,0,5.678-1.475,5.996-2.461c0,0-7.92-0.295-16.514-13.099H299.531z"/>
	<rect x="198.94" y="356.561" fill="#A61F25" width="109.446" height="62.404"/>
	<rect x="186.735" y="351.365" fill="#51ABAD" width="133.856" height="5.045"/>
	<rect x="229.266" y="366.311" fill="#231F20" width="48.794" height="52.654"/>
</g>
</svg>
