<?xml version="1.0" encoding="utf-8"?>
<!-- Generator: Adobe Illustrator 16.0.0, SVG Export Plug-In . SVG Version: 6.00 Build 0)  -->
<!DOCTYPE svg PUBLIC "-//W3C//DTD SVG 1.1//EN" "http://www.w3.org/Graphics/SVG/1.1/DTD/svg11.dtd">
<svg version="1.1" id="Ebene_1" xmlns="http://www.w3.org/2000/svg" xmlns:xlink="http://www.w3.org/1999/xlink" x="0px" y="0px"
	 width="281.929px" height="193.511px" viewBox="0 0 281.929 193.511" enable-background="new 0 0 281.929 193.511"
	 xml:space="preserve">
<g display="none">
	<g display="inline">
		<path fill="#51ABAD" d="M204.696,69.554c4.743,3.375,11.687,1.973,15.857-1.462c7.447-6.135,13.815-15.042,24.073-8.116
			c6.222,4.201,9.323,10.534,17.222,11.462c8.792,1.033,13.344-7.586,19.777-11.93c10.132-6.842,16.687,4.765,24.075,9.596
			c6.181,4.041,13.043,2.184,18.03-2.408c3.342-3.076,6.392-6.401,10.482-8.509c5.381-2.773,10.932,0.658,14.924,4.149
			c6.362,5.565,9.669,10.058,18.812,8.866c1.891-0.246,1.914-3.25,0-3c-3.538,0.461-7.162,0.41-10.08-1.855
			c-3.559-2.761-6.485-6.24-10.1-8.962c-6.096-4.591-13.488-3.732-19.237,0.888c-6.406,5.147-12.346,14.107-21.564,8.08
			c-3.844-2.514-6.737-6.547-10.54-9.231c-3.136-2.213-6.788-2.887-10.541-2.485c-7.774,0.832-12.324,8.988-18.327,12.951
			c-3.119,2.06-8.5,0.945-11.317-1.24c-3.56-2.76-6.488-6.24-10.102-8.962c-6.096-4.591-13.488-3.732-19.237,0.888
			c-5.473,4.398-12.557,14.48-20.694,8.69C204.63,65.839,203.134,68.442,204.696,69.554L204.696,69.554z"/>
	</g>
</g>
<g display="none">
	<g display="inline">
		<g>
			<path fill="#51ABAD" d="M254.961,41.067c4.744,3.376,11.686,1.977,15.858-1.461c7.447-6.136,13.816-15.038,24.072-8.114
				c6.222,4.2,9.324,10.534,17.222,11.461c8.792,1.032,13.343-7.586,19.775-11.93c10.137-6.845,16.688,4.768,24.079,9.6
				c6.18,4.04,13.042,2.178,18.028-2.412c3.341-3.076,6.391-6.4,10.48-8.508c5.383-2.774,10.936,0.658,14.927,4.15
				c6.364,5.567,9.666,10.058,18.813,8.865c1.891-0.247,1.914-3.25,0-3c-3.536,0.461-7.166,0.413-10.083-1.854
				c-3.557-2.763-6.483-6.241-10.097-8.962c-6.096-4.591-13.491-3.734-19.24,0.886c-6.403,5.145-12.346,14.107-21.562,8.083
				c-3.845-2.514-6.738-6.551-10.542-9.236c-3.137-2.214-6.788-2.886-10.542-2.484c-7.775,0.833-12.323,8.987-18.327,12.951
				c-3.118,2.059-8.498,0.946-11.315-1.238c-3.561-2.76-6.488-6.241-10.104-8.962c-6.096-4.591-13.486-3.733-19.235,0.886
				c-5.476,4.398-12.556,14.48-20.695,8.688C254.895,37.352,253.399,39.955,254.961,41.067L254.961,41.067z"/>
		</g>
	</g>
</g>
<g>
	<g>
		<g>
			<rect x="150.454" y="103.238" fill="#A1886D" width="39.079" height="9.184"/>
			<rect x="0.025" y="104.471" fill="#A1886D" width="39.082" height="7.951"/>
			<rect x="53.154" y="87.906" fill="#EAC18F" width="83.32" height="17.767"/>
			<polygon fill="#FAAE5C" points="189.176,127.836 140.517,97.739 119.663,112.422 0,140.016 0,104.053 189.532,104.053 			"/>
			<path fill="#A1886D" d="M60.458,103.639v-8.274c0,0,0-0.306,0-0.505c-0.004-1.165,1.106-2.786,3.338-2.985
				c2.785-0.247,5.174,0.87,5.174,2.71c0,1.461-0.024,9.055-0.024,9.055H60.458z"/>
			<path fill="#A1886D" d="M80.696,103.639v-8.274c0,0,0-0.306,0-0.505c-0.002-1.165,1.107-2.786,3.341-2.985
				c2.782-0.247,5.171,0.87,5.171,2.71c0,1.461-0.023,9.055-0.023,9.055H80.696z"/>
			<path fill="#A1886D" d="M99.858,103.639v-8.274c0,0,0-0.306,0-0.505c-0.001-1.165,1.107-2.786,3.34-2.985
				c2.785-0.247,5.174,0.87,5.174,2.71c0,1.461-0.025,9.055-0.025,9.055H99.858z"/>
			<path fill="#A1886D" d="M119.663,103.639v-8.274c0,0,0-0.306,0-0.505c-0.001-1.165,1.106-2.786,3.34-2.985
				c2.785-0.247,5.173,0.87,5.173,2.71c0,1.461-0.023,9.055-0.023,9.055H119.663z"/>
			<rect x="88.002" y="20.904" fill="#F2EADF" width="13.251" height="8.766"/>
			<path fill="#BFBFBF" d="M87.871,20.832c0,0-3.517-1.797-2.698-5.562c0.817-3.763,3.106-4.744,5.071-6.706
				c1.962-1.964,3.655-3.137,3.892-4.936C94.374,1.828,94.628,0,94.628,0s0.408,4.676,1.893,5.778
				c2.863,2.128,6.408,4.201,7.706,7.813c0.801,2.233,0.288,7.312-2.974,7.312C99.12,20.904,87.871,20.832,87.871,20.832z"/>
			<path fill="#BFBFBF" d="M0.139,104.471c0,0-0.453-8.021,0.451-11.974c0.903-3.954,2.43-7,5.338-9.824
				c2.906-2.824,5.937-4.968,11.028-5.421c5.09-0.451,10.598,0.301,14.691,3.502c2.916,2.279,6.674,6.299,7.285,11.743
				c0.492,4.396,0,11.974,0,11.974H0.139z"/>
			<path fill="#BFBFBF" d="M150.544,104.053c0,0-0.452-8.016,0.452-11.971c0.904-3.952,2.429-7.001,5.337-9.824
				c2.906-2.824,5.938-4.969,11.028-5.422c5.091-0.451,10.596,0.301,14.689,3.503c2.917,2.28,6.676,6.3,7.285,11.743
				c0.494,4.395,0,11.971,0,11.971H150.544z"/>
			<path fill="#BFBFBF" d="M53.194,87.714c0,0-0.966-17.154,0.968-25.612c1.933-8.457,5.196-14.977,11.415-21.018
				c6.221-6.041,12.706-10.631,23.596-11.596c10.892-0.967,22.671,0.639,31.427,7.488c6.239,4.881,14.279,13.48,15.586,25.125
				c1.056,9.402,0,25.612,0,25.612H53.194z"/>
			<rect x="167.015" y="72.639" fill="#F2EADF" width="5.843" height="3.863"/>
			<path fill="#BFBFBF" d="M166.958,72.606c0,0-1.551-0.793-1.19-2.45c0.36-1.661,1.371-2.096,2.236-2.958
				c0.866-0.866,1.611-1.384,1.717-2.177c0.104-0.792,0.217-1.6,0.217-1.6s0.18,2.062,0.834,2.549
				c1.261,0.936,2.825,1.852,3.396,3.443c0.353,0.986,0.126,3.225-1.311,3.225C171.919,72.639,166.958,72.606,166.958,72.606z"/>
			<rect x="16.677" y="73.149" fill="#F2EADF" width="5.841" height="3.862"/>
			<path fill="#BFBFBF" d="M16.618,73.119c0,0-1.55-0.795-1.188-2.451c0.36-1.662,1.371-2.096,2.237-2.961
				c0.865-0.865,1.609-1.381,1.715-2.174c0.104-0.795,0.218-1.602,0.218-1.602s0.177,2.062,0.833,2.549
				c1.261,0.939,2.824,1.852,3.397,3.442c0.354,0.987,0.127,3.227-1.312,3.227C21.58,73.149,16.618,73.119,16.618,73.119z"/>
			<g display="none">
				<path display="inline" fill="#A1886D" d="M49.07,178.48v-18.896c0,0,0.032-0.395,0.114-0.633
					c0.337-0.975,1.513-3.473,4.796-3.867c4.089-0.492,7.489,2.084,7.565,4.906c0.077,2.903,0,18.49,0,18.49H49.07z"/>
				<path display="inline" fill="#A1886D" d="M36.222,140.016v-18.895c0,0,0.042-0.395,0.155-0.633
					c0.457-0.975,2.047-3.475,6.489-3.867c5.537-0.49,10.142,2.086,10.243,4.906c0.103,2.903,0,18.488,0,18.488H36.222z"/>
				<path display="inline" fill="#FFFFFF" d="M4.221,112.573v-4.149c0,0,0-0.154,0-0.252c0-0.586,0.556-1.4,1.676-1.5
					c1.397-0.124,2.596,0.436,2.596,1.358c0,0.734-0.013,4.543-0.013,4.543H4.221z"/>
				<path display="inline" fill="#FFFFFF" d="M13.194,112.572v-4.148c0,0,0-0.154,0-0.252c-0.001-0.586,0.557-1.4,1.673-1.5
					c1.399-0.124,2.597,0.436,2.597,1.358c0,0.734-0.012,4.542-0.012,4.542H13.194z"/>
				<path display="inline" fill="#FFFFFF" d="M22.725,112.572v-4.148c0,0,0-0.154,0-0.252c0-0.586,0.555-1.4,1.677-1.5
					c1.396-0.124,2.593,0.436,2.593,1.358c0,0.734-0.011,4.542-0.011,4.542H22.725z"/>
				<path display="inline" fill="#A1886D" d="M57.945,140.016v-18.895c0,0,0.044-0.395,0.157-0.633
					c0.455-0.975,2.046-3.475,6.489-3.867c5.537-0.49,10.141,2.086,10.243,4.906c0.103,2.903,0,18.488,0,18.488H57.945z"/>
				<path display="inline" fill="#A1886D" d="M116.633,140.016v-18.895c0,0,0.046-0.395,0.157-0.633
					c0.456-0.975,2.047-3.475,6.488-3.867c5.539-0.49,10.141,2.086,10.244,4.906c0.104,2.903,0,18.488,0,18.488H116.633z"/>
				<path display="inline" fill="#A1886D" d="M138.684,140.016v-18.895c0,0,0.045-0.395,0.157-0.633
					c0.456-0.975,2.047-3.475,6.488-3.867c5.538-0.49,10.141,2.086,10.245,4.906c0.104,2.903,0,18.488,0,18.488H138.684z"/>
				<path display="inline" fill="#A1886D" d="M130.371,178.48v-18.896c0,0,0.034-0.395,0.118-0.633
					c0.333-0.975,1.51-3.473,4.791-3.867c4.091-0.492,7.493,2.084,7.567,4.906c0.078,2.903,0,18.49,0,18.49H130.371z"/>
				<path display="inline" fill="#A1886D" d="M161.03,178.48v-18.896c0,0,0.031-0.395,0.113-0.633
					c0.338-0.975,1.512-3.473,4.795-3.867c4.09-0.492,7.491,2.084,7.565,4.906c0.077,2.903,0,18.49,0,18.49H161.03z"/>
				<path display="inline" fill="#A1886D" d="M88.48,178.48v-21.565c0,0,0.037-0.448,0.131-0.722
					c0.383-1.111,1.724-3.965,5.469-4.413c4.667-0.562,8.548,2.38,8.637,5.601c0.087,3.311,0,21.1,0,21.1H88.48z"/>
				<path display="inline" fill="#A1886D" d="M18.412,178.48v-18.896c0,0,0.033-0.395,0.116-0.633
					c0.337-0.975,1.511-3.473,4.793-3.867c4.089-0.492,7.491,2.084,7.566,4.906c0.077,2.903,0,18.49,0,18.49H18.412z"/>
				<path display="inline" fill="#A1886D" d="M83.155,140.016v-18.594c0,0-0.031-0.568,0-0.948c0.223-2.63,2.357-8.052,10.829-8.052
					c8.457,0,11.583,5.051,11.69,9.025c0.114,4.348,0,18.568,0,18.568H83.155z"/>
				<path display="inline" fill="#FFFFFF" d="M185.337,112.573v-4.149c0,0,0-0.154,0-0.252c0-0.586-0.555-1.4-1.677-1.5
					c-1.394-0.124-2.591,0.436-2.591,1.358c0,0.734,0.008,4.543,0.008,4.543H185.337z"/>
				<path display="inline" fill="#FFFFFF" d="M176.369,112.572v-4.148c0,0,0-0.154,0-0.252c0-0.586-0.558-1.4-1.676-1.5
					c-1.397-0.124-2.595,0.436-2.595,1.358c0,0.734,0.01,4.542,0.01,4.542H176.369z"/>
				<path display="inline" fill="#FFFFFF" d="M15.252,178.48v-21.432c0,0-0.026-0.477,0-0.793c0.187-2.192,1.966-6.724,9.04-6.724
					c7.06,0,9.669,4.22,9.756,7.536c0.099,3.631,0,21.412,0,21.412H15.252z"/>
				<path display="inline" fill="#FFFFFF" d="M45.91,178.48v-21.432c0,0-0.025-0.477,0-0.793c0.188-2.192,1.969-6.724,9.042-6.724
					c7.061,0,9.668,4.22,9.758,7.536c0.095,3.631,0,21.412,0,21.412H45.91z"/>
				<path display="inline" fill="#FFFFFF" d="M127.212,178.48v-21.432c0,0-0.027-0.477,0-0.793c0.185-2.192,1.967-6.724,9.04-6.724
					c7.06,0,9.671,4.22,9.757,7.536c0.098,3.631,0,21.412,0,21.412H127.212z"/>
				<path display="inline" fill="#FFFFFF" d="M157.869,178.48v-21.432c0,0-0.025-0.477,0-0.793c0.188-2.192,1.967-6.724,9.041-6.724
					c7.059,0,9.667,4.22,9.757,7.536c0.099,3.631,0,21.412,0,21.412H157.869z"/>
				<path display="inline" fill="#FFFFFF" d="M79.979,178.48v-25.789c0,0-0.045-0.787,0-1.314
					c0.307-3.646,3.266-11.168,15.015-11.168c11.729,0,16.064,7.007,16.21,12.516c0.162,6.032,0,25.756,0,25.756H79.979z"/>
			</g>
			<path display="none" fill="#FFFFFF" d="M167.08,112.572v-4.148c0,0,0-0.154,0-0.252c0.001-0.586-0.554-1.4-1.675-1.5
				c-1.395-0.124-2.595,0.436-2.595,1.358c0,0.734,0.013,4.542,0.013,4.542H167.08z"/>
		</g>
	</g>
	<polygon fill="#E8E8E8" points="279.381,181.566 203.593,165.637 203.593,88.957 279.381,88.957 	"/>
	<path fill="#A1886D" d="M211.51,117.178V102.18c0,0,0.039-0.51,0.149-0.82c0.437-1.267,1.965-4.518,6.233-5.027
		c5.319-0.641,9.74,2.71,9.838,6.381c0.1,3.773,0,14.465,0,14.465H211.51z"/>
	<path fill="#A1886D" d="M233.354,117.178V102.18c0,0,0.043-0.51,0.151-0.82c0.438-1.267,1.968-4.518,6.233-5.027
		c5.318-0.641,9.741,2.71,9.839,6.381c0.099,3.773,0,14.465,0,14.465H233.354z"/>
	<path fill="#A1886D" d="M254.509,117.178V102.18c0,0,0.041-0.51,0.147-0.82c0.438-1.267,1.967-4.518,6.234-5.027
		c5.317-0.641,9.742,2.71,9.838,6.381c0.101,3.773,0,14.465,0,14.465H254.509z"/>
	<rect x="199.688" y="122.221" fill="#AEB6BA" width="82.247" height="5.936"/>
	<polygon fill="#FAAE5C" points="279.381,88.957 203.593,88.957 214.382,62.567 268.594,62.567 	"/>
	<polygon fill="#6D5741" points="279.38,171.471 151.525,141.193 125.17,141.193 0.025,170.938 0,139.979 121.394,112.385 
		139.931,97.703 155.36,112.611 279.38,141.438 	"/>
	<path fill="#FFDEB2" d="M157.396,108.303l-17.693-13.889l-19.457,13.889L0.025,138.997v54.515h54.466
		c0,0,28.11-36.455,83.017-38.212c54.903-1.757,88.725,38.212,88.725,38.212h53.147v-54.807L157.396,108.303z M3.933,169.977
		l-0.381-14.635c0,0-0.192-7.428,7.712-8.413c5.43-0.675,8.913,2.856,9.191,5.044c0.277,2.191,0.365,14.053,0.365,14.053
		L3.933,169.977z M23.595,165.314l-0.379-14.639c0,0-0.194-7.427,7.711-8.41c5.429-0.676,8.915,2.855,9.191,5.045
		c0.276,2.188,0.364,14.051,0.364,14.051L23.595,165.314z M42.928,160.408l-0.379-14.637c0,0-0.196-7.426,7.711-8.411
		c5.427-0.677,8.913,2.854,9.188,5.044c0.278,2.188,0.365,14.051,0.365,14.051L42.928,160.408z M62.624,155.54l-0.38-14.635
		c0,0-0.192-7.429,7.71-8.411c5.429-0.678,8.916,2.853,9.192,5.043c0.278,2.189,0.364,14.051,0.364,14.051L62.624,155.54z
		 M82.289,150.451l-0.379-14.638c0,0-0.194-7.429,7.709-8.411c5.43-0.678,8.915,2.852,9.192,5.043
		c0.276,2.189,0.365,14.051,0.365,14.051L82.289,150.451z M101.503,145.916l-0.381-14.635c0,0-0.193-7.43,7.711-8.412
		c5.431-0.679,8.915,2.855,9.193,5.044c0.277,2.191,0.364,14.051,0.364,14.051L101.503,145.916z M125.17,141.193v-26.572
		c0,0,0.049-1.635,0.549-3.186c0.083-0.256,0.177-0.513,0.283-0.771c0.012-0.031,0.028-0.062,0.042-0.094
		c0.099-0.234,0.205-0.471,0.326-0.706c0.006-0.013,0.016-0.026,0.021-0.038c0.266-0.516,0.584-1.029,0.957-1.523l0,0
		c1.945-2.582,5.47-4.701,11.658-4.688c5.35,0.011,8.664,2.259,10.504,4.688l0,0c0.346,0.453,0.638,0.914,0.886,1.367
		c0.005,0.014,0.014,0.027,0.021,0.042c0.078,0.14,0.148,0.283,0.214,0.421c0.024,0.053,0.044,0.102,0.068,0.152
		c0.083,0.178,0.156,0.357,0.223,0.529c0.044,0.116,0.086,0.23,0.124,0.346c0.022,0.062,0.043,0.13,0.062,0.195
		c0.056,0.178,0.104,0.354,0.143,0.518c0.296,1.29,0.275,2.526,0.275,2.526v26.794H125.17z M177.088,131.678l-0.38,14.637
		l-16.886-3.952c0,0,0.087-11.862,0.364-14.052c0.277-2.191,3.762-5.721,9.191-5.045
		C177.281,124.25,177.088,131.678,177.088,131.678z M196.303,136.211l-0.382,14.638l-16.885-3.953c0,0,0.089-11.864,0.364-14.054
		c0.277-2.189,3.76-5.721,9.19-5.043C196.494,128.782,196.303,136.211,196.303,136.211z M215.966,141.303l-0.381,14.637
		l-16.885-3.955c0,0,0.088-11.86,0.365-14.051s3.762-5.72,9.191-5.045C216.159,133.874,215.966,141.303,215.966,141.303z
		 M235.664,146.168l-0.38,14.637l-16.888-3.953c0,0,0.089-11.859,0.367-14.051c0.274-2.189,3.76-5.723,9.189-5.046
		C235.855,138.74,235.664,146.168,235.664,146.168z M254.996,151.076l-0.38,14.635l-16.887-3.952c0,0,0.088-11.862,0.363-14.053
		c0.278-2.188,3.761-5.72,9.192-5.044C255.188,143.646,254.996,151.076,254.996,151.076z M274.658,155.738l-0.38,14.635
		l-16.885-3.954c0,0,0.088-11.859,0.364-14.05c0.276-2.188,3.761-5.721,9.19-5.043C274.851,148.31,274.658,155.738,274.658,155.738z
		"/>
	<path fill="#A1886D" d="M151.525,139.736H125.17L0.025,170.694v22.817h54.466c0,0,28.11-36.454,83.017-38.212
		c54.903-1.756,88.725,38.212,88.725,38.212h53.147v-22.284L151.525,139.736z"/>
</g>
</svg>
