<?xml version="1.0" encoding="utf-8"?>
<!-- Generator: Adobe Illustrator 16.0.0, SVG Export Plug-In . SVG Version: 6.00 Build 0)  -->
<!DOCTYPE svg PUBLIC "-//W3C//DTD SVG 1.1//EN" "http://www.w3.org/Graphics/SVG/1.1/DTD/svg11.dtd">
<svg version="1.1" id="Ebene_1" xmlns="http://www.w3.org/2000/svg" xmlns:xlink="http://www.w3.org/1999/xlink" x="0px" y="0px"
	 width="435.081px" height="222.886px" viewBox="0 0 435.081 222.886" enable-background="new 0 0 435.081 222.886"
	 xml:space="preserve">
<g>
	<path fill="#C5A276" d="M2.423,179.675c-8.953-46.314,10.113-38.626,5.727-56.891c-5.908-24.605,11.994-17.919,14.324-21.648
		c2.688-24.709,4.547-19.732,29.9-21.846c15.043-1.252,3.58-15.127,37.957-15.576c79.238-1.03,187.176-14.949,185.533-6.125
		c-2.146,11.549-0.268,11.146-0.268,11.146c33.303,5.015,39.105,5.237,38.539,8.997c-6.043,40.109-0.67,35.451-0.67,43.783
		c-3.777,18.514-7.754,17.352-3.994,19.18c26.592-1.112,29.463-5.222,47.098,0.688c2.418,2.862-2.844,12.872-1.547,15.505
		c-0.514,3.83,12.248,3.891,23.277,8.867c17.535,4.11,17.18,5.705,29.623,4.272c3.438-1.052,7.463,15.692,7.525,28.647
		c1.369,8.953,10.68,4.477,13.008,8.639c3.238,2.232,6.625,14.854,6.625,14.854H4.501L2.423,179.675z"/>
	<path fill="#776350" d="M42.282,221.833c5.012-68.105,7.34-61.055,17.188-64.156c1.432-13.787-3.145-22.768,7.125-23.484
		c4.152,0.268-0.986-15.807,3.08-19.428c3.939-5.193,16.75,2.826,12.713-22.559c-1.611-11.818,19.301-10.133,32.014-12.64
		c1.609,0-0.68-18.513-3.547-26.751c34.199,0.18,19.453-26.73,29.836-36.923c38.508-1.515,51.578,1.406,82.193-1.28
		c-0.18,6.804-1.174,7.701-1.197,15.145c5.553-0.18,6.316-3.029,9.844-0.574c0.18,23.633-2.33,34.912-0.352,44.309
		c9.131,0.717,6.629,0.75,12.35,0.664c-0.434,11.428-3.08,26.462-2.711,36.314c2.697,4.305,7.463,1.107,9.691,1.795
		c1.791,1.426-2.865,34.371,3.047,41.387c3.805,0.727,11.277-2.898,10.74,7.287c1.123,20.617,0.256,61.229,0.256,61.229
		L42.282,221.833z"/>
	<rect x="100.997" y="85.886" fill="#D04A27" width="99" height="28"/>
	<g>
		<ellipse fill="#D04A27" cx="147.232" cy="18.018" rx="5.897" ry="1.829"/>
		<ellipse fill="#D04A27" cx="147.233" cy="12.903" rx="4.68" ry="1.454"/>
		<path fill="#D04A27" d="M150.688,8.636c0-0.592-1.547-1.072-3.457-1.072c-1.906,0-3.451,0.48-3.451,1.072
			c0,0.594,1.545,1.073,3.451,1.073C149.142,9.709,150.688,9.229,150.688,8.636z"/>
		<path fill="#D04A27" d="M149.72,2.487c0-1.375-1.111-2.487-2.488-2.487c-1.371,0-2.482,1.112-2.482,2.487
			c0,1.373,1.111,2.486,2.482,2.486C148.608,4.974,149.72,3.86,149.72,2.487z"/>
	</g>
	<rect x="106.997" y="45.886" fill="#D04A27" width="88" height="34"/>
	<rect x="91.997" y="126.886" fill="#D04A27" width="117" height="34"/>
	<path fill="#776350" d="M415.317,222.263c-0.525-1.486-0.717-3.063-2.498-3.588c-1.369-0.404-4.094-0.529-5.512-0.136
		c-1.959,0.546-3.154,2.546-5.102,3.058c-1.637,0.43-4.193,0.302-5.875,0.136c-1.314-0.132-2.598-0.618-3.926-0.9
		c-1.861-0.394-2.947,0.229-3.408-1.786c-0.705-3.097,1.215-9.1-4.27-8.214c-0.205,4.217-1.67,7.007-6.473,6.019
		c-4.816-0.989-3.924-6.136-4.145-9.969c-4.498-0.166-8.898-1.545-13.447-1.806c-2.621-0.15-11.203-0.804-12.139,1.612
		c-0.305,0.789,0.1,3.526,0.049,4.506c-0.139,2.647-0.676,3.72-3.521,4.27c-1.869,0.359-3.771-0.072-5.645,0.176
		c-1.951,0.256-2.684,1.255-4.123,2.486c-4.777,4.086-11.029,3.802-17.043,3.257c-4.615-0.421-9.107-0.982-13.646-2.302
		c-3.115-0.906-2.65-1.607-2.793-4.464c-0.156-3.166-1.055-5.009-3.471-7.112c-1.738-1.511-3.918-3.194-5.619-1.137
		c-1.199,1.449-1.938,4.031-2.676,5.69c-1.201,2.7-1.166,4.599-1.33,7.452c-2.479,1.431-6.73,0.498-9.713,0.645
		c-3.582,0.176-7.158,0.469-10.721,1.033c-1.223,0.194-3.854-0.166-4.43,0.979L415.317,222.263z"/>
	<path fill="#776350" d="M310.62,184.016c-0.34-6.374,11.875-4.024,15.219-3.183c1.646,0.415,2.418,0.681,2.139,2.457
		c-0.299,1.921-1.479,1.832-3.223,2.336c-3.178,0.918-6.15,2.303-9.439,2.506c-1.436,0.09-3.023,0.156-3.846-1.074
		C310.739,185.96,310.948,185.263,310.62,184.016z"/>
	<path fill="#776350" d="M355.606,176.237c-0.4-1.989-1.559-7.109,1.615-7.523c1.658-0.216,6.664,1.585,7.918,2.68
		c0.477,0.418,0.725,1.117,1.258,1.576c0.557,0.477,1.188,0.465,1.607,1.074c0.586,0.854,0.559,3.066,0,3.67
		c-1.283,1.391-6.396,1.941-8.281,2.293c-1.295,0.242-2.752,0.211-4.092,0.144C354.755,179.729,356.046,177.833,355.606,176.237z"/>
	<path fill="#776350" d="M270.739,92.003c0.314-2.104,4.479-1.402,6.76-1.621c2.963-0.287,5.785-0.438,8.412-1.646
		c2.092-0.962,5.982-1.816,8.422-1.174c3.361,0.886,2.568,3.758,2.34,6.383c-0.15,0.789-5.041,0.959-7.68,1.102
		c-2.574,0.141-5.137-0.51-7.689-0.139c-2.5,0.363-4.924,2.352-7.521,2.117C270.163,96.699,270.71,94.343,270.739,92.003z"/>
	<path fill="#776350" d="M14.886,114.383c3.367-3.354,8.768-3.521,13.209-3.939c4.176-0.39,8.236-1.446,12.354-1.829
		c1.523-0.143,3.096-0.068,4.652-0.137c1.199-0.053,4.014-1.02,5.061-0.545c2.402,1.086-0.551,5.771-2.15,6.773
		c-3.018,1.887-6.674,2.932-9.852,4.639c-2.775,1.492-6.494,2.08-9.666,2.418c-3.625,0.386-6.6-1.036-9.846-2.231
		C16.808,118.854,13.206,116.581,14.886,114.383z"/>
	<path fill="#776350" d="M47.274,162.321h8.527c0,0,0.188-8.666,0-11.549c-0.602-9.467-8.627-8.628-8.627-8.628h0.402
		c0,0-8.025-0.839-8.627,8.628c-0.188,2.883,0,11.549,0,11.549H47.274z"/>
	<path fill="#776350" d="M255.36,143.991h5.703c0,0,0.123-6.098,0-8.126c-0.402-6.661-5.77-6.07-5.77-6.07h0.27
		c0,0-5.365-0.591-5.77,6.07c-0.121,2.028,0,8.126,0,8.126H255.36z"/>
	<path fill="#776350" d="M295.778,144.171h5.701c0,0,0.123-6.098,0-8.126c-0.404-6.662-5.768-6.071-5.768-6.071h0.268
		c0,0-5.365-0.591-5.768,6.071c-0.125,2.028,0,8.126,0,8.126H295.778z"/>
	<g>
		<path fill="#776350" d="M265.212,142.793c0-0.524-0.428-0.95-0.951-0.95c-0.527,0-0.951,0.426-0.951,0.95
			c0,0.528,0.424,0.953,0.951,0.953C264.784,143.746,265.212,143.321,265.212,142.793z"/>
		<path fill="#776350" d="M287.862,142.793c0-0.524-0.428-0.95-0.953-0.95s-0.949,0.426-0.949,0.95c0,0.528,0.424,0.953,0.949,0.953
			S287.862,143.321,287.862,142.793z"/>
		<path fill="#776350" d="M283.333,142.793c0-0.524-0.428-0.95-0.951-0.95c-0.527,0-0.953,0.426-0.953,0.95
			c0,0.528,0.426,0.953,0.953,0.953C282.905,143.746,283.333,143.321,283.333,142.793z"/>
		<path fill="#776350" d="M278.802,142.793c0-0.524-0.426-0.95-0.951-0.95s-0.951,0.426-0.951,0.95c0,0.528,0.426,0.953,0.951,0.953
			S278.802,143.321,278.802,142.793z"/>
		<path fill="#776350" d="M274.271,142.793c0-0.524-0.428-0.95-0.951-0.95s-0.951,0.426-0.951,0.95c0,0.528,0.428,0.953,0.951,0.953
			S274.271,143.321,274.271,142.793z"/>
		<path fill="#776350" d="M269.741,142.793c0-0.524-0.426-0.95-0.951-0.95s-0.951,0.426-0.951,0.95c0,0.528,0.426,0.953,0.951,0.953
			S269.741,143.321,269.741,142.793z"/>
	</g>
	<g>
		<circle fill="#776350" cx="19.249" cy="178.616" r="0.952"/>
		<circle fill="#776350" cx="37.518" cy="165.23" r="0.951"/>
		<circle fill="#776350" cx="33.865" cy="167.907" r="0.951"/>
		<path fill="#776350" d="M30.978,170.021c-0.311-0.422-0.904-0.515-1.328-0.204c-0.426,0.311-0.518,0.907-0.207,1.33
			c0.312,0.424,0.908,0.517,1.332,0.207C31.198,171.043,31.29,170.447,30.978,170.021z"/>
		<circle fill="#776350" cx="26.557" cy="173.261" r="0.951"/>
		<path fill="#776350" d="M23.671,175.377c-0.311-0.423-0.906-0.515-1.328-0.204c-0.428,0.311-0.52,0.906-0.207,1.328
			c0.312,0.425,0.906,0.518,1.33,0.207S23.981,175.802,23.671,175.377z"/>
	</g>
	<g>
		<circle fill="#776350" cx="19.249" cy="205.906" r="0.952"/>
		<path fill="#776350" d="M38.284,191.956c-0.311-0.424-0.902-0.516-1.328-0.203c-0.424,0.309-0.514,0.904-0.205,1.326
			c0.311,0.426,0.906,0.518,1.332,0.207C38.505,192.976,38.597,192.38,38.284,191.956z"/>
		<circle fill="#776350" cx="33.865" cy="195.195" r="0.95"/>
		<path fill="#776350" d="M30.978,197.31c-0.311-0.424-0.904-0.516-1.328-0.204c-0.426,0.311-0.518,0.905-0.207,1.329
			c0.312,0.426,0.908,0.518,1.332,0.207S31.29,197.735,30.978,197.31z"/>
		<circle fill="#776350" cx="26.557" cy="200.55" r="0.951"/>
		<path fill="#776350" d="M23.671,202.666c-0.311-0.425-0.906-0.517-1.328-0.206c-0.428,0.312-0.52,0.906-0.207,1.33
			c0.312,0.425,0.906,0.516,1.33,0.205C23.89,203.687,23.981,203.089,23.671,202.666z"/>
	</g>
	<g>
		<circle fill="#776350" cx="19.249" cy="178.942" r="0.952"/>
		<circle fill="#776350" cx="37.512" cy="192.34" r="0.951"/>
		<path fill="#776350" d="M34.628,190.222c0.309-0.422,0.217-1.016-0.207-1.328c-0.422-0.311-1.02-0.219-1.328,0.203
			c-0.312,0.424-0.223,1.021,0.201,1.331C33.718,190.739,34.315,190.648,34.628,190.222z"/>
		<circle fill="#776350" cx="30.206" cy="186.98" r="0.952"/>
		<circle fill="#776350" cx="26.555" cy="184.301" r="0.951"/>
		<path fill="#776350" d="M23.671,182.185c0.309-0.422,0.217-1.019-0.207-1.33c-0.422-0.311-1.018-0.22-1.328,0.203
			c-0.312,0.428-0.221,1.021,0.201,1.332C22.763,182.699,23.358,182.608,23.671,182.185z"/>
	</g>
	<g>
		<circle fill="#776350" cx="19.249" cy="205.906" r="0.952"/>
		<circle fill="#776350" cx="37.512" cy="219.302" r="0.951"/>
		<path fill="#776350" d="M34.628,217.185c0.309-0.422,0.217-1.018-0.207-1.328c-0.422-0.311-1.02-0.22-1.328,0.203
			c-0.312,0.424-0.223,1.021,0.201,1.332S34.315,217.61,34.628,217.185z"/>
		<circle fill="#776350" cx="30.206" cy="213.942" r="0.952"/>
		<circle fill="#776350" cx="26.555" cy="211.263" r="0.951"/>
		<path fill="#776350" d="M23.671,209.146c0.309-0.423,0.217-1.019-0.207-1.329c-0.422-0.311-1.018-0.22-1.328,0.203
			c-0.312,0.426-0.221,1.021,0.201,1.332C22.763,209.663,23.358,209.571,23.671,209.146z"/>
	</g>
	<g>
		<path fill="#776350" d="M331.317,182.862c-0.07-0.521-0.551-0.886-1.07-0.814c-0.521,0.072-0.885,0.551-0.814,1.072
			c0.07,0.521,0.551,0.885,1.07,0.813C331.026,183.862,331.39,183.383,331.317,182.862z"/>
		<path fill="#776350" d="M353.759,179.794c-0.07-0.52-0.551-0.885-1.07-0.812c-0.523,0.069-0.885,0.55-0.814,1.069
			c0.07,0.521,0.551,0.887,1.07,0.815C353.466,180.796,353.829,180.316,353.759,179.794z"/>
		<path fill="#776350" d="M349.272,180.407c-0.072-0.52-0.553-0.883-1.07-0.813c-0.523,0.072-0.889,0.551-0.816,1.072
			c0.07,0.521,0.551,0.885,1.07,0.813C348.979,181.409,349.343,180.929,349.272,180.407z"/>
		<circle fill="#776350" cx="343.839" cy="181.149" r="0.952"/>
		<circle fill="#776350" cx="339.351" cy="181.763" r="0.952"/>
		<path fill="#776350" d="M335.806,182.247c-0.07-0.52-0.551-0.882-1.07-0.813c-0.523,0.071-0.887,0.552-0.816,1.071
			c0.072,0.521,0.553,0.887,1.07,0.814C335.513,183.25,335.876,182.771,335.806,182.247z"/>
	</g>
	<path fill="#E1C8A3" d="M149.644,190.886h49.416c0,0,29.006-1.577,38.676-20.643c-19.338,9.13-29.008-10.056-29.008-10.056
		l-58.279,0.343l-57.74-0.633c0,0-9.668,20.06-29.004,10.929c9.666,19.068,38.672,20.06,38.672,20.06H149.644z"/>
	<path fill="#D04A27" d="M149.644,190.886h49.416c0,0,29.006-1.577,38.676-20.643c-12.383,19.006-167.076,19.513-174.031,0.791
		c9.666,19.067,38.672,19.852,38.672,19.852H149.644z"/>
	<path fill="#E1C8A3" d="M149.72,129.886h42.148c0,0,24.74-1.097,32.986-11.32c-16.494,4.896-24.738-5.515-24.738-5.515
		l-49.711,0.122l-49.25-0.372c0,0-8.246,10.991-24.74,6.095c8.246,10.223,32.986,10.99,32.986,10.99H149.72z"/>
	<path fill="#D04A27" d="M149.72,129.886h42.148c0,0,24.74-1.097,32.986-11.32c-10.561,10.191-142.506,10.59-148.439,0.552
		c8.246,10.223,32.986,10.769,32.986,10.769H149.72z"/>
	<path fill="#E1C8A3" d="M149.644,94.886h37.678c0,0,22.117-0.785,29.488-11.008c-14.742,4.896-22.113-5.358-22.113-5.358
		l-44.439,0.199l-44.027-0.333c0,0-7.371,10.698-22.115,5.802c7.373,10.223,29.488,10.698,29.488,10.698H149.644z"/>
	<path fill="#D04A27" d="M149.644,94.886h37.678c0,0,22.117-0.785,29.488-11.008C207.37,94.069,89.419,94.31,84.114,84.273
		c7.373,10.221,29.488,10.612,29.488,10.612H149.644z"/>
	<path fill="#E1C8A3" d="M148.103,49.886h33.494c0,0,19.662-1.383,26.219-11.604c-13.107,4.895-19.662-5.659-19.662-5.659
		l-39.508,0.05l-39.141-0.405c0,0-6.555,11.258-19.66,6.362c6.553,10.221,26.215,11.256,26.215,11.256H148.103z"/>
	<path fill="#D04A27" d="M148.103,49.886h33.494c0,0,19.662-1.383,26.219-11.604c-8.395,10.19-113.256,10.729-117.971,0.692
		c6.553,10.222,26.215,10.911,26.215,10.911H148.103z"/>
	<path fill="none" stroke="#8BC541" stroke-miterlimit="10" d="M149.644,145.299"/>
	<path fill="none" stroke="#3A53A3" stroke-miterlimit="10" d="M236.659,170.007"/>
	<path fill="none" stroke="#3A53A3" stroke-miterlimit="10" d="M197.985,179.675"/>
	<path fill="none" stroke="#3A53A3" stroke-miterlimit="10" d="M149.644,130.259"/>
	<path fill="none" stroke="#EC2227" stroke-miterlimit="10" d="M102.376,130.796"/>
	<path fill="none" stroke="#EC2227" stroke-miterlimit="10" d="M63.704,170.007"/>
	<path fill="none" stroke="#EC2227" stroke-miterlimit="10" d="M63.704,170.544"/>
	<path fill="none" stroke="#EC2227" stroke-miterlimit="10" d="M237.735,170.544"/>
	<rect x="84.997" y="185.886" fill="#D04A27" width="130" height="37"/>
	<rect x="90.532" y="193.699" fill="#4C392A" width="16.516" height="25.782"/>
	<rect x="99.507" y="136.487" fill="#4C392A" width="15.139" height="20.09"/>
	<rect x="106.757" y="98.716" fill="#4C392A" width="10.096" height="12.45"/>
	<rect x="112.253" y="54.583" fill="#4C392A" width="10.094" height="19.61"/>
	<rect x="178.499" y="54.583" fill="#4C392A" width="10.094" height="19.61"/>
	<rect x="161.937" y="54.583" fill="#4C392A" width="10.094" height="19.61"/>
	<rect x="145.378" y="54.583" fill="#4C392A" width="10.094" height="19.61"/>
	<rect x="128.813" y="54.583" fill="#4C392A" width="10.094" height="19.61"/>
	<rect x="121.991" y="98.716" fill="#4C392A" width="10.096" height="12.45"/>
	<rect x="137.228" y="98.716" fill="#4C392A" width="10.096" height="12.45"/>
	<rect x="152.464" y="98.716" fill="#4C392A" width="10.094" height="12.45"/>
	<rect x="167.698" y="98.716" fill="#4C392A" width="10.096" height="12.45"/>
	<rect x="182.933" y="98.716" fill="#4C392A" width="10.096" height="12.45"/>
	<rect x="121.327" y="136.487" fill="#4C392A" width="15.141" height="20.09"/>
	<rect x="186.79" y="136.487" fill="#4C392A" width="15.141" height="20.09"/>
	<rect x="164.968" y="136.487" fill="#4C392A" width="15.143" height="20.09"/>
	<rect x="143.147" y="136.487" fill="#4C392A" width="15.141" height="20.09"/>
	<path fill="none" stroke="#8BC541" stroke-miterlimit="10" d="M149.276,99.886"/>
	<rect x="192.722" y="193.699" fill="#4C392A" width="16.516" height="25.782"/>
	<rect x="166.771" y="193.699" fill="#4C392A" width="16.518" height="25.782"/>
	<path fill="#4C392A" d="M154.478,11.076c7.93,21.156-10.006,23.12-10.006,23.12s-0.211-10.546-0.09-11.55
		C149.923,22.682,154.478,11.076,154.478,11.076z"/>
	<rect x="141.628" y="193.699" fill="#4C392A" width="16.516" height="25.782"/>
	<rect x="116.079" y="193.699" fill="#4C392A" width="16.52" height="25.782"/>
	<path fill="#D04A27" d="M117.298,11.255c5.373,17.725,30.025,11.568,30.025,11.568s20.287,5.979,26.375-9.309
		c4.654,15.576-7.814,19.884-7.814,19.884s-23.16,1.849-40.107-0.085C111.45,25.614,117.298,11.255,117.298,11.255z"/>
	<path fill="#4C392A" d="M137.228,11.255c-7.93,21.153,10.004,23.117,10.004,23.117s0.213-10.544,0.092-11.549
		C141.782,22.858,137.228,11.255,137.228,11.255z"/>
</g>
</svg>
