<?xml version="1.0" encoding="utf-8"?>
<!-- Generator: Adobe Illustrator 16.0.0, SVG Export Plug-In . SVG Version: 6.00 Build 0)  -->
<!DOCTYPE svg PUBLIC "-//W3C//DTD SVG 1.1//EN" "http://www.w3.org/Graphics/SVG/1.1/DTD/svg11.dtd">
<svg version="1.1" id="Ebene_1" xmlns="http://www.w3.org/2000/svg" xmlns:xlink="http://www.w3.org/1999/xlink" x="0px" y="0px"
	 width="405.162px" height="157.973px" viewBox="0 0 405.162 157.973" enable-background="new 0 0 405.162 157.973"
	 xml:space="preserve">
<g>
	<rect x="3.76" y="34.966" fill="#BA8A5A" width="42.636" height="122.671"/>
	<rect x="358.674" y="50.773" fill="#BA8A5A" width="42.984" height="93.494"/>
	<polygon fill="#776350" points="101.654,44.155 101.654,67.263 64.929,67.263 64.929,144.641 86.1,144.641 131.971,144.641 
		174.983,144.641 174.983,44.155 	"/>
	<rect x="254.22" y="65.485" fill="#776350" width="92.288" height="79.155"/>
	<rect x="0.041" y="34.966" fill="#776350" width="50.072" height="9.778"/>
	<rect x="355.13" y="50.773" fill="#776350" width="50.073" height="9.776"/>
	<polygon fill="#FFD8AE" points="165.479,96.636 165.479,87.115 155.957,87.115 155.957,96.636 146.436,96.636 146.436,87.115 
		136.912,87.115 136.912,96.636 127.393,96.636 127.393,87.115 117.87,87.115 117.87,96.636 108.348,96.636 108.348,87.115 
		98.825,87.115 98.825,96.636 89.304,96.636 89.304,87.263 79.782,87.263 79.782,96.636 70.26,96.636 70.26,87.263 60.737,87.263 
		60.737,96.636 51.216,96.636 51.216,87.263 41.693,87.263 41.693,96.636 32.171,96.636 32.171,87.263 22.649,87.263 22.649,96.636 
		13.127,96.636 13.127,87.263 3.605,87.263 3.605,96.783 3.76,96.783 3.76,157.973 175,157.973 175,96.636 	"/>
	<g>
		<polygon fill="#BA8A5A" points="185.566,11.297 185.566,0 174.188,0 174.188,11.297 162.81,11.297 162.81,0 151.43,0 
			151.43,11.297 151.43,11.379 151.43,157.973 254.101,157.973 254.101,11.297 		"/>
		<rect x="196.943" fill="#BA8A5A" width="11.38" height="11.379"/>
		<rect x="219.7" fill="#BA8A5A" width="11.379" height="11.379"/>
		<rect x="242.721" fill="#BA8A5A" width="11.38" height="11.379"/>
	</g>
	<g>
		<rect x="254.101" y="96.636" fill="#FFD8AE" width="147.558" height="61.337"/>
		<rect x="277.737" y="87.113" fill="#FFD8AE" width="9.521" height="9.522"/>
		<rect x="296.78" y="87.113" fill="#FFD8AE" width="9.521" height="9.522"/>
		<rect x="258.692" y="87.145" fill="#FFD8AE" width="9.521" height="9.523"/>
		<rect x="315.825" y="87.113" fill="#FFD8AE" width="9.521" height="9.522"/>
		<rect x="334.869" y="87.113" fill="#FFD8AE" width="9.521" height="9.522"/>
		<rect x="353.946" y="87.145" fill="#FFD8AE" width="9.521" height="9.523"/>
		<rect x="372.957" y="87.122" fill="#FFD8AE" width="9.521" height="9.522"/>
		<rect x="392.158" y="87.122" fill="#FFD8AE" width="9.521" height="9.522"/>
	</g>
	<g>
		<rect x="365.569" y="63.84" fill="#231F20" width="6.806" height="10.686"/>
		<rect x="376.764" y="63.84" fill="#231F20" width="6.804" height="10.686"/>
		<rect x="387.958" y="63.84" fill="#231F20" width="6.806" height="10.686"/>
	</g>
	<g>
		<rect x="168.922" y="24.491" fill="#231F20" width="6.804" height="10.687"/>
		<rect x="184.288" y="24.491" fill="#231F20" width="6.804" height="10.687"/>
		<rect x="199.655" y="24.491" fill="#231F20" width="6.805" height="10.687"/>
		<rect x="214.435" y="24.491" fill="#231F20" width="6.807" height="10.687"/>
		<rect x="229.803" y="24.491" fill="#231F20" width="6.805" height="10.687"/>
	</g>
	<rect x="107.461" y="54.799" fill="#231F20" width="6.806" height="10.687"/>
	<rect x="123.084" y="54.799" fill="#231F20" width="6.806" height="10.687"/>
	<rect x="138.709" y="54.799" fill="#231F20" width="6.806" height="10.687"/>
	<g>
		<rect x="296.96" y="72.173" fill="#231F20" width="6.807" height="10.685"/>
		<rect x="312.584" y="72.173" fill="#231F20" width="6.805" height="10.685"/>
		<rect x="328.208" y="72.173" fill="#231F20" width="6.807" height="10.685"/>
		<rect x="265.714" y="72.173" fill="#231F20" width="6.805" height="10.685"/>
		<rect x="281.337" y="72.173" fill="#231F20" width="6.805" height="10.685"/>
	</g>
	<g>
		<rect x="72.169" y="72.173" fill="#231F20" width="6.806" height="10.685"/>
		<rect x="87.792" y="72.173" fill="#231F20" width="6.807" height="10.685"/>
	</g>
	<g>
		<rect x="10.306" y="54.465" fill="#231F20" width="6.805" height="10.686"/>
		<rect x="21.501" y="54.465" fill="#231F20" width="6.805" height="10.686"/>
		<rect x="32.696" y="54.465" fill="#231F20" width="6.804" height="10.686"/>
	</g>
	<path fill="#776350" d="M183.355,157.973V103.93c0,0,0.091-1.123,0.33-1.809c0.961-2.783,4.322-9.934,13.706-11.059
		c11.7-1.402,21.426,5.961,21.641,14.037c0.222,8.301,0,52.874,0,52.874H183.355z"/>
</g>
</svg>
