<?xml version="1.0" encoding="utf-8"?>
<!-- Generator: Adobe Illustrator 16.0.0, SVG Export Plug-In . SVG Version: 6.00 Build 0)  -->
<!DOCTYPE svg PUBLIC "-//W3C//DTD SVG 1.1//EN" "http://www.w3.org/Graphics/SVG/1.1/DTD/svg11.dtd">
<svg version="1.1" id="Ebene_1" xmlns="http://www.w3.org/2000/svg" xmlns:xlink="http://www.w3.org/1999/xlink" x="0px" y="0px"
	 width="384px" height="180.407px" viewBox="0 0 384 180.407" enable-background="new 0 0 384 180.407" xml:space="preserve">
<g>
	<rect x="239" y="78.407" fill="#C6AB87" width="112" height="102"/>
	<rect x="305" y="108.407" fill="#AA8155" width="79" height="72"/>
	<rect y="116.407" fill="#C6AB87" width="120" height="64"/>
	<rect x="72" y="33.407" fill="#C6AB87" width="95" height="147"/>
	<rect x="46" y="80.407" fill="#AA8155" width="73" height="100"/>
	<rect x="155" y="96.407" fill="#AA8155" width="123" height="84"/>
	<path fill="#776350" d="M101.57,155.407h9.557c0,0,0.297-18.316-4.318-18.316C101.232,137.091,101.57,155.407,101.57,155.407z"/>
	<path fill="#776350" d="M85.646,155.407h9.552c0,0,0.3-18.316-4.312-18.316C85.305,137.091,85.646,155.407,85.646,155.407z"/>
	<path fill="#776350" d="M69.721,155.407h9.555c0,0,0.301-18.316-4.311-18.316C69.384,137.091,69.721,155.407,69.721,155.407z"/>
	<path fill="#776350" d="M53.795,155.407h9.559c0,0,0.297-18.316-4.316-18.316C53.457,137.091,53.795,155.407,53.795,155.407z"/>
	<rect x="245" y="84.407" fill="#776350" width="10" height="8"/>
	<rect x="55" y="89.407" fill="#776350" width="22" height="13"/>
	<rect x="266" y="131.407" fill="#776350" width="62" height="49"/>
	<rect x="272" y="157.407" fill="#E0CDB9" width="10" height="9"/>
	<rect x="116" y="69.407" fill="#776350" width="94" height="111"/>
	<rect x="120" y="69.407" fill="none" width="88" height="111"/>
	<rect x="46" y="80.407" fill="#776350" width="70" height="5"/>
	<polygon fill="#776350" points="116,126.407 47.162,126.407 46,126.407 46,131.407 116,131.407 	"/>
	<rect x="128" y="45.407" fill="#AA8155" width="14" height="135"/>
	<rect x="189" y="45.407" fill="#AA8155" width="12" height="135"/>
	<path fill="#776350" stroke="#776350" stroke-miterlimit="10" d="M181.867,45.216l26.834-0.002
		c0.793-2.828-6.162-11.174-13.719-10.689C187.82,34.983,181.092,42.274,181.867,45.216z"/>
	<polygon fill="#776350" stroke="#776350" stroke-linecap="round" stroke-linejoin="round" stroke-miterlimit="10" points="
		192.793,35.907 197.484,35.907 194.576,0 	"/>
	<path fill="#776350" stroke="#776350" stroke-miterlimit="10" d="M121.312,45.216l26.836-0.002
		c0.793-2.828-6.164-11.174-13.717-10.689C127.268,34.983,120.539,42.274,121.312,45.216z"/>
	<polygon fill="#776350" stroke="#776350" stroke-linecap="round" stroke-linejoin="round" stroke-miterlimit="10" points="
		133.242,35.907 137.933,35.907 135.021,0 	"/>
	<path fill="#AA8155" d="M150,180.407h28c0,0,0-41.865,0-65.955c0-10.5-8.273-15.146-14.133-15.145
		c-5.607,0-13.867,4.479-13.867,15.145C150,141.149,150,180.407,150,180.407z"/>
	<rect x="116" y="166.407" fill="#C5A276" width="34" height="14"/>
	<rect x="178" y="166.407" fill="#C5A276" width="32" height="14"/>
	<rect x="128.461" y="170.485" fill="#776350" width="14" height="6.934"/>
	<rect x="189.461" y="170.485" fill="#776350" width="12" height="6.934"/>
	<rect x="287" y="157.407" fill="#E0CDB9" width="10" height="9"/>
	<rect x="301" y="157.407" fill="#E0CDB9" width="10" height="9"/>
	<rect x="259" y="84.407" fill="#776350" width="10" height="8"/>
	<rect x="273" y="84.407" fill="#776350" width="10" height="8"/>
	<rect x="181.982" y="54.614" fill="#776350" width="26.959" height="2.625"/>
	<rect x="121.982" y="54.614" fill="#776350" width="26.959" height="2.625"/>
</g>
</svg>
