<?xml version="1.0" encoding="utf-8"?>
<!-- Generator: Adobe Illustrator 18.1.1, SVG Export Plug-In . SVG Version: 6.00 Build 0)  -->
<svg version="1.1" id="Layer_1" xmlns="http://www.w3.org/2000/svg" xmlns:xlink="http://www.w3.org/1999/xlink" x="0px" y="0px"
	 width="400px" height="260px" viewBox="0 0 400 260" enable-background="new 0 0 400 260" xml:space="preserve">
<rect x="321.3" y="104.2" fill="#EED9BF" width="31.1" height="111.5"/>
<polygon fill="#EED9BF" points="359.1,109.6 353.1,120.5 322,120.5 314.7,109.6 314.7,75.6 359.1,75.6 "/>
<path fill="#EED9BF" d="M314.8,75.6c0-12.2,9.9-22.1,22.1-22.1c12.2,0,22.1,9.9,22.1,22.1"/>
<polygon fill="#EED9BF" points="367.2,85.8 306.5,85.8 315,75.6 359.2,75.6 "/>
<path fill="#776350" d="M329.8,119.2V97.9c0,0,0-0.4,0.1-0.7c0.4-1.1,1.7-3.9,5.4-4.4c4.6-0.6,8.5,2.4,8.5,5.5
	c0.1,3.3,0,20.9,0,20.9H329.8z"/>
<rect x="26.7" y="132.1" fill="#EED9BF" width="56.7" height="43.3"/>
<path fill="#EED9BF" d="M27,132.1c0-15.6,12.6-28.2,28.2-28.2c15.6,0,28.2,12.6,28.2,28.2"/>
<circle fill="#ECC04C" cx="201.8" cy="25.9" r="6.1"/>
<line fill="none" stroke="#ECC04C" stroke-width="2" stroke-miterlimit="10" x1="201.9" y1="12" x2="201.9" y2="31.3"/>
<path fill="#FFD440" d="M135.7,98.6c0-37.2,29.6-67.3,66-67.3s66,30.1,66,67.3"/>
<rect x="135.7" y="98.6" fill="#51ABAD" width="132" height="23.7"/>
<rect x="97.7" y="122.2" fill="#51ABAD" width="201.4" height="96.1"/>
<polygon fill="#D2BDA7" points="374.1,162.8 374.1,173.3 363.5,173.3 363.5,162.8 352.9,162.8 352.9,173.3 342.2,173.3 342.2,162.8 
	331.6,162.8 331.6,173.3 321,173.3 321,162.8 310.3,162.8 310.3,173.3 299.7,173.3 299.7,162.8 289,162.8 289,173.3 278.4,173.3 
	278.4,162.7 267.8,162.7 267.8,173.3 257.1,173.3 257.1,162.7 246.5,162.7 246.5,173.3 235.8,173.3 235.8,162.7 225.2,162.7 
	225.2,173.3 214.6,173.3 214.6,162.7 203.9,162.7 203.9,173.3 203.5,173.3 193.3,173.3 192.8,173.3 192.8,162.7 182.2,162.7 
	182.2,173.3 171.5,173.3 171.5,162.7 160.9,162.7 160.9,173.3 150.3,173.3 150.3,162.7 139.6,162.7 139.6,173.3 129,173.3 
	129,162.7 118.3,162.7 118.3,173.3 107.7,173.3 107.7,162.8 97.1,162.8 97.1,173.3 86.4,173.3 86.4,162.8 75.8,162.8 75.8,173.3 
	65.2,173.3 65.2,162.8 54.5,162.8 54.5,173.3 43.9,173.3 43.9,162.8 33.2,162.8 33.2,173.3 22.6,173.3 22.6,162.8 12,162.8 
	12,173.5 12.1,173.5 12.1,254.8 193.3,254.8 203.5,254.8 384.6,254.8 384.6,173.5 384.8,173.5 384.8,162.8 "/>
<rect x="33.5" y="194.4" fill="#231F20" width="7.9" height="15.3"/>
<rect x="48.8" y="194.4" fill="#231F20" width="7.9" height="15.3"/>
<g>
	<rect x="43.5" y="138.4" fill="#231F20" width="7.9" height="15.3"/>
	<rect x="58.8" y="138.4" fill="#231F20" width="7.9" height="15.3"/>
</g>
<rect x="338.6" y="197" fill="#231F20" width="7.9" height="15.3"/>
<rect x="353.9" y="197" fill="#231F20" width="7.9" height="15.3"/>
<path fill="#096C69" d="M106.6,152.6v-19.4c0,0,0-0.4,0.1-0.6c0.4-1,1.9-3.6,6.1-4c5.2-0.5,9.6,2.1,9.6,5c0.1,3,0,19,0,19H106.6z"/>
<path fill="#096C69" d="M130.6,152.6v-19.4c0,0,0-0.4,0.1-0.6c0.4-1,1.9-3.6,6.1-4c5.2-0.5,9.6,2.1,9.6,5c0.1,3,0,19,0,19H130.6z"/>
<path fill="#096C69" d="M154.6,152.6v-19.4c0,0,0-0.4,0.1-0.6c0.4-1,1.9-3.6,6.1-4c5.2-0.5,9.6,2.1,9.6,5c0.1,3,0,19,0,19H154.6z"/>
<path fill="#096C69" d="M178.5,152.6v-19.4c0,0,0-0.4,0.1-0.6c0.4-1,1.9-3.6,6.1-4c5.2-0.5,9.6,2.1,9.6,5c0.1,3,0,19,0,19H178.5z"/>
<path fill="#096C69" d="M202.5,152.6v-19.4c0,0,0-0.4,0.1-0.6c0.4-1,1.9-3.6,6.1-4c5.2-0.5,9.6,2.1,9.6,5c0.1,3,0,19,0,19H202.5z"/>
<path fill="#096C69" d="M226.5,152.6v-19.4c0,0,0-0.4,0.1-0.6c0.4-1,1.9-3.6,6.1-4c5.2-0.5,9.6,2.1,9.6,5c0.1,3,0,19,0,19H226.5z"/>
<path fill="#096C69" d="M250.4,152.6v-19.4c0,0,0-0.4,0.1-0.6c0.4-1,1.9-3.6,6.1-4c5.2-0.5,9.6,2.1,9.6,5c0.1,3,0,19,0,19H250.4z"/>
<path fill="#096C69" d="M274.4,152.6v-19.4c0,0,0-0.4,0.1-0.6c0.4-1,1.9-3.6,6.1-4c5.2-0.5,9.6,2.1,9.6,5c0.1,3,0,19,0,19H274.4z"/>
</svg>
