<?xml version="1.0" encoding="utf-8"?>
<!-- Generator: Adobe Illustrator 18.1.1, SVG Export Plug-In . SVG Version: 6.00 Build 0)  -->
<svg version="1.1" id="Layer_1" xmlns="http://www.w3.org/2000/svg" xmlns:xlink="http://www.w3.org/1999/xlink" x="0px" y="0px"
	 width="400px" height="150px" viewBox="-279 259 400 150" enable-background="new -279 259 400 150" xml:space="preserve">
<rect x="-88.3" y="324.6" fill="#E1C8A3" width="114" height="77"/>
<rect x="2.7" y="316.6" fill="#C5A276" width="71" height="85"/>
<rect x="-40.3" y="346.6" fill="#C5A276" width="61" height="55"/>
<rect x="34.7" y="344.6" fill="#776350" width="80" height="57"/>
<rect x="-269.3" y="352.6" fill="#E1C8A3" width="91" height="49"/>
<rect x="-214.3" y="290.6" fill="#E1C8A3" width="71" height="111"/>
<rect x="-235.3" y="326.6" fill="#C5A276" width="56" height="75"/>
<rect x="-151.3" y="338.6" fill="#C5A276" width="92" height="63"/>
<path fill="#776350" d="M-196.8,377.6h5.3c0,0,0.2-10.1-2.4-10.1C-197,367.5-196.8,377.6-196.8,377.6z"/>
<path fill="#776350" d="M-205.6,377.6h5.3c0,0,0.2-10.1-2.4-10.1C-205.8,367.5-205.6,377.6-205.6,377.6z"/>
<path fill="#776350" d="M-214.4,377.6h5.3c0,0,0.2-10.1-2.4-10.1C-214.6,367.5-214.4,377.6-214.4,377.6z"/>
<path fill="#776350" d="M-223.2,377.6h5.3c0,0,0.2-10.1-2.4-10.1C-223.4,367.5-223.2,377.6-223.2,377.6z"/>
<path fill="#776350" d="M-232,377.6h5.3c0,0,0.2-10.1-2.4-10.1C-232.2,367.5-232,377.6-232,377.6z"/>
<path fill="#776350" d="M-188,377.6h5.3c0,0,0.2-10.1-2.4-10.1C-188.2,367.5-188,377.6-188,377.6z"/>
<rect x="50.7" y="321.6" fill="#776350" width="12" height="8"/>
<rect x="-83.3" y="328.6" fill="#776350" width="6" height="7"/>
<rect x="-70.3" y="328.6" fill="#776350" width="5" height="7"/>
<rect x="-59.3" y="328.6" fill="#776350" width="5" height="7"/>
<rect x="-227.3" y="330.6" fill="#776350" width="10" height="8"/>
<rect x="-68.3" y="364.6" fill="#776350" width="47" height="37"/>
<rect x="-63.3" y="385.6" fill="#E0CDB9" width="6" height="6"/>
<rect x="-55.3" y="385.6" fill="#E0CDB9" width="6" height="6"/>
<rect x="-47.3" y="385.6" fill="#E0CDB9" width="6" height="6"/>
<rect x="-181.3" y="317.6" fill="#776350" width="71" height="84"/>
<rect x="-178.3" y="316.6" fill="none" width="66" height="85"/>
<rect x="-235.3" y="324.6" fill="#776350" width="54" height="2"/>
<polygon fill="#776350" points="-181.3,362.6 -233.7,362.6 -235.3,362.6 -235.3,364.6 -181.3,364.6 "/>
<rect x="34.7" y="344.6" fill="#E1C8A3" width="80" height="2"/>
<rect x="-172.3" y="298.6" fill="#C5A276" width="11" height="103"/>
<rect x="-126.3" y="298.6" fill="#C5A276" width="10" height="103"/>
<line fill="none" stroke="#776350" stroke-miterlimit="10" x1="-123.8" y1="311.6" x2="-123.8" y2="391.6"/>
<line fill="none" stroke="#776350" stroke-miterlimit="10" x1="-119.8" y1="311.6" x2="-119.8" y2="391.6"/>
<line fill="none" stroke="#776350" stroke-miterlimit="10" x1="-169.8" y1="311.6" x2="-169.8" y2="391.6"/>
<line fill="none" stroke="#776350" stroke-miterlimit="10" x1="-164.8" y1="311.6" x2="-164.8" y2="391.6"/>
<path fill="#776350" stroke="#776350" stroke-miterlimit="10" d="M-131.9,297.5c0.6,2.2,19.7,2.1,20.3,0s-4.7-8.4-10.4-8.1
	C-127.4,289.8-132.5,295.3-131.9,297.5z"/>
<polygon fill="#776350" stroke="#776350" stroke-linecap="round" stroke-linejoin="round" stroke-miterlimit="10" points="
	-122.9,291.1 -119.4,291.1 -121.6,264 "/>
<path fill="#776350" stroke="#776350" stroke-miterlimit="10" d="M-177.7,297.5c0.6,2.2,19.7,2.1,20.3,0s-4.7-8.4-10.4-8.1
	C-173.2,289.8-178.2,295.3-177.7,297.5z"/>
<polygon fill="#776350" stroke="#776350" stroke-linecap="round" stroke-linejoin="round" stroke-miterlimit="10" points="
	-168.6,291.1 -165.1,291.1 -167.3,264 "/>
<ellipse fill="#776350" stroke="#776350" stroke-width="0.5" stroke-miterlimit="10" cx="-167.5" cy="308" rx="9.5" ry="1.1"/>
<ellipse fill="#776350" stroke="#776350" stroke-width="0.5" stroke-miterlimit="10" cx="-121.8" cy="308" rx="9.5" ry="1.1"/>
<path fill="#C5A276" d="M-154,401.6h21.1c0,0,1.7-57.8-10.7-61.2C-155.5,343.4-154,401.6-154,401.6z"/>
<path fill="#C5A276" d="M70.4,363.6h3.3c0,0,0.3-9-1.7-9.5C70.1,354.5,70.4,363.6,70.4,363.6z"/>
<path fill="#C5A276" d="M79.5,363.6h3.3c0,0,0.3-9-1.7-9.5C79.3,354.5,79.5,363.6,79.5,363.6z"/>
<path fill="#C5A276" d="M88.2,363.6h3.3c0,0,0.3-9-1.7-9.5C87.9,354.5,88.2,363.6,88.2,363.6z"/>
<path fill="#C5A276" d="M96.8,363.6h3.3c0,0,0.3-9-1.7-9.5C96.6,354.5,96.8,363.6,96.8,363.6z"/>
<path fill="#C5A276" d="M105.2,363.6h3.3c0,0,0.3-9-1.7-9.5C104.9,354.5,105.2,363.6,105.2,363.6z"/>
<rect x="-68.3" y="364.6" fill="#E0CDB9" width="47" height="2"/>
<rect x="-175.3" y="391.6" fill="#C5A276" width="16" height="10"/>
<rect x="-129.3" y="391.6" fill="#C5A276" width="16" height="10"/>
<rect x="-172.6" y="394.4" fill="#776350" width="11.4" height="5.2"/>
<rect x="-126.6" y="394.4" fill="#776350" width="11.4" height="5.2"/>
</svg>
