<?xml version="1.0" encoding="utf-8"?>
<!-- Generator: Adobe Illustrator 18.1.1, SVG Export Plug-In . SVG Version: 6.00 Build 0)  -->
<svg version="1.1" id="Layer_1" xmlns="http://www.w3.org/2000/svg" xmlns:xlink="http://www.w3.org/1999/xlink" x="0px" y="0px"
	 width="400px" height="260px" viewBox="0 0 400 260" enable-background="new 0 0 400 260" xml:space="preserve">
<rect x="190.7" y="173.6" fill="#E1C8A3" width="114" height="77"/>
<rect x="281.7" y="165.6" fill="#C5A276" width="71" height="85"/>
<rect x="238.7" y="195.6" fill="#C5A276" width="61" height="55"/>
<rect x="313.7" y="193.6" fill="#776350" width="80" height="57"/>
<rect x="9.7" y="201.6" fill="#E1C8A3" width="91" height="49"/>
<rect x="64.7" y="139.6" fill="#E1C8A3" width="71" height="111"/>
<rect x="43.7" y="175.6" fill="#C5A276" width="56" height="75"/>
<rect x="127.7" y="187.6" fill="#C5A276" width="92" height="63"/>
<path fill="#776350" d="M82.2,226.6h5.3c0,0,0.2-10.1-2.4-10.1C82,216.5,82.2,226.6,82.2,226.6z"/>
<path fill="#776350" d="M73.4,226.6h5.3c0,0,0.2-10.1-2.4-10.1C73.2,216.5,73.4,226.6,73.4,226.6z"/>
<path fill="#776350" d="M64.6,226.6h5.3c0,0,0.2-10.1-2.4-10.1C64.4,216.5,64.6,226.6,64.6,226.6z"/>
<path fill="#776350" d="M55.8,226.6h5.3c0,0,0.2-10.1-2.4-10.1C55.6,216.5,55.8,226.6,55.8,226.6z"/>
<path fill="#776350" d="M47,226.6h5.3c0,0,0.2-10.1-2.4-10.1C46.8,216.5,47,226.6,47,226.6z"/>
<path fill="#776350" d="M91,226.6h5.3c0,0,0.2-10.1-2.4-10.1C90.8,216.5,91,226.6,91,226.6z"/>
<rect x="329.7" y="170.6" fill="#776350" width="12" height="8"/>
<rect x="195.7" y="177.6" fill="#776350" width="6" height="7"/>
<rect x="208.7" y="177.6" fill="#776350" width="5" height="7"/>
<rect x="219.7" y="177.6" fill="#776350" width="5" height="7"/>
<rect x="51.7" y="179.6" fill="#776350" width="10" height="8"/>
<rect x="210.7" y="213.6" fill="#776350" width="47" height="37"/>
<rect x="215.7" y="234.6" fill="#E0CDB9" width="6" height="6"/>
<rect x="223.7" y="234.6" fill="#E0CDB9" width="6" height="6"/>
<rect x="231.7" y="234.6" fill="#E0CDB9" width="6" height="6"/>
<rect x="97.7" y="166.6" fill="#776350" width="71" height="84"/>
<rect x="100.7" y="165.6" fill="none" width="66" height="85"/>
<rect x="43.7" y="173.6" fill="#776350" width="54" height="2"/>
<polygon fill="#776350" points="97.7,211.6 45.3,211.6 43.7,211.6 43.7,213.6 97.7,213.6 "/>
<rect x="313.7" y="193.6" fill="#E1C8A3" width="80" height="2"/>
<rect x="106.7" y="147.6" fill="#C5A276" width="11" height="103"/>
<rect x="152.7" y="147.6" fill="#C5A276" width="10" height="103"/>
<line fill="none" stroke="#776350" stroke-miterlimit="10" x1="155.2" y1="160.6" x2="155.2" y2="240.6"/>
<line fill="#776350" stroke="#776350" stroke-miterlimit="10" x1="159.2" y1="160.6" x2="159.2" y2="240.6"/>
<line fill="none" stroke="#776350" stroke-miterlimit="10" x1="109.2" y1="160.6" x2="109.2" y2="240.6"/>
<line fill="none" stroke="#776350" stroke-miterlimit="10" x1="114.2" y1="160.6" x2="114.2" y2="240.6"/>
<path fill="#776350" stroke="#776350" stroke-miterlimit="10" d="M147.1,146.5c0.6,2.2,19.7,2.1,20.3,0c0.6-2.1-4.7-8.4-10.4-8.1
	C151.6,138.8,146.5,144.3,147.1,146.5z"/>
<polygon fill="#776350" stroke="#776350" stroke-linecap="round" stroke-linejoin="round" stroke-miterlimit="10" points="
	156.1,140.1 159.6,140.1 157.4,113 "/>
<path fill="#776350" stroke="#776350" stroke-miterlimit="10" d="M101.3,146.5c0.6,2.2,19.7,2.1,20.3,0c0.6-2.1-4.7-8.4-10.4-8.1
	C105.8,138.8,100.8,144.3,101.3,146.5z"/>
<polygon fill="#776350" stroke="#776350" stroke-linecap="round" stroke-linejoin="round" stroke-miterlimit="10" points="
	110.4,140.1 113.9,140.1 111.7,113 "/>
<ellipse fill="#776350" stroke="#776350" stroke-width="0.5" stroke-miterlimit="10" cx="111.5" cy="157" rx="9.5" ry="1.1"/>
<ellipse fill="#776350" stroke="#776350" stroke-width="0.5" stroke-miterlimit="10" cx="157.2" cy="157" rx="9.5" ry="1.1"/>
<path fill="#C5A276" d="M125,250.6h21.1c0,0,1.7-57.8-10.7-61.2C123.5,192.4,125,250.6,125,250.6z"/>
<path fill="#C5A276" d="M349.4,212.6h3.3c0,0,0.3-9-1.7-9.5C349.1,203.5,349.4,212.6,349.4,212.6z"/>
<path fill="#C5A276" d="M358.5,212.6h3.3c0,0,0.3-9-1.7-9.5C358.3,203.5,358.5,212.6,358.5,212.6z"/>
<path fill="#C5A276" d="M367.2,212.6h3.3c0,0,0.3-9-1.7-9.5C366.9,203.5,367.2,212.6,367.2,212.6z"/>
<path fill="#C5A276" d="M375.8,212.6h3.3c0,0,0.3-9-1.7-9.5C375.6,203.5,375.8,212.6,375.8,212.6z"/>
<path fill="#C5A276" d="M384.2,212.6h3.3c0,0,0.3-9-1.7-9.5C383.9,203.5,384.2,212.6,384.2,212.6z"/>
<rect x="210.7" y="213.6" fill="#E0CDB9" width="47" height="2"/>
<rect x="103.7" y="240.6" fill="#C5A276" width="16" height="10"/>
<rect x="149.7" y="240.6" fill="#C5A276" width="16" height="10"/>
<rect x="106.4" y="243.4" fill="#776350" width="11.4" height="5.2"/>
<rect x="152.4" y="243.4" fill="#776350" width="11.4" height="5.2"/>
</svg>
