<?xml version="1.0" encoding="utf-8"?>
<!-- Generator: Adobe Illustrator 18.1.1, SVG Export Plug-In . SVG Version: 6.00 Build 0)  -->
<svg version="1.1" id="Layer_1" xmlns="http://www.w3.org/2000/svg" xmlns:xlink="http://www.w3.org/1999/xlink" x="0px" y="0px"
	 width="400px" height="260px" viewBox="0 0 400 260" enable-background="new 0 0 400 260" xml:space="preserve">
<rect x="46.2" y="159.9" fill="#C5A276" width="32.8" height="94.3"/>
<rect x="318.9" y="172.1" fill="#C5A276" width="33" height="71.8"/>
<polygon fill="#776350" points="121.5,167 121.5,184.8 93.2,184.8 93.2,244.2 109.5,244.2 144.8,244.2 177.8,244.2 177.8,167 "/>
<rect x="238.7" y="183.4" fill="#776350" width="70.9" height="60.8"/>
<rect x="43.4" y="159.9" fill="#776350" width="38.5" height="7.5"/>
<rect x="316.2" y="172.1" fill="#776350" width="38.5" height="7.5"/>
<polygon fill="#E1C8A3" points="170.5,207.3 170.5,200 163.2,200 163.2,207.3 155.9,207.3 155.9,200 148.6,200 148.6,207.3 
	141.2,207.3 141.2,200 133.9,200 133.9,207.3 126.6,207.3 126.6,200 119.3,200 119.3,207.3 112,207.3 112,200.1 104.7,200.1 
	104.7,207.3 97.3,207.3 97.3,200.1 90,200.1 90,207.3 82.7,207.3 82.7,200.1 75.4,200.1 75.4,207.3 68.1,207.3 68.1,200.1 
	60.8,200.1 60.8,207.3 53.4,207.3 53.4,200.1 46.1,200.1 46.1,207.4 46.2,207.4 46.2,254.5 177.8,254.5 177.8,207.3 "/>
<polygon fill="#C5A276" points="185.9,141.8 185.9,133.1 177.2,133.1 177.2,141.8 168.4,141.8 168.4,133.1 159.7,133.1 159.7,141.8 
	159.7,141.8 159.7,254.5 238.6,254.5 238.6,141.8 "/>
<rect x="194.7" y="133.1" fill="#C5A276" width="8.7" height="8.7"/>
<rect x="212.2" y="133.1" fill="#C5A276" width="8.7" height="8.7"/>
<rect x="229.9" y="133.1" fill="#C5A276" width="8.7" height="8.7"/>
<rect x="238.6" y="207.3" fill="#E1C8A3" width="113.4" height="47.1"/>
<rect x="256.8" y="200" fill="#E1C8A3" width="7.3" height="7.3"/>
<rect x="271.4" y="200" fill="#E1C8A3" width="7.3" height="7.3"/>
<rect x="242.1" y="200" fill="#E1C8A3" width="7.3" height="7.3"/>
<rect x="286" y="200" fill="#E1C8A3" width="7.3" height="7.3"/>
<rect x="300.7" y="200" fill="#E1C8A3" width="7.3" height="7.3"/>
<rect x="315.3" y="200" fill="#E1C8A3" width="7.3" height="7.3"/>
<rect x="329.9" y="200" fill="#E1C8A3" width="7.3" height="7.3"/>
<rect x="344.7" y="200" fill="#E1C8A3" width="7.3" height="7.3"/>
<g>
	<rect x="324.2" y="182.1" fill="#231F20" width="5.2" height="8.2"/>
	<rect x="332.8" y="182.1" fill="#231F20" width="5.2" height="8.2"/>
	<rect x="341.4" y="182.1" fill="#231F20" width="5.2" height="8.2"/>
</g>
<g>
	<rect x="173.1" y="151.9" fill="#231F20" width="5.2" height="8.2"/>
	<rect x="185" y="151.9" fill="#231F20" width="5.2" height="8.2"/>
	<rect x="196.8" y="151.9" fill="#231F20" width="5.2" height="8.2"/>
	<rect x="208.1" y="151.9" fill="#231F20" width="5.2" height="8.2"/>
	<rect x="219.9" y="151.9" fill="#231F20" width="5.2" height="8.2"/>
</g>
<rect x="125.9" y="175.2" fill="#231F20" width="5.2" height="8.2"/>
<rect x="137.9" y="175.2" fill="#231F20" width="5.2" height="8.2"/>
<rect x="149.9" y="175.2" fill="#231F20" width="5.2" height="8.2"/>
<g>
	<rect x="271.5" y="188.5" fill="#231F20" width="5.2" height="8.2"/>
	<rect x="283.5" y="188.5" fill="#231F20" width="5.2" height="8.2"/>
	<rect x="295.5" y="188.5" fill="#231F20" width="5.2" height="8.2"/>
	<rect x="247.5" y="188.5" fill="#231F20" width="5.2" height="8.2"/>
	<rect x="259.5" y="188.5" fill="#231F20" width="5.2" height="8.2"/>
</g>
<g>
	<rect x="98.8" y="188.5" fill="#231F20" width="5.2" height="8.2"/>
	<rect x="110.8" y="188.5" fill="#231F20" width="5.2" height="8.2"/>
</g>
<g>
	<rect x="51.3" y="174.9" fill="#231F20" width="5.2" height="8.2"/>
	<rect x="59.9" y="174.9" fill="#231F20" width="5.2" height="8.2"/>
	<rect x="68.5" y="174.9" fill="#231F20" width="5.2" height="8.2"/>
</g>
<path fill="#F3D58E" d="M376.7,222.1l-3.2-1.7c0,0-0.8,5-1.2,17.2c-0.3,10.6-0.4,17.9-0.4,17.9l4.3-0.1c0,0-0.5-11.6-0.4-17.5
	C375.9,232.1,376.4,223.7,376.7,222.1z"/>
<path fill="#8BC53F" d="M377.1,219.9c0,0,7-0.1,11.4,2c4.3,2,3.9,2.1,4.4,3.1c0.5,1,0.7,1.5,0.7,1.5s-0.8,0.2-1.7-0.6
	c-0.8-0.8-1.1-1.7-1.1-1.7s0.2,1.6,0.4,1.9c0.3,0.4,0.3,0.4,0.3,0.4s-1.3-0.3-2.1-0.7c-0.8-0.5-1.6-1.7-1.7-2.1
	c-0.1-0.4-0.5,1.5,0.7,2.1c1.1,0.6-1.6,0.4-2.6-0.2c-1.1-0.6-2.3-2.1-2.3-2.1s0.3,1.4,0.6,1.6c0.4,0.2-1.9-0.4-2.3-1
	c-0.4-0.6-0.4-0.6-0.4-0.6s0.3,1.6,0.6,1.7c0.3,0.1-1.9-0.2-2.3-0.6c-0.5-0.4-1.1-0.8-1.1-0.8l1.3,1.5c0,0-0.6,0.3-1.7-0.1
	c-1-0.4-2-1.2-2.6-1.8c-0.5-0.6-0.5-1-0.3-1.6C375.4,220.9,375.6,219.8,377.1,219.9z"/>
<path fill="#8BC53F" d="M378.3,220.4c0.4,0.1,7-1.4,7.9-2.2c0.9-0.8,0.3-0.5,0.3-0.5s-3-0.4-3.5-0.5c-0.5-0.2,5.5-0.8,5.5-0.8
	s-1.7-1.1-1.7-1.2c0-0.2,3.2-0.1,3.7-0.7c0.5-0.6,0.4-0.8-0.6-1c-1-0.2-3.4-0.6-3.4-0.6s5-0.2,5.7-0.5c0.7-0.3,0.8-0.5,0.8-0.5
	s-2.2-0.2-2.6-0.4c-0.4-0.2,3.2-0.3,3.4-0.3c0.2,0-0.6-1.9-2.5-2c-1.9-0.1-4,0.7-5.8,1.8c-1.8,1.1-6.6,5.7-7.1,6.6
	C377.7,218.5,376.4,220.1,378.3,220.4z"/>
<path fill="#8BC53F" d="M376.8,220.1l-1.7-5.7c0,0,0.7,0.1,1.3-0.5c0.6-0.6,0.6-0.6,0.6-0.6s-1.4,0.5-1.9,0.2
	c-0.5-0.3-1.5-3.4-1.5-3.6c0-0.2,2.4,0.2,2.8,0c0.4-0.2-2-0.7-2.5-1.4c-0.6-0.7-0.6-0.7-0.6-0.7s0.3-0.7,1.7-0.5
	c1.4,0.2,1.9,0,1.9,0s-2.9-0.1-3.6-0.9c-0.7-0.7-0.6-1,0-1.4c0.6-0.5,1.6-0.1,2.8,0.6c1.2,0.6,2.7,2.2,2.9,3.5
	c0.2,1.3-0.7,7.8-0.9,9.5C377.9,220.3,376.8,220.1,376.8,220.1z"/>
<path fill="#8BC53F" d="M376.2,220.4c0,0-4.5-3-4.7-3.2c-0.2-0.2,1.4-0.2,1.7-0.6c0.3-0.4-1.8,0.2-3.1-0.4c-1.3-0.6-2.5-2-2.5-2
	s1.8-0.3,2.2-0.6c0.4-0.4,0.4-0.4,0.4-0.4s-1.8,0.4-2.9,0c-1.1-0.4-2.8-1.9-2.9-2.3c-0.1-0.4-0.1-0.4-0.1-0.4s2,0.9,3,0.6
	c1-0.3,1.1-0.9,1.1-0.9s-2.5,0.6-3.4,0c-0.9-0.6-1.2-0.6-1-1.7c0.2-1.1,0.8-1.6,0.8-1.6s2.2,0.8,4.3,2.3c2.1,1.5,6.4,5.4,7.9,9.8
	C378.5,223.5,376.2,220.4,376.2,220.4z"/>
<path fill="#8BC53F" d="M376.4,220.7c0,0-6.5-3.8-8.6-4.5c-2.1-0.8-4.7-1.5-6.8-1.3c-2.1,0.2-3.2,1.7-3.2,1.7s1.3,0.3,2.2,0.1
	c0.9-0.2,1.4-0.5,1.4-0.5s-1.7,1.2-2,1.1c-0.3-0.1,0.6,0.7,2.1,0.8c1.6,0.1,2.4-0.5,2.5-0.6c0.2-0.1-0.6,1.3-1,1.3
	c-0.4,0,0.3,0.7,1.7,0.4c1.4-0.3,1.9-0.3,1.9-0.3s-0.5,1-1,0.9c-0.5-0.1-0.8,0-0.8,0s0.3,1.1,1.6,0.8c1.3-0.2,2.5-1.3,2.5-1.3
	s-1.3,1.6-2,1.7c-0.7,0.1,0.6,1,2,1s3.4-1.7,3.4-1.7c0.1,0,0.2,1-0.8,1.7c-0.9,0.7-1.6,0.8-1.6,0.8s1.7,0.4,3.8,0
	C376.1,222.4,376.4,220.7,376.4,220.7z"/>
<path fill="#F3D58E" d="M21.1,221.1l3.2-1.7c0,0,0.8,5,1.2,17.2c0.3,10.6,0.4,17.9,0.4,17.9l-4.3-0.1c0,0,0.5-11.6,0.4-17.5
	C21.8,231.1,21.4,222.6,21.1,221.1z"/>
<path fill="#8BC53F" d="M20.9,217.8c0,0-7-0.1-11.4,2c-4.3,2-3.9,2.1-4.4,3.1c-0.5,1-0.7,1.5-0.7,1.5s0.8,0.2,1.7-0.6
	c0.8-0.8,1.1-1.7,1.1-1.7S7,223.7,6.8,224c-0.3,0.4-0.3,0.4-0.3,0.4s1.3-0.3,2.1-0.7c0.8-0.5,1.6-1.7,1.7-2.1
	c0.1-0.4,0.5,1.5-0.7,2.1c-1.1,0.6,1.6,0.4,2.6-0.2c1.1-0.6,2.3-2.1,2.3-2.1s-0.3,1.4-0.6,1.6c-0.4,0.2,1.9-0.4,2.3-1
	c0.4-0.6,0.4-0.6,0.4-0.6s-0.3,1.6-0.6,1.7c-0.3,0.1,1.9-0.2,2.3-0.6c0.5-0.4,1.1-0.8,1.1-0.8l-1.3,1.5c0,0,0.6,0.3,1.7-0.1
	c1-0.4,2-1.2,2.6-1.8c0.5-0.6,0.5-1,0.3-1.6C22.6,218.8,22.4,217.8,20.9,217.8z"/>
<path fill="#8BC53F" d="M19.7,218.3c-0.4,0.1-7-1.4-7.9-2.2c-0.9-0.8-0.3-0.5-0.3-0.5s3-0.4,3.5-0.5c0.5-0.2-5.5-0.8-5.5-0.8
	s1.7-1.1,1.7-1.2c0-0.2-3.2-0.1-3.7-0.7c-0.5-0.6-0.4-0.8,0.6-1c1-0.2,3.4-0.6,3.4-0.6s-5-0.2-5.7-0.5c-0.7-0.3-0.8-0.5-0.8-0.5
	s2.2-0.2,2.6-0.4c0.4-0.2-3.2-0.3-3.4-0.3c-0.2,0,0.6-1.9,2.5-2c1.9-0.1,4,0.7,5.8,1.8c1.8,1.1,6.6,5.7,7.1,6.6
	C20.3,216.5,21.6,218,19.7,218.3z"/>
<path fill="#8BC53F" d="M21.2,218.1l1.7-5.7c0,0-0.7,0.1-1.3-0.5c-0.6-0.6-0.6-0.6-0.6-0.6s1.4,0.5,1.9,0.2c0.5-0.3,1.5-3.4,1.5-3.6
	c0-0.2-2.4,0.2-2.8,0c-0.4-0.2,2-0.7,2.5-1.4c0.6-0.7,0.6-0.7,0.6-0.7s-0.3-0.7-1.7-0.5c-1.4,0.2-1.9,0-1.9,0s2.9-0.1,3.6-0.9
	c0.7-0.7,0.6-1,0-1.4c-0.6-0.5-1.6-0.1-2.8,0.6c-1.2,0.6-2.7,2.2-2.9,3.5c-0.2,1.3,0.7,7.8,0.9,9.5
	C20.1,218.2,21.2,218.1,21.2,218.1z"/>
<path fill="#8BC53F" d="M21.8,218.3c0,0,4.5-3,4.7-3.2c0.2-0.2-1.4-0.2-1.7-0.6c-0.3-0.4,1.8,0.2,3.1-0.4c1.3-0.6,2.5-2,2.5-2
	s-1.8-0.3-2.2-0.6c-0.4-0.4-0.4-0.4-0.4-0.4s1.8,0.4,2.9,0c1.1-0.4,2.8-1.9,2.9-2.3c0.1-0.4,0.1-0.4,0.1-0.4s-2,0.9-3,0.6
	c-1-0.3-1.1-0.9-1.1-0.9s2.5,0.6,3.4,0c0.9-0.6,1.2-0.6,1-1.7c-0.2-1.1-0.8-1.6-0.8-1.6s-2.2,0.8-4.3,2.3c-2.1,1.5-6.4,5.4-7.9,9.8
	C19.5,221.5,21.8,218.3,21.8,218.3z"/>
<path fill="#8BC53F" d="M21.6,218.6c0,0,6.5-3.8,8.6-4.5c2.1-0.8,4.7-1.5,6.8-1.3c2.1,0.2,3.2,1.7,3.2,1.7s-1.3,0.3-2.2,0.1
	c-0.9-0.2-1.4-0.5-1.4-0.5s1.7,1.2,2,1.1c0.3-0.1-0.6,0.7-2.1,0.8c-1.6,0.1-2.4-0.5-2.5-0.6c-0.2-0.1,0.6,1.3,1,1.3
	c0.4,0-0.3,0.7-1.7,0.4c-1.4-0.3-1.9-0.3-1.9-0.3s0.5,1,1,0.9c0.5-0.1,0.8,0,0.8,0s-0.3,1.1-1.6,0.8c-1.3-0.2-2.5-1.3-2.5-1.3
	s1.3,1.6,2,1.7c0.7,0.1-0.6,1-2,1c-1.3,0-3.4-1.7-3.4-1.7c-0.1,0-0.2,1,0.8,1.7c0.9,0.7,1.6,0.8,1.6,0.8s-1.7,0.4-3.8,0
	C21.9,220.3,21.6,218.6,21.6,218.6z"/>
<path fill="#776350" d="M184.2,254.5v-41.5c0,0,0.1-0.9,0.3-1.4c0.7-2.1,3.3-7.6,10.5-8.5c9-1.1,16.5,4.6,16.6,10.8
	c0.2,6.4,0,40.6,0,40.6H184.2z"/>
</svg>
