<?xml version="1.0" encoding="utf-8"?>
<!-- Generator: Adobe Illustrator 18.1.1, SVG Export Plug-In . SVG Version: 6.00 Build 0)  -->
<svg version="1.1" id="Layer_1" xmlns="http://www.w3.org/2000/svg" xmlns:xlink="http://www.w3.org/1999/xlink" x="0px" y="0px"
	 width="430px" height="160px" viewBox="-280.5 250.5 430 160" enable-background="new -280.5 250.5 430 160" xml:space="preserve">
<rect x="-232.7" y="295.4" fill="#C5A276" width="35.7" height="102.6"/>
<rect x="64.1" y="308.7" fill="#C5A276" width="35.9" height="78.2"/>
<polygon fill="#776350" points="-150.8,303.2 -150.8,322.5 -181.6,322.5 -181.6,387.2 -163.8,387.2 -125.4,387.2 -89.5,387.2 
	-89.5,303.2 "/>
<rect x="-23.2" y="321" fill="#776350" width="77.2" height="66.2"/>
<rect x="-235.8" y="295.4" fill="#776350" width="41.9" height="8.2"/>
<rect x="61.2" y="308.7" fill="#776350" width="41.9" height="8.2"/>
<polygon fill="#E1C8A3" points="-97.4,347 -97.4,339.1 -105.4,339.1 -105.4,347 -113.3,347 -113.3,339.1 -121.3,339.1 -121.3,347 
	-129.3,347 -129.3,339.1 -137.3,339.1 -137.3,347 -145.2,347 -145.2,339.1 -153.2,339.1 -153.2,347 -161.1,347 -161.1,339.2 
	-169.1,339.2 -169.1,347 -177.1,347 -177.1,339.2 -185.1,339.2 -185.1,347 -193,347 -193,339.2 -201,339.2 -201,347 -208.9,347 
	-208.9,339.2 -216.9,339.2 -216.9,347 -224.9,347 -224.9,339.2 -232.9,339.2 -232.9,347.1 -232.7,347.1 -232.7,398.4 -89.5,398.4 
	-89.5,347 "/>
<polygon fill="#C5A276" points="-80.7,275.7 -80.7,266.3 -90.2,266.3 -90.2,275.7 -99.7,275.7 -99.7,266.3 -109.2,266.3 
	-109.2,275.7 -109.2,275.7 -109.2,398.4 -23.3,398.4 -23.3,275.7 "/>
<rect x="-71.1" y="266.3" fill="#C5A276" width="9.5" height="9.5"/>
<rect x="-52.1" y="266.3" fill="#C5A276" width="9.5" height="9.5"/>
<rect x="-32.8" y="266.3" fill="#C5A276" width="9.5" height="9.5"/>
<rect x="-23.3" y="347" fill="#E1C8A3" width="123.4" height="51.3"/>
<rect x="-3.5" y="339.1" fill="#E1C8A3" width="7.9" height="7.9"/>
<rect x="12.4" y="339.1" fill="#E1C8A3" width="7.9" height="7.9"/>
<rect x="-19.5" y="339.1" fill="#E1C8A3" width="7.9" height="7.9"/>
<rect x="28.3" y="339.1" fill="#E1C8A3" width="7.9" height="7.9"/>
<rect x="44.3" y="339.1" fill="#E1C8A3" width="7.9" height="7.9"/>
<rect x="60.2" y="339.1" fill="#E1C8A3" width="7.9" height="7.9"/>
<rect x="76.1" y="339.1" fill="#E1C8A3" width="7.9" height="7.9"/>
<rect x="92.2" y="339.1" fill="#E1C8A3" width="7.9" height="7.9"/>
<g>
	<rect x="69.9" y="319.6" fill="#231F20" width="5.7" height="8.9"/>
	<rect x="79.2" y="319.6" fill="#231F20" width="5.7" height="8.9"/>
	<rect x="88.6" y="319.6" fill="#231F20" width="5.7" height="8.9"/>
</g>
<g>
	<rect x="-94.6" y="286.7" fill="#231F20" width="5.7" height="8.9"/>
	<rect x="-81.7" y="286.7" fill="#231F20" width="5.7" height="8.9"/>
	<rect x="-68.8" y="286.7" fill="#231F20" width="5.7" height="8.9"/>
	<rect x="-56.5" y="286.7" fill="#231F20" width="5.7" height="8.9"/>
	<rect x="-43.7" y="286.7" fill="#231F20" width="5.7" height="8.9"/>
</g>
<rect x="-146" y="312.1" fill="#231F20" width="5.7" height="8.9"/>
<rect x="-132.9" y="312.1" fill="#231F20" width="5.7" height="8.9"/>
<rect x="-119.9" y="312.1" fill="#231F20" width="5.7" height="8.9"/>
<g>
	<rect x="12.5" y="326.6" fill="#231F20" width="5.7" height="8.9"/>
	<rect x="25.6" y="326.6" fill="#231F20" width="5.7" height="8.9"/>
	<rect x="38.6" y="326.6" fill="#231F20" width="5.7" height="8.9"/>
	<rect x="-13.6" y="326.6" fill="#231F20" width="5.7" height="8.9"/>
	<rect x="-0.6" y="326.6" fill="#231F20" width="5.7" height="8.9"/>
</g>
<g>
	<rect x="-175.5" y="326.6" fill="#231F20" width="5.7" height="8.9"/>
	<rect x="-162.4" y="326.6" fill="#231F20" width="5.7" height="8.9"/>
</g>
<g>
	<rect x="-227.2" y="311.8" fill="#231F20" width="5.7" height="8.9"/>
	<rect x="-217.8" y="311.8" fill="#231F20" width="5.7" height="8.9"/>
	<rect x="-208.5" y="311.8" fill="#231F20" width="5.7" height="8.9"/>
</g>
<path fill="#F3D58E" d="M127,363.1l-3.5-1.9c0,0-0.9,5.4-1.3,18.7c-0.3,11.5-0.4,19.5-0.4,19.5l4.7-0.1c0,0-0.5-12.6-0.4-19
	C126.1,374,126.7,364.9,127,363.1z"/>
<path fill="#8BC53F" d="M127.4,360.7c0,0,7.6-0.1,12.4,2.2c4.7,2.2,4.2,2.3,4.8,3.4c0.5,1.1,0.8,1.6,0.8,1.6s-0.9,0.2-1.9-0.7
	c-0.9-0.9-1.2-1.9-1.2-1.9s0.2,1.7,0.4,2.1c0.3,0.4,0.3,0.4,0.3,0.4s-1.4-0.3-2.3-0.8c-0.9-0.5-1.7-1.9-1.9-2.3
	c-0.1-0.4-0.5,1.6,0.8,2.3c1.2,0.7-1.7,0.4-2.8-0.2c-1.2-0.7-2.5-2.3-2.5-2.3s0.3,1.5,0.7,1.7c0.4,0.2-2.1-0.4-2.5-1.1
	c-0.4-0.7-0.4-0.7-0.4-0.7s0.3,1.7,0.7,1.9c0.3,0.1-2.1-0.2-2.5-0.7c-0.5-0.4-1.2-0.9-1.2-0.9l1.4,1.6c0,0-0.7,0.3-1.9-0.1
	c-1.1-0.4-2.2-1.3-2.8-2c-0.5-0.7-0.5-1.1-0.3-1.7C125.6,361.8,125.8,360.6,127.4,360.7z"/>
<path fill="#8BC53F" d="M128.8,361.3c0.4,0.1,7.6-1.5,8.6-2.4c1-0.9,0.3-0.5,0.3-0.5s-3.3-0.4-3.8-0.5c-0.5-0.2,6-0.9,6-0.9
	s-1.9-1.2-1.9-1.3c0-0.2,3.5-0.1,4-0.8c0.5-0.7,0.4-0.9-0.7-1.1c-1.1-0.2-3.7-0.7-3.7-0.7s5.4-0.2,6.2-0.5c0.8-0.3,0.9-0.5,0.9-0.5
	s-2.4-0.2-2.8-0.4c-0.4-0.2,3.5-0.3,3.7-0.3c0.2,0-0.7-2.1-2.7-2.2c-2.1-0.1-4.4,0.8-6.3,2c-2,1.2-7.2,6.2-7.7,7.2
	C128.1,359.2,126.7,361,128.8,361.3z"/>
<path fill="#8BC53F" d="M127.1,361l-1.9-6.2c0,0,0.8,0.1,1.4-0.5c0.7-0.7,0.7-0.7,0.7-0.7s-1.5,0.5-2.1,0.2
	c-0.5-0.3-1.6-3.7-1.6-3.9c0-0.2,2.6,0.2,3,0c0.4-0.2-2.2-0.8-2.7-1.5c-0.7-0.8-0.7-0.8-0.7-0.8s0.3-0.8,1.9-0.5
	c1.5,0.2,2.1,0,2.1,0s-3.2-0.1-3.9-1c-0.8-0.8-0.7-1.1,0-1.5c0.7-0.5,1.7-0.1,3,0.7c1.3,0.7,2.9,2.4,3.2,3.8c0.2,1.4-0.8,8.5-1,10.3
	C128.3,361.2,127.1,361,127.1,361z"/>
<path fill="#8BC53F" d="M126.5,361.3c0,0-4.9-3.3-5.1-3.5c-0.2-0.2,1.5-0.2,1.9-0.7c0.3-0.4-2,0.2-3.4-0.4c-1.4-0.7-2.7-2.2-2.7-2.2
	s2-0.3,2.4-0.7c0.4-0.4,0.4-0.4,0.4-0.4s-2,0.4-3.2,0c-1.2-0.4-3-2.1-3.2-2.5c-0.1-0.4-0.1-0.4-0.1-0.4s2.2,1,3.3,0.7
	c1.1-0.3,1.2-1,1.2-1s-2.7,0.7-3.7,0c-1-0.7-1.3-0.7-1.1-1.9s0.9-1.7,0.9-1.7s2.4,0.9,4.7,2.5c2.3,1.6,7,5.9,8.6,10.7
	C129,364.7,126.5,361.3,126.5,361.3z"/>
<path fill="#8BC53F" d="M126.7,361.6c0,0-7.1-4.1-9.4-4.9c-2.3-0.9-5.1-1.6-7.4-1.4c-2.3,0.2-3.5,1.9-3.5,1.9s1.4,0.3,2.4,0.1
	c1-0.2,1.5-0.5,1.5-0.5s-1.9,1.3-2.2,1.2c-0.3-0.1,0.7,0.8,2.3,0.9c1.7,0.1,2.6-0.5,2.7-0.7c0.2-0.1-0.7,1.4-1.1,1.4
	s0.3,0.8,1.9,0.4c1.5-0.3,2.1-0.3,2.1-0.3s-0.5,1.1-1.1,1c-0.5-0.1-0.9,0-0.9,0s0.3,1.2,1.7,0.9c1.4-0.2,2.7-1.4,2.7-1.4
	s-1.4,1.7-2.2,1.9s0.7,1.1,2.2,1.1s3.7-1.9,3.7-1.9c0.1,0,0.2,1.1-0.9,1.9c-1,0.8-1.7,0.9-1.7,0.9s1.9,0.4,4.1,0
	C126.4,363.5,126.7,361.6,126.7,361.6z"/>
<path fill="#F3D58E" d="M-260.1,362.1l3.5-1.9c0,0,0.9,5.4,1.3,18.7c0.3,11.5,0.4,19.5,0.4,19.5l-4.7-0.1c0,0,0.5-12.6,0.4-19
	C-259.3,372.9-259.7,363.7-260.1,362.1z"/>
<path fill="#8BC53F" d="M-260.3,358.5c0,0-7.6-0.1-12.4,2.2c-4.7,2.2-4.2,2.3-4.8,3.4c-0.5,1.1-0.8,1.6-0.8,1.6s0.9,0.2,1.9-0.7
	c0.9-0.9,1.2-1.9,1.2-1.9s-0.2,1.7-0.4,2.1c-0.3,0.4-0.3,0.4-0.3,0.4s1.4-0.3,2.3-0.8c0.9-0.5,1.7-1.9,1.9-2.3
	c0.1-0.4,0.5,1.6-0.8,2.3c-1.2,0.7,1.7,0.4,2.8-0.2c1.2-0.7,2.5-2.3,2.5-2.3s-0.3,1.5-0.7,1.7c-0.4,0.2,2.1-0.4,2.5-1.1
	c0.4-0.7,0.4-0.7,0.4-0.7s-0.3,1.7-0.7,1.9c-0.3,0.1,2.1-0.2,2.5-0.7c0.5-0.4,1.2-0.9,1.2-0.9l-1.4,1.6c0,0,0.7,0.3,1.9-0.1
	c1.1-0.4,2.2-1.3,2.8-2c0.5-0.7,0.5-1.1,0.3-1.7C-258.4,359.6-258.7,358.5-260.3,358.5z"/>
<path fill="#8BC53F" d="M-261.6,359c-0.4,0.1-7.6-1.5-8.6-2.4c-1-0.9-0.3-0.5-0.3-0.5s3.3-0.4,3.8-0.5c0.5-0.2-6-0.9-6-0.9
	s1.9-1.2,1.9-1.3c0-0.2-3.5-0.1-4-0.8c-0.5-0.7-0.4-0.9,0.7-1.1c1.1-0.2,3.7-0.7,3.7-0.7s-5.4-0.2-6.2-0.5c-0.8-0.3-0.9-0.5-0.9-0.5
	s2.4-0.2,2.8-0.4c0.4-0.2-3.5-0.3-3.7-0.3c-0.2,0,0.7-2.1,2.7-2.2c2.1-0.1,4.4,0.8,6.3,2c2,1.2,7.2,6.2,7.7,7.2
	C-260.9,357-259.5,358.7-261.6,359z"/>
<path fill="#8BC53F" d="M-260,358.8l1.9-6.2c0,0-0.8,0.1-1.4-0.5c-0.7-0.7-0.7-0.7-0.7-0.7s1.5,0.5,2.1,0.2c0.5-0.3,1.6-3.7,1.6-3.9
	s-2.6,0.2-3,0c-0.4-0.2,2.2-0.8,2.7-1.5c0.7-0.8,0.7-0.8,0.7-0.8s-0.3-0.8-1.9-0.5c-1.5,0.2-2.1,0-2.1,0s3.2-0.1,3.9-1
	c0.8-0.8,0.7-1.1,0-1.5c-0.7-0.5-1.7-0.1-3,0.7c-1.3,0.7-2.9,2.4-3.2,3.8c-0.2,1.4,0.8,8.5,1,10.3C-261.2,358.9-260,358.8-260,358.8
	z"/>
<path fill="#8BC53F" d="M-259.3,359c0,0,4.9-3.3,5.1-3.5s-1.5-0.2-1.9-0.7c-0.3-0.4,2,0.2,3.4-0.4c1.4-0.7,2.7-2.2,2.7-2.2
	s-2-0.3-2.4-0.7c-0.4-0.4-0.4-0.4-0.4-0.4s2,0.4,3.2,0c1.2-0.4,3-2.1,3.2-2.5s0.1-0.4,0.1-0.4s-2.2,1-3.3,0.7c-1.1-0.3-1.2-1-1.2-1
	s2.7,0.7,3.7,0s1.3-0.7,1.1-1.9c-0.2-1.2-0.9-1.7-0.9-1.7s-2.4,0.9-4.7,2.5c-2.3,1.6-7,5.9-8.6,10.7
	C-261.8,362.5-259.3,359-259.3,359z"/>
<path fill="#8BC53F" d="M-259.5,359.3c0,0,7.1-4.1,9.4-4.9c2.3-0.9,5.1-1.6,7.4-1.4c2.3,0.2,3.5,1.9,3.5,1.9s-1.4,0.3-2.4,0.1
	c-1-0.2-1.5-0.5-1.5-0.5s1.9,1.3,2.2,1.2c0.3-0.1-0.7,0.8-2.3,0.9c-1.7,0.1-2.6-0.5-2.7-0.7c-0.2-0.1,0.7,1.4,1.1,1.4
	c0.4,0-0.3,0.8-1.9,0.4c-1.5-0.3-2.1-0.3-2.1-0.3s0.5,1.1,1.1,1s0.9,0,0.9,0s-0.3,1.2-1.7,0.9c-1.4-0.2-2.7-1.4-2.7-1.4
	s1.4,1.7,2.2,1.9s-0.7,1.1-2.2,1.1c-1.4,0-3.7-1.9-3.7-1.9c-0.1,0-0.2,1.1,0.9,1.9c1,0.8,1.7,0.9,1.7,0.9s-1.9,0.4-4.1,0
	C-259.2,361.2-259.5,359.3-259.5,359.3z"/>
<path fill="#776350" d="M-82.5,398.4v-45.2c0,0,0.1-1,0.3-1.5c0.8-2.3,3.6-8.3,11.4-9.3c9.8-1.2,18,5,18.1,11.8c0.2,7,0,44.2,0,44.2
	H-82.5z"/>
</svg>
