<?xml version="1.0" encoding="utf-8"?>
<!-- Generator: Adobe Illustrator 18.1.1, SVG Export Plug-In . SVG Version: 6.00 Build 0)  -->
<svg version="1.1" id="Layer_1" xmlns="http://www.w3.org/2000/svg" xmlns:xlink="http://www.w3.org/1999/xlink" x="0px" y="0px"
	 width="400px" height="260px" viewBox="0 0 400 260" enable-background="new 0 0 400 260" xml:space="preserve">
<rect x="56.3" y="229.4" fill="#A61F25" width="5" height="27.2"/>
<rect x="70.3" y="225.5" fill="#A61F25" width="5" height="31.1"/>
<rect x="83.2" y="225.5" fill="#A61F25" width="5" height="31.1"/>
<rect x="97.9" y="225.5" fill="#A61F25" width="5" height="31.1"/>
<rect x="113" y="225.5" fill="#A61F25" width="5" height="31.1"/>
<rect x="128.7" y="225.5" fill="#A61F25" width="5" height="31.1"/>
<rect x="143.4" y="225.5" fill="#A61F25" width="5" height="31.1"/>
<rect x="157.4" y="225.5" fill="#A61F25" width="5" height="31.1"/>
<rect x="237.6" y="225.5" fill="#A61F25" width="5" height="31.1"/>
<rect x="251.6" y="225.5" fill="#A61F25" width="5" height="31.1"/>
<rect x="264.5" y="225.5" fill="#A61F25" width="5" height="31.1"/>
<rect x="279.2" y="225.5" fill="#A61F25" width="5" height="31.1"/>
<rect x="294.3" y="225.5" fill="#A61F25" width="5" height="31.1"/>
<rect x="310" y="225.5" fill="#A61F25" width="5" height="31.1"/>
<rect x="324.7" y="225.5" fill="#A61F25" width="5" height="31.1"/>
<rect x="338.7" y="225.5" fill="#A61F25" width="5" height="31.1"/>
<path fill="#E98424" d="M195.6,10.7c0,0-31.6,36.9-42.3,36.9c0,0,0.4,3.3,10,5.2c9.6,1.8,57.7,4,64,2.5c6.3-1.5,11.9-8.2,10.7-8.4
	C225.5,44.3,203.1,18.2,195.6,10.7z"/>
<path fill="#51ABAD" d="M195.7,11c0,0-0.3-0.3-0.3-0.1c-0.2,3.3-1.7,29.9-7.1,35.8h14.1c0,0-4.8-7.5-6.2-35.6
	C196,10.3,195.7,11.7,195.7,11z"/>
<path fill="#51ABAD" d="M151.3,46c0,0,13.8,3.6,24.2,2.7s20.2-5.9,20.2-5.9s15.5,7.1,22.7,6.9c7.2-0.1,21.5-3.5,21.5-3.5
	s-0.2,6.6-6.3,8.1c-6.1,1.4-79,1.3-79,1.3L151.3,46z"/>
<path fill="#231F20" d="M156,58.1c0,0,3.3,1.5-2.2-1.4c-6.8-3.6-2.5-10.7-2.5-10.7s9.8,6.1,21.7,6.1c18.4-0.1,22.6-9.2,22.6-9.2
	s7,9.3,20.8,9.5c18.5,0.3,23.5-6.1,23.5-6.1s2.2,7.9-3,11C231.7,60.4,156,58.1,156,58.1z"/>
<rect x="153.8" y="62" fill="#A61F25" width="83.8" height="21.1"/>
<rect x="153.8" y="56.7" fill="#FBBB74" width="83.8" height="5.3"/>
<path fill="#51ABAD" d="M155.5,48.2c0,0,11-3.6,22.1-15.4c11.1-11.8,18.1-20.9,18.1-20.9l-0.1-1.2c0,0-18.8,18.3-23.1,22.1
	c-4.1,3.6-9.6,9.5-16.3,12.3c-3.6,1.5-4.9,0.9-4.9,0.9L155.5,48.2z"/>
<path fill="#51ABAD" d="M235.5,48.7c0,0-11.4-3.6-22.5-15.5c-11.1-11.8-17.7-21.4-17.7-21.4l0.2-1.3c0,0,18.7,18.4,23.1,22.3
	c4.1,3.6,11.4,9.6,14.8,11.6c3.9,2.3,6.5,1.9,6.5,1.9L235.5,48.7z"/>
<circle fill="#096C69" cx="196.2" cy="9" r="4.1"/>
<g>
	<rect x="161.3" y="66.2" fill="#D0D2D3" width="11.5" height="11.5"/>
	<rect x="180.4" y="65.8" fill="#D0D2D3" width="11.5" height="11.5"/>
	<rect x="199.5" y="66.2" fill="#D0D2D3" width="11.5" height="11.5"/>
	<rect x="218.6" y="66.8" fill="#D0D2D3" width="11.5" height="11.5"/>
</g>
<polygon fill="#E98424" points="249.4,95.1 246.6,102.8 161.3,104.1 141.3,93.5 149,91.5 153.8,83 237.6,83 237.6,85.9 "/>
<path fill="#51ABAD" d="M141.3,93.5c0,0,17.1,3.6,29.9,2.7c12.8-0.9,24.9-5.9,24.9-5.9s19.2,7.1,28.1,6.9c8.9-0.1,26.5-3.5,26.5-3.5
	s-0.3,6.6-7.8,8.1c-7.5,1.4-97.6,1.3-97.6,1.3L141.3,93.5z"/>
<path fill="#51ABAD" d="M156.6,83l-10.1,12.6l-5.2-2.1c0,0,3-0.4,6.3-3.2c3.3-2.7,6.2-7.3,6.2-7.3H156.6z"/>
<path fill="#51ABAD" d="M234.1,83l12.1,12.8c0,0,4.7-1.2,4.9-2c0,0-6.5-0.2-13.6-10.7H234.1z"/>
<path fill="#51ABAD" d="M193.6,83c-1,5.4-2.5,10.1-4.4,12.3h14.1c0,0-1.9-3-3.7-12.3L193.6,83z"/>
<rect x="141.9" y="108.5" fill="#A61F25" width="108.2" height="21.1"/>
<path fill="#231F20" d="M145.6,104.9c-7.9-2.6-4.2-11.3-4.2-11.3s12.1,6.1,26.9,6.1c22.8-0.1,28-9.2,28-9.2s8.7,9.3,25.8,9.5
	c22.9,0.3,29.1-6.1,29.1-6.1s2.8,7.9-3.7,11C241.1,107.9,152.6,107.2,145.6,104.9z"/>
<rect x="142" y="102.8" fill="#FBBB74" width="108.2" height="5.3"/>
<g>
	<rect x="161.5" y="112.2" fill="#D0D2D3" width="11.5" height="11.5"/>
	<rect x="180.6" y="112.2" fill="#D0D2D3" width="11.5" height="11.5"/>
	<rect x="199.7" y="112.2" fill="#D0D2D3" width="11.5" height="11.5"/>
	<rect x="219" y="112.2" fill="#D0D2D3" width="11.5" height="11.5"/>
</g>
<polygon fill="#E98424" points="265.8,140.9 260.7,149.4 151.9,150.6 129.1,142.3 136.1,138.1 142.3,129.6 249.3,129.6 249.3,132.5 
	"/>
<path fill="#51ABAD" d="M126.4,140.1c0,0,21.8,3.6,38.2,2.7c16.3-0.9,31.8-5.9,31.8-5.9s24.5,7.1,35.9,6.9
	c11.4-0.1,33.9-3.5,33.9-3.5s-0.3,6.6-9.9,8.1c-9.6,1.4-124.6,1.3-124.6,1.3L126.4,140.1z"/>
<path fill="#51ABAD" d="M145.9,129.6L133,142.3l-6.6-2.1c0,0,3.5,1.1,9.8-4.2c3.9-3.2,5.8-6.4,5.8-6.4L145.9,129.6z"/>
<path fill="#51ABAD" d="M245.6,129.6l14.7,12.8c0,0,7.2-2.1,6.3-2c-1.2,0.1-12.1-5.1-16.4-10.8L245.6,129.6z"/>
<path fill="#51ABAD" d="M193.1,129.6c-1.3,5.4-3.2,10.1-5.6,12.3h17.9c0,0-2.4-3-4.7-12.3L193.1,129.6z"/>
<rect x="127.3" y="155.1" fill="#A61F25" width="138.1" height="21.1"/>
<path fill="#231F20" d="M132.9,152c-11.4-2.6-6.5-11.9-6.5-11.9s15.5,6.1,34.4,6.1c29.1-0.1,35.7-9.2,35.7-9.2s11.1,9.3,33,9.5
	c29.3,0.3,37.1-6.1,37.1-6.1s3.5,7.9-4.7,11C253.7,154.5,141.8,154.1,132.9,152z"/>
<rect x="127.3" y="149.4" fill="#FBBB74" width="138.1" height="5.3"/>
<rect x="152.5" y="159.2" fill="#D0D2D3" width="11.5" height="11.5"/>
<rect x="171.6" y="159.2" fill="#D0D2D3" width="11.5" height="11.5"/>
<rect x="190.7" y="159.2" fill="#D0D2D3" width="11.5" height="11.5"/>
<rect x="210" y="159.2" fill="#D0D2D3" width="11.5" height="11.5"/>
<rect x="229.2" y="159.2" fill="#D0D2D3" width="11.5" height="11.5"/>
<polygon fill="#E98424" points="284.8,187.1 279,196 145.5,197.2 114.2,186.7 126.2,184.7 133.7,176.2 265,176.2 265,179.1 "/>
<path fill="#51ABAD" d="M114.2,186.7c0,0,26.8,3.6,46.8,2.7c20-0.9,39-5.9,39-5.9s30.1,7.1,44,6.9c14-0.1,42.2-3.5,42.2-3.5
	s-1,6.6-12.8,8.1c-11.8,1.4-152.9,1.3-152.9,1.3L114.2,186.7z"/>
<path fill="#51ABAD" d="M134.1,176.2l-12.9,14.9l-9.7-4.4c0,0,4.3-0.4,9.3-3.4c6.9-4.1,6.3-7.2,6.3-7.2L134.1,176.2z"/>
<path fill="#51ABAD" d="M260.5,176.2l18.1,12.8c0,0,8.6-1.9,7.7-2c-3.2-0.2-15.5-5.1-20.8-10.8L260.5,176.2z"/>
<path fill="#51ABAD" d="M196.1,176.2c-1.6,5.4-3.9,10.1-6.9,12.3h22c0,0-3-3-5.8-12.3L196.1,176.2z"/>
<rect x="115.5" y="202.2" fill="#A61F25" width="169.5" height="31.1"/>
<path fill="#231F20" d="M119.1,197.4c-10.6-2.3-7.5-10.6-7.5-10.6s21.5,6.1,44.8,6c35.7-0.1,43.8-9.2,43.8-9.2s13.7,9.3,40.5,9.5
	c35.9,0.3,45.5-6.1,45.5-6.1s4.3,7.9-5.7,11C270.4,201.1,129.9,199.7,119.1,197.4z"/>
<rect x="115.3" y="196" fill="#FBBB74" width="169.5" height="5.3"/>
<polygon fill="#E98424" points="207.7,234.3 124.4,234 61.9,234.9 49.6,233.4 52.9,231.7 57.1,225.5 199.1,225.5 199.1,227.6 "/>
<rect x="47.8" y="233.1" fill="#51ABAD" width="147.6" height="3"/>
<polygon fill="#E98424" points="192.3,233.6 275.6,233.3 338.1,234.2 350.4,232.8 347.1,231 342.9,224.8 200.9,224.8 200.9,226.9 
	"/>
<path fill="#51ABAD" d="M341.2,224.9l7.4,9.2l3.6-1.6c0,0-2-0.3-4.5-2.3c-2.4-2-4.5-5.3-4.5-5.3H341.2z"/>
<rect x="204.6" y="232.5" fill="#51ABAD" width="147.6" height="3"/>
<polygon fill="#E98424" points="238.7,217.2 236.6,216.8 174.2,217.7 161.9,216.3 165.1,214.6 168.7,208.4 230.1,208.4 230.1,210.5 
	"/>
<path fill="#51ABAD" d="M171.1,208.4l-7.4,9.2l-3.8-1.6c0,0,2.2-0.3,4.6-2.3c2.4-2,4.5-5.3,4.5-5.3H171.1z"/>
<path fill="#51ABAD" d="M227.8,208.4l8.9,9.4c0,0,3.4-0.9,3.6-1.5c0,0-4.8-0.2-9.9-7.9H227.8z"/>
<rect x="167.4" y="219.2" fill="#A61F25" width="65.8" height="37.5"/>
<rect x="160" y="216" fill="#51ABAD" width="80.5" height="3"/>
<rect x="185.6" y="225" fill="#231F20" width="29.3" height="31.7"/>
</svg>
