<?xml version="1.0" encoding="utf-8"?>
<!-- Generator: Adobe Illustrator 18.1.1, SVG Export Plug-In . SVG Version: 6.00 Build 0)  -->
<svg version="1.1" id="Layer_1" xmlns="http://www.w3.org/2000/svg" xmlns:xlink="http://www.w3.org/1999/xlink" x="0px" y="0px"
	 width="381px" height="337.5px" viewBox="0 0 381 337.5" enable-background="new 0 0 381 337.5" xml:space="preserve">
<rect x="21.2" y="287.4" fill="#A61F25" width="6" height="32.3"/>
<rect x="37.7" y="282.8" fill="#A61F25" width="5.9" height="36.9"/>
<rect x="53.1" y="282.8" fill="#A61F25" width="6" height="36.9"/>
<rect x="70.5" y="282.8" fill="#A61F25" width="6" height="36.9"/>
<rect x="88.4" y="282.8" fill="#A61F25" width="6" height="36.9"/>
<rect x="107" y="282.8" fill="#A61F25" width="6" height="36.9"/>
<rect x="124.4" y="282.8" fill="#A61F25" width="6" height="36.9"/>
<rect x="141" y="282.8" fill="#A61F25" width="6" height="36.9"/>
<rect x="236.2" y="282.8" fill="#A61F25" width="6" height="36.9"/>
<rect x="252.7" y="282.8" fill="#A61F25" width="6" height="36.9"/>
<rect x="268.1" y="282.8" fill="#A61F25" width="6" height="36.9"/>
<rect x="285.5" y="282.8" fill="#A61F25" width="6" height="36.9"/>
<rect x="303.4" y="282.8" fill="#A61F25" width="6" height="36.9"/>
<rect x="322" y="282.8" fill="#A61F25" width="5.9" height="36.9"/>
<rect x="339.5" y="282.8" fill="#A61F25" width="5.9" height="36.9"/>
<rect x="356.1" y="282.8" fill="#A61F25" width="6" height="36.9"/>
<path fill="#E98424" d="M186.3,28c0,0-37.5,43.7-50.2,43.7c0,0,0.5,4,11.9,6.1c11.4,2.2,68.5,4.8,75.9,2.9c7.5-1.8,14.1-9.7,12.6-10
	C221.9,67.9,195.3,36.9,186.3,28z"/>
<path fill="#51ABAD" d="M186.4,28.4c0,0-0.4-0.3-0.4-0.1c-0.2,3.9-2,35.4-8.4,42.5h16.7c0,0-5.7-8.9-7.4-42.2
	C186.9,27.6,186.5,29.2,186.4,28.4z"/>
<path fill="#51ABAD" d="M133.8,69.9c0,0,16.4,4.3,28.7,3.2c12.3-1,23.9-7,23.9-7s18.4,8.4,27,8.2c8.6-0.2,25.5-4.1,25.5-4.1
	s-0.2,7.9-7.5,9.6c-7.2,1.7-93.7,1.6-93.7,1.6L133.8,69.9z"/>
<path fill="#231F20" d="M139.4,84.2c0,0,3.9,1.8-2.6-1.6c-8.1-4.3-3-12.7-3-12.7s11.6,7.3,25.8,7.2c21.8-0.1,26.8-11,26.8-11
	s8.3,11,24.7,11.3c21.9,0.4,27.8-7.2,27.8-7.2s2.6,9.4-3.5,13C229.2,87,139.4,84.2,139.4,84.2z"/>
<rect x="136.8" y="88.8" fill="#A61F25" width="99.4" height="25"/>
<rect x="136.8" y="82.6" fill="#FBBB74" width="99.4" height="6.3"/>
<path fill="#51ABAD" d="M138.8,72.5c0,0,13.1-4.3,26.2-18.3c13.2-14,21.5-24.8,21.5-24.8l-0.2-1.4c0,0-22.3,21.7-27.5,26.3
	c-4.9,4.3-11.4,11.3-19.3,14.6c-4.3,1.8-5.8,1.1-5.8,1.1L138.8,72.5z"/>
<path fill="#51ABAD" d="M233.7,73.1c0,0-13.5-4.3-26.7-18.4c-13.2-14-20.9-25.3-20.9-25.3l0.2-1.5c0,0,22.2,21.8,27.4,26.4
	c4.9,4.3,13.5,11.4,17.5,13.8c4.7,2.7,7.7,2.2,7.7,2.2L233.7,73.1z"/>
<circle fill="#096C69" cx="187" cy="25.9" r="4.9"/>
<g>
	<rect x="145.7" y="93.9" fill="#D0D2D3" width="13.7" height="13.7"/>
	<rect x="168.4" y="93.4" fill="#D0D2D3" width="13.7" height="13.7"/>
	<rect x="191" y="93.9" fill="#D0D2D3" width="13.7" height="13.7"/>
	<rect x="213.6" y="94.5" fill="#D0D2D3" width="13.7" height="13.7"/>
</g>
<polygon fill="#E98424" points="250.2,128.1 246.8,137.3 145.7,138.7 122,126.2 131.1,123.9 136.8,113.8 236.2,113.8 236.2,117.2 
	"/>
<path fill="#51ABAD" d="M122,126.2c0,0,20.3,4.3,35.5,3.2c15.2-1,29.6-7,29.6-7s22.8,8.4,33.3,8.2c10.6-0.2,31.5-4.1,31.5-4.1
	s-0.3,7.9-9.2,9.6c-8.9,1.7-115.8,1.6-115.8,1.6L122,126.2z"/>
<path fill="#51ABAD" d="M140.2,113.8l-12,15l-6.2-2.5c0,0,3.6-0.5,7.5-3.8c3.9-3.2,7.3-8.7,7.3-8.7H140.2z"/>
<path fill="#51ABAD" d="M232.1,113.8l14.4,15.1c0,0,5.5-1.4,5.8-2.4c0,0-7.7-0.3-16.1-12.7H232.1z"/>
<path fill="#51ABAD" d="M184,113.8c-1.2,6.4-2.9,12-5.2,14.5h16.7c0,0-2.3-3.5-4.4-14.5L184,113.8z"/>
<rect x="122.7" y="144.1" fill="#A61F25" width="128.4" height="25"/>
<path fill="#231F20" d="M127,139.7c-9.3-3.1-5-13.5-5-13.5s14.4,7.3,32,7.2c27-0.1,33.2-11,33.2-11s10.3,11,30.6,11.3
	c27.2,0.4,34.5-7.2,34.5-7.2s3.3,9.4-4.3,13C240.3,143.3,135.4,142.5,127,139.7z"/>
<rect x="122.8" y="137.3" fill="#FBBB74" width="128.4" height="6.3"/>
<g>
	<rect x="145.9" y="148.3" fill="#D0D2D3" width="13.7" height="13.7"/>
	<rect x="168.5" y="148.3" fill="#D0D2D3" width="13.7" height="13.7"/>
	<rect x="191.2" y="148.3" fill="#D0D2D3" width="13.7" height="13.7"/>
	<rect x="214.1" y="148.3" fill="#D0D2D3" width="13.7" height="13.7"/>
</g>
<polygon fill="#E98424" points="269.7,182.4 263.5,192.5 134.5,194 107.4,184 115.8,179.1 123.1,169.1 250,169.1 250,172.5 "/>
<path fill="#51ABAD" d="M104.2,181.5c0,0,25.9,4.3,45.3,3.2c19.4-1,37.7-7,37.7-7s29.1,8.4,42.5,8.2c13.5-0.2,40.2-4.1,40.2-4.1
	s-0.4,7.9-11.8,9.6c-11.4,1.7-147.8,1.6-147.8,1.6L104.2,181.5z"/>
<path fill="#51ABAD" d="M127.4,169.1l-15.3,15l-7.9-2.5c0,0,4.1,1.3,11.6-4.9c4.6-3.8,6.8-7.5,6.8-7.5L127.4,169.1z"/>
<path fill="#51ABAD" d="M245.6,169.1l17.5,15.2c0,0,8.5-2.5,7.4-2.4c-1.4,0.1-14.4-6-19.5-12.8L245.6,169.1z"/>
<path fill="#51ABAD" d="M183.4,169.1c-1.6,6.4-3.7,12-6.7,14.5H198c0,0-2.9-3.5-5.6-14.5L183.4,169.1z"/>
<rect x="105.3" y="199.3" fill="#A61F25" width="163.8" height="25"/>
<path fill="#231F20" d="M112,195.7c-13.5-3.1-7.7-14.2-7.7-14.2s18.3,7.3,40.8,7.2c34.5-0.1,42.4-11,42.4-11s13.2,11,39.1,11.3
	c34.7,0.4,44-7.2,44-7.2s4.2,9.4-5.5,13C255.2,198.6,122.6,198.1,112,195.7z"/>
<rect x="105.3" y="192.5" fill="#FBBB74" width="163.8" height="6.3"/>
<rect x="135.2" y="204.2" fill="#D0D2D3" width="13.7" height="13.7"/>
<rect x="157.9" y="204.2" fill="#D0D2D3" width="13.7" height="13.7"/>
<rect x="180.5" y="204.2" fill="#D0D2D3" width="13.7" height="13.7"/>
<rect x="203.4" y="204.2" fill="#D0D2D3" width="13.7" height="13.7"/>
<rect x="226.2" y="204.2" fill="#D0D2D3" width="13.7" height="13.7"/>
<polygon fill="#E98424" points="292.1,237.2 285.3,247.8 126.9,249.3 89.8,236.8 104,234.4 113,224.3 268.7,224.3 268.7,227.8 "/>
<path fill="#51ABAD" d="M89.8,236.8c0,0,31.8,4.3,55.5,3.2s46.3-7,46.3-7s35.7,8.4,52.2,8.2c16.6-0.2,50-4.1,50-4.1
	s-1.2,7.9-15.2,9.6c-14,1.7-181.3,1.6-181.3,1.6L89.8,236.8z"/>
<path fill="#51ABAD" d="M113.5,224.3L98.2,242l-11.5-5.2c0,0,5.1-0.5,11.1-4c8.2-4.9,7.5-8.5,7.5-8.5L113.5,224.3z"/>
<path fill="#51ABAD" d="M263.3,224.3l21.4,15.2c0,0,10.2-2.3,9.1-2.4c-3.8-0.3-18.4-6-24.7-12.8L263.3,224.3z"/>
<path fill="#51ABAD" d="M186.9,224.3c-1.9,6.4-4.6,12-8.2,14.5h26.1c0,0-3.6-3.5-6.9-14.5L186.9,224.3z"/>
<rect x="91.4" y="255.2" fill="#A61F25" width="201.1" height="36.9"/>
<path fill="#231F20" d="M95.7,249.4c-12.6-2.8-8.9-12.6-8.9-12.6s25.6,7.2,53.1,7.1c42.3-0.1,52-11,52-11s16.2,11,48,11.3
	c42.6,0.4,54-7.2,54-7.2s5.1,9.4-6.8,13C275.1,253.8,108.5,252.2,95.7,249.4z"/>
<rect x="91.1" y="247.8" fill="#FBBB74" width="201.1" height="6.3"/>
<polygon fill="#E98424" points="200.7,293.2 101.9,292.8 27.8,293.9 13.2,292.2 17.1,290.1 22.1,282.7 190.5,282.7 190.5,285.2 "/>
<path fill="#51ABAD" d="M24.1,282.8l-8.8,11l-4.3-1.9c0,0,2.4-0.4,5.3-2.8c2.9-2.4,5.3-6.3,5.3-6.3H24.1z"/>
<rect x="11.1" y="291.8" fill="#51ABAD" width="175.1" height="3.6"/>
<polygon fill="#E98424" points="182.5,292.4 281.3,292 355.4,293.1 369.9,291.4 366.1,289.3 361.1,282 192.7,282 192.7,284.5 "/>
<path fill="#51ABAD" d="M359,282l8.8,11l4.3-1.9c0,0-2.4-0.4-5.3-2.8c-2.9-2.4-5.3-6.3-5.3-6.3H359z"/>
<rect x="197.1" y="291.1" fill="#51ABAD" width="175.1" height="3.6"/>
<polygon fill="#E98424" points="237.5,272.9 235,272.5 160.9,273.6 146.4,271.9 150.2,269.8 154.4,262.4 227.2,262.4 227.2,264.9 
	"/>
<path fill="#51ABAD" d="M157.3,262.4l-8.8,11l-4.5-1.9c0,0,2.6-0.4,5.5-2.8c2.9-2.4,5.3-6.3,5.3-6.3H157.3z"/>
<path fill="#51ABAD" d="M224.6,262.4l10.5,11.1c0,0,4-1.1,4.3-1.8c0,0-5.6-0.2-11.8-9.3H224.6z"/>
<rect x="152.9" y="275.3" fill="#A61F25" width="78" height="44.5"/>
<rect x="144.2" y="271.5" fill="#51ABAD" width="95.4" height="3.6"/>
<rect x="174.5" y="282.2" fill="#231F20" width="34.8" height="37.5"/>
</svg>
