<?xml version="1.0" encoding="utf-8"?>
<!-- Generator: Adobe Illustrator 18.1.1, SVG Export Plug-In . SVG Version: 6.00 Build 0)  -->
<svg version="1.1" id="Layer_1" xmlns="http://www.w3.org/2000/svg" xmlns:xlink="http://www.w3.org/1999/xlink" x="0px" y="0px"
	 width="380px" height="162px" viewBox="0 0 380 162" enable-background="new 0 0 380 162" xml:space="preserve">
<rect x="46.1" y="55.6" fill="#C5A276" width="30.4" height="87.5"/>
<rect x="299.4" y="66.8" fill="#C5A276" width="30.7" height="66.7"/>
<polygon fill="#776350" points="116,62.1 116,78.6 89.8,78.6 89.8,133.8 104.9,133.8 137.6,133.8 168.3,133.8 168.3,62.1 "/>
<rect x="224.9" y="77.3" fill="#776350" width="65.9" height="56.5"/>
<rect x="43.5" y="55.6" fill="#776350" width="35.7" height="7"/>
<rect x="296.9" y="66.8" fill="#776350" width="35.7" height="7"/>
<polygon fill="#E1C8A3" points="161.5,99.6 161.5,92.8 154.7,92.8 154.7,99.6 148,99.6 148,92.8 141.2,92.8 141.2,99.6 134.4,99.6 
	134.4,92.8 127.6,92.8 127.6,99.6 120.8,99.6 120.8,92.8 114,92.8 114,99.6 107.2,99.6 107.2,92.9 100.4,92.9 100.4,99.6 93.6,99.6 
	93.6,92.9 86.8,92.9 86.8,99.6 80,99.6 80,92.9 73.2,92.9 73.2,99.6 66.4,99.6 66.4,92.9 59.6,92.9 59.6,99.6 52.8,99.6 52.8,92.9 
	46,92.9 46,99.7 46.1,99.7 46.1,143.4 168.3,143.4 168.3,99.6 "/>
<polygon fill="#C5A276" points="175.9,38.7 175.9,30.6 167.8,30.6 167.8,38.7 159.6,38.7 159.6,30.6 151.5,30.6 151.5,38.7 
	151.5,38.7 151.5,143.4 224.8,143.4 224.8,38.7 "/>
<rect x="184" y="30.6" fill="#C5A276" width="8.1" height="8.1"/>
<rect x="200.2" y="30.6" fill="#C5A276" width="8.1" height="8.1"/>
<rect x="216.7" y="30.6" fill="#C5A276" width="8.1" height="8.1"/>
<rect x="224.8" y="99.6" fill="#E1C8A3" width="105.3" height="43.8"/>
<rect x="241.7" y="92.8" fill="#E1C8A3" width="6.8" height="6.8"/>
<rect x="255.3" y="92.8" fill="#E1C8A3" width="6.8" height="6.8"/>
<rect x="228.1" y="92.8" fill="#E1C8A3" width="6.8" height="6.8"/>
<rect x="268.8" y="92.8" fill="#E1C8A3" width="6.8" height="6.8"/>
<rect x="282.4" y="92.8" fill="#E1C8A3" width="6.8" height="6.8"/>
<rect x="296" y="92.8" fill="#E1C8A3" width="6.8" height="6.8"/>
<rect x="309.6" y="92.8" fill="#E1C8A3" width="6.8" height="6.8"/>
<rect x="323.3" y="92.8" fill="#E1C8A3" width="6.8" height="6.8"/>
<g>
	<rect x="304.3" y="76.2" fill="#231F20" width="4.9" height="7.6"/>
	<rect x="312.3" y="76.2" fill="#231F20" width="4.9" height="7.6"/>
	<rect x="320.3" y="76.2" fill="#231F20" width="4.9" height="7.6"/>
</g>
<g>
	<rect x="164" y="48.1" fill="#231F20" width="4.9" height="7.6"/>
	<rect x="175" y="48.1" fill="#231F20" width="4.9" height="7.6"/>
	<rect x="185.9" y="48.1" fill="#231F20" width="4.9" height="7.6"/>
	<rect x="196.5" y="48.1" fill="#231F20" width="4.9" height="7.6"/>
	<rect x="207.4" y="48.1" fill="#231F20" width="4.9" height="7.6"/>
</g>
<rect x="120.1" y="69.7" fill="#231F20" width="4.9" height="7.6"/>
<rect x="131.3" y="69.7" fill="#231F20" width="4.9" height="7.6"/>
<rect x="142.4" y="69.7" fill="#231F20" width="4.9" height="7.6"/>
<g>
	<rect x="255.4" y="82.1" fill="#231F20" width="4.9" height="7.6"/>
	<rect x="266.5" y="82.1" fill="#231F20" width="4.9" height="7.6"/>
	<rect x="277.7" y="82.1" fill="#231F20" width="4.9" height="7.6"/>
	<rect x="233.1" y="82.1" fill="#231F20" width="4.9" height="7.6"/>
	<rect x="244.2" y="82.1" fill="#231F20" width="4.9" height="7.6"/>
</g>
<g>
	<rect x="95" y="82.1" fill="#231F20" width="4.9" height="7.6"/>
	<rect x="106.1" y="82.1" fill="#231F20" width="4.9" height="7.6"/>
</g>
<g>
	<rect x="50.8" y="69.5" fill="#231F20" width="4.9" height="7.6"/>
	<rect x="58.8" y="69.5" fill="#231F20" width="4.9" height="7.6"/>
	<rect x="66.8" y="69.5" fill="#231F20" width="4.9" height="7.6"/>
</g>
<path fill="#F3D58E" d="M353,113.3l-2.9-1.6c0,0-0.8,4.6-1.1,16c-0.3,9.8-0.4,16.7-0.4,16.7l4-0.1c0,0-0.5-10.8-0.4-16.3
	C352.3,122.6,352.8,114.7,353,113.3z"/>
<path fill="#8BC53F" d="M353.4,111.2c0,0,6.5,0,10.6,1.8c4,1.9,3.7,1.9,4.1,2.8c0.5,0.9,0.7,1.4,0.7,1.4s-0.8,0.2-1.5-0.5
	c-0.8-0.7-1.1-1.5-1.1-1.5s0.1,1.4,0.4,1.8c0.2,0.3,0.2,0.3,0.2,0.3s-1.2-0.2-2-0.7c-0.8-0.4-1.5-1.5-1.5-1.9c0-0.4-0.4,1.4,0.6,1.9
	c1.1,0.5-1.4,0.3-2.4-0.2c-1-0.5-2.2-1.9-2.2-1.9s0.2,1.3,0.6,1.4c0.3,0.1-1.7-0.4-2.1-1c-0.4-0.6-0.4-0.6-0.4-0.6s0.3,1.5,0.5,1.5
	c0.2,0-1.7-0.2-2.2-0.6c-0.4-0.4-1.1-0.8-1.1-0.8l1.2,1.4c0,0-0.6,0.3-1.5,0c-1-0.3-1.9-1.1-2.4-1.7c-0.5-0.6-0.4-0.9-0.3-1.5
	C351.9,112.2,352.1,111.2,353.4,111.2z"/>
<path fill="#8BC53F" d="M354.5,111.7c0.4,0.1,6.5-1.3,7.3-2.1c0.9-0.7,0.2-0.4,0.2-0.4s-2.8-0.3-3.3-0.5c-0.5-0.1,5.1-0.7,5.1-0.7
	s-1.6-1-1.6-1.2c0-0.1,3-0.1,3.4-0.7c0.4-0.6,0.3-0.7-0.6-0.9c-0.9-0.2-3.2-0.5-3.2-0.5s4.7-0.2,5.3-0.4c0.6-0.2,0.8-0.4,0.8-0.4
	s-2.1-0.2-2.4-0.4c-0.3-0.2,2.9-0.2,3.1-0.2c0.2,0-0.6-1.7-2.3-1.8c-1.7-0.1-3.7,0.7-5.4,1.7c-1.7,1-6.1,5.3-6.6,6.1
	C354,110,352.8,111.4,354.5,111.7z"/>
<path fill="#8BC53F" d="M353.2,111.5l-1.5-5.3c0,0,0.7,0,1.2-0.5c0.5-0.5,0.5-0.5,0.5-0.5s-1.3,0.5-1.7,0.2
	c-0.4-0.3-1.4-3.1-1.4-3.3c0-0.2,2.3,0.1,2.6,0c0.4-0.1-1.8-0.7-2.4-1.3c-0.5-0.6-0.5-0.6-0.5-0.6s0.3-0.6,1.6-0.5
	c1.3,0.1,1.7,0,1.7,0s-2.7-0.1-3.4-0.8c-0.6-0.7-0.5-0.9,0-1.3c0.5-0.4,1.5,0,2.6,0.5c1.1,0.6,2.5,2,2.7,3.2
	c0.2,1.2-0.6,7.2-0.9,8.8C354.2,111.6,353.2,111.5,353.2,111.5z"/>
<path fill="#8BC53F" d="M352.6,111.7c0,0-4.2-2.8-4.4-3c-0.2-0.2,1.3-0.1,1.6-0.5c0.2-0.4-1.6,0.2-2.8-0.3c-1.2-0.5-2.3-1.8-2.3-1.8
	s1.7-0.2,2-0.6c0.3-0.3,0.3-0.3,0.3-0.3s-1.6,0.3-2.7,0c-1.1-0.3-2.6-1.8-2.7-2.2c-0.1-0.4-0.1-0.4-0.1-0.4s1.8,0.8,2.8,0.5
	c1-0.3,1.1-0.8,1.1-0.8s-2.4,0.5-3.2,0c-0.8-0.5-1.1-0.5-1-1.5c0.1-1,0.8-1.5,0.8-1.5s2.1,0.8,4,2.2c1.9,1.4,6,5.1,7.3,9.1
	C354.7,114.6,352.6,111.7,352.6,111.7z"/>
<path fill="#8BC53F" d="M352.8,112c0,0-6-3.5-8-4.2c-2-0.7-4.4-1.4-6.3-1.2c-1.9,0.1-2.9,1.6-2.9,1.6s1.2,0.3,2,0.1
	c0.8-0.2,1.3-0.5,1.3-0.5s-1.5,1.2-1.8,1.1c-0.3-0.1,0.5,0.7,2,0.7c1.4,0,2.2-0.4,2.4-0.5c0.1-0.1-0.6,1.2-0.9,1.2
	c-0.3,0,0.2,0.6,1.5,0.4c1.3-0.2,1.8-0.3,1.8-0.3s-0.4,1-0.9,0.9c-0.5-0.1-0.7,0-0.7,0s0.3,1,1.5,0.8c1.2-0.2,2.4-1.2,2.4-1.2
	s-1.2,1.5-1.9,1.5c-0.6,0,0.6,0.9,1.8,0.9s3.1-1.6,3.2-1.5c0,0,0.1,0.9-0.7,1.5c-0.9,0.6-1.4,0.7-1.4,0.7s1.6,0.4,3.6,0
	C352.5,113.6,352.8,112,352.8,112z"/>
<path fill="#F3D58E" d="M22.8,112.4l2.9-1.6c0,0,0.8,4.6,1.1,16c0.3,9.8,0.4,16.7,0.4,16.7l-4-0.1c0,0,0.5-10.8,0.4-16.3
	C23.5,121.6,23,113.8,22.8,112.4z"/>
<path fill="#8BC53F" d="M22.6,109.3c0,0-6.5,0-10.6,1.8c-4,1.9-3.7,1.9-4.1,2.8c-0.5,0.9-0.7,1.4-0.7,1.4s0.8,0.2,1.5-0.5
	c0.8-0.7,1.1-1.5,1.1-1.5s-0.1,1.4-0.4,1.8c-0.2,0.3-0.2,0.3-0.2,0.3s1.2-0.2,2-0.7c0.8-0.4,1.5-1.5,1.5-1.9c0-0.4,0.4,1.4-0.6,1.9
	c-1.1,0.5,1.4,0.3,2.4-0.2c1-0.5,2.2-1.9,2.2-1.9s-0.2,1.3-0.6,1.4c-0.3,0.1,1.7-0.4,2.1-1c0.4-0.6,0.4-0.6,0.4-0.6
	s-0.3,1.5-0.5,1.5c-0.2,0,1.7-0.2,2.2-0.6c0.4-0.4,1.1-0.8,1.1-0.8l-1.2,1.4c0,0,0.6,0.3,1.5,0c1-0.3,1.9-1.1,2.4-1.7
	c0.5-0.6,0.4-0.9,0.3-1.5C24.2,110.3,24,109.3,22.6,109.3z"/>
<path fill="#8BC53F" d="M21.5,109.8c-0.4,0.1-6.5-1.3-7.3-2.1c-0.9-0.7-0.2-0.4-0.2-0.4s2.8-0.3,3.3-0.5c0.5-0.1-5.1-0.7-5.1-0.7
	s1.6-1,1.6-1.2c0-0.1-3-0.1-3.4-0.7c-0.4-0.6-0.3-0.7,0.6-0.9c0.9-0.2,3.2-0.5,3.2-0.5s-4.7-0.2-5.3-0.4C8.1,102.2,8,102,8,102
	s2.1-0.2,2.4-0.4c0.3-0.2-2.9-0.2-3.1-0.2c-0.2,0,0.6-1.7,2.3-1.8c1.7-0.1,3.7,0.7,5.4,1.7c1.7,1,6.1,5.3,6.6,6.1
	C22,108.1,23.2,109.5,21.5,109.8z"/>
<path fill="#8BC53F" d="M22.9,109.6l1.5-5.3c0,0-0.7,0-1.2-0.5c-0.5-0.5-0.5-0.5-0.5-0.5s1.3,0.5,1.7,0.2c0.4-0.3,1.4-3.1,1.4-3.3
	c0-0.2-2.3,0.1-2.6,0c-0.4-0.1,1.8-0.7,2.4-1.3c0.5-0.6,0.5-0.6,0.5-0.6s-0.3-0.6-1.6-0.5c-1.3,0.1-1.7,0-1.7,0s2.7-0.1,3.4-0.8
	c0.6-0.7,0.5-0.9,0-1.3c-0.5-0.4-1.5,0-2.6,0.5c-1.1,0.6-2.5,2-2.7,3.2c-0.2,1.2,0.6,7.2,0.9,8.8C21.9,109.7,22.9,109.6,22.9,109.6z
	"/>
<path fill="#8BC53F" d="M23.5,109.8c0,0,4.2-2.8,4.4-3c0.2-0.2-1.3-0.1-1.6-0.5c-0.2-0.4,1.6,0.2,2.8-0.3c1.2-0.5,2.3-1.8,2.3-1.8
	s-1.7-0.2-2-0.6c-0.3-0.3-0.3-0.3-0.3-0.3s1.6,0.3,2.7,0c1.1-0.3,2.6-1.8,2.7-2.2c0.1-0.4,0.1-0.4,0.1-0.4s-1.8,0.8-2.8,0.5
	c-1-0.3-1.1-0.8-1.1-0.8s2.4,0.5,3.2,0c0.8-0.5,1.1-0.5,1-1.5c-0.1-1-0.8-1.5-0.8-1.5s-2.1,0.8-4,2.2c-1.9,1.4-6,5.1-7.3,9.1
	C21.3,112.7,23.5,109.8,23.5,109.8z"/>
<path fill="#8BC53F" d="M23.2,110.1c0,0,6-3.5,8-4.2c2-0.7,4.4-1.4,6.3-1.2s2.9,1.6,2.9,1.6s-1.2,0.3-2,0.1
	c-0.8-0.2-1.3-0.5-1.3-0.5s1.5,1.2,1.8,1.1c0.3-0.1-0.5,0.7-2,0.7c-1.4,0-2.2-0.4-2.4-0.5c-0.1-0.1,0.6,1.2,0.9,1.2
	s-0.2,0.6-1.5,0.4c-1.3-0.2-1.8-0.3-1.8-0.3s0.4,1,0.9,0.9c0.5-0.1,0.7,0,0.7,0s-0.3,1-1.5,0.8c-1.2-0.2-2.4-1.2-2.4-1.2
	s1.2,1.5,1.9,1.5c0.6,0-0.6,0.9-1.8,0.9s-3.1-1.6-3.2-1.5c0,0-0.1,0.9,0.7,1.5c0.9,0.6,1.4,0.7,1.4,0.7s-1.6,0.4-3.6,0
	C23.5,111.7,23.2,110.1,23.2,110.1z"/>
<path fill="#776350" d="M174.3,143.4v-38.6c0,0,0.1-0.8,0.2-1.3c0.7-2,3.1-7.1,9.8-7.9c8.3-1,15.3,4.3,15.4,10
	c0.2,5.9,0,37.7,0,37.7H174.3z"/>
</svg>
