<?xml version="1.0" encoding="utf-8"?>
<!-- Generator: Adobe Illustrator 18.1.1, SVG Export Plug-In . SVG Version: 6.00 Build 0)  -->
<svg version="1.1" id="Layer_1" xmlns="http://www.w3.org/2000/svg" xmlns:xlink="http://www.w3.org/1999/xlink" x="0px" y="0px"
	 width="400px" height="260px" viewBox="0 0 400 260" enable-background="new 0 0 400 260" xml:space="preserve">
<rect x="156.9" y="133.1" fill="#FFDEB2" width="28.1" height="25.3"/>
<rect x="149.2" y="124.7" fill="#A1886D" width="35.9" height="8.4"/>
<rect x="11.2" y="125.8" fill="#A1886D" width="35.9" height="7.3"/>
<rect x="59.9" y="110.6" fill="#FFDEB2" width="76.4" height="16.3"/>
<polygon fill="#FAAE5C" points="185.3,193.7 27.9,193.7 11.2,193.7 11.2,158.6 185.3,158.6 "/>
<rect x="39.4" y="125.4" fill="#E8E3DB" width="119.6" height="33"/>
<rect x="11.2" y="133.1" fill="#FFDEB2" width="28.1" height="25.3"/>
<polygon fill="#E8E3DB" points="279.5,139.5 226,152.9 226,98.8 279.5,98.8 "/>
<path fill="#FFFFFF" d="M25.1,193.7V174c0,0,0-0.4,0-0.7c0.2-2,1.8-6.2,8.3-6.2c6.5,0,8.9,3.9,9,6.9c0.1,3.3,0,19.6,0,19.6H25.1z"/>
<path fill="#FFFFFF" d="M53.3,193.7V174c0,0,0-0.4,0-0.7c0.2-2,1.8-6.2,8.3-6.2c6.5,0,8.9,3.9,9,6.9c0.1,3.3,0,19.6,0,19.6H53.3z"/>
<path fill="#FFFFFF" d="M127.9,193.7V174c0,0,0-0.4,0-0.7c0.2-2,1.8-6.2,8.3-6.2c6.5,0,8.9,3.9,9,6.9c0.1,3.3,0,19.6,0,19.6H127.9z"
	/>
<path fill="#FFFFFF" d="M156,193.7V174c0,0,0-0.4,0-0.7c0.2-2,1.8-6.2,8.3-6.2c6.5,0,8.9,3.9,9,6.9c0.1,3.3,0,19.6,0,19.6H156z"/>
<path fill="#FFFFFF" d="M84.5,193.7V170c0,0,0-0.7,0-1.2c0.3-3.3,3-10.2,13.8-10.2c10.8,0,14.7,6.4,14.9,11.5c0.1,5.5,0,23.6,0,23.6
	H84.5z"/>
<path fill="#A1886D" d="M56.2,193.7v-17.3c0,0,0-0.4,0.1-0.6c0.3-0.9,1.4-3.2,4.4-3.5c3.8-0.5,6.9,1.9,6.9,4.5c0.1,2.7,0,17,0,17
	H56.2z"/>
<path fill="#A1886D" d="M44.4,158.4v-17.3c0,0,0-0.4,0.1-0.6c0.4-0.9,1.9-3.2,6-3.5c5.1-0.5,9.3,1.9,9.4,4.5c0.1,2.7,0,17,0,17H44.4
	z"/>
<path fill="#A1886D" d="M66.6,125v-7.6c0,0,0-0.3,0-0.5c0-1.1,1-2.6,3.1-2.7c2.6-0.2,4.7,0.8,4.7,2.5c0,1.3,0,8.3,0,8.3H66.6z"/>
<path fill="#FFFFFF" d="M15,133.2v-3.8c0,0,0-0.1,0-0.2c0-0.5,0.5-1.3,1.5-1.4c1.3-0.1,2.4,0.4,2.4,1.2c0,0.7,0,4.2,0,4.2H15z"/>
<path fill="#FFFFFF" d="M23.3,133.2v-3.8c0,0,0-0.1,0-0.2c0-0.5,0.5-1.3,1.5-1.4c1.3-0.1,2.4,0.4,2.4,1.2c0,0.7,0,4.2,0,4.2H23.3z"
	/>
<path fill="#FFFFFF" d="M32,133.2v-3.8c0,0,0-0.1,0-0.2c0-0.5,0.5-1.3,1.5-1.4c1.3-0.1,2.4,0.4,2.4,1.2c0,0.7,0,4.2,0,4.2H32z"/>
<path fill="#A1886D" d="M85.2,125v-7.6c0,0,0-0.3,0-0.5c0-1.1,1-2.6,3.1-2.7c2.6-0.2,4.7,0.8,4.7,2.5c0,1.3,0,8.3,0,8.3H85.2z"/>
<path fill="#A1886D" d="M102.8,125v-7.6c0,0,0-0.3,0-0.5c0-1.1,1-2.6,3.1-2.7c2.6-0.2,4.7,0.8,4.7,2.5c0,1.3,0,8.3,0,8.3H102.8z"/>
<path fill="#A1886D" d="M120.9,125v-7.6c0,0,0-0.3,0-0.5c0-1.1,1-2.6,3.1-2.7c2.6-0.2,4.7,0.8,4.7,2.5c0,1.3,0,8.3,0,8.3H120.9z"/>
<path fill="#A1886D" d="M64.3,158.4v-17.3c0,0,0-0.4,0.1-0.6c0.4-0.9,1.9-3.2,6-3.5c5.1-0.5,9.3,1.9,9.4,4.5c0.1,2.7,0,17,0,17H64.3
	z"/>
<path fill="#A1886D" d="M118.2,158.4v-17.3c0,0,0-0.4,0.1-0.6c0.4-0.9,1.9-3.2,6-3.5c5.1-0.5,9.3,1.9,9.4,4.5c0.1,2.7,0,17,0,17
	H118.2z"/>
<path fill="#A1886D" d="M138.4,158.4v-17.3c0,0,0-0.4,0.1-0.6c0.4-0.9,1.9-3.2,6-3.5c5.1-0.5,9.3,1.9,9.4,4.5c0.1,2.7,0,17,0,17
	H138.4z"/>
<path fill="#A1886D" d="M130.8,193.7v-17.3c0,0,0-0.4,0.1-0.6c0.3-0.9,1.4-3.2,4.4-3.5c3.8-0.5,6.9,1.9,6.9,4.5c0.1,2.7,0,17,0,17
	H130.8z"/>
<path fill="#A1886D" d="M231.6,118.7v-10.6c0,0,0-0.4,0.1-0.6c0.3-0.9,1.4-3.2,4.4-3.5c3.8-0.5,6.9,1.9,6.9,4.5
	c0.1,2.7,0,10.2,0,10.2H231.6z"/>
<path fill="#A1886D" d="M247,118.7v-10.6c0,0,0-0.4,0.1-0.6c0.3-0.9,1.4-3.2,4.4-3.5c3.8-0.5,6.9,1.9,6.9,4.5c0.1,2.7,0,10.2,0,10.2
	H247z"/>
<path fill="#A1886D" d="M261.9,118.7v-10.6c0,0,0-0.4,0.1-0.6c0.3-0.9,1.4-3.2,4.4-3.5c3.8-0.5,6.9,1.9,6.9,4.5
	c0.1,2.7,0,10.2,0,10.2H261.9z"/>
<path fill="#A1886D" d="M231.8,145.3v-10.6c0,0,0-0.4,0.1-0.6c0.3-0.9,1.4-3.2,4.4-3.5c3.8-0.5,6.9,1.9,6.9,4.5
	c0.1,2.7,0,10.2,0,10.2H231.8z"/>
<path fill="#A1886D" d="M247.2,145.3v-10.6c0,0,0-0.4,0.1-0.6c0.3-0.9,1.4-3.2,4.4-3.5c3.8-0.5,6.9,1.9,6.9,4.5
	c0.1,2.7,0,10.2,0,10.2H247.2z"/>
<path fill="#A1886D" d="M262.2,137.7v-3c0,0,0-0.4,0.1-0.6c0.3-0.9,1.4-3.2,4.4-3.5c3.8-0.5,6.9,1.9,6.9,4.5c0.1,2.7,0,2.6,0,2.6
	H262.2z"/>
<path fill="#A1886D" d="M158.9,193.7v-17.3c0,0,0-0.4,0.1-0.6c0.3-0.9,1.4-3.2,4.4-3.5c3.8-0.5,6.9,1.9,6.9,4.5c0.1,2.7,0,17,0,17
	H158.9z"/>
<path fill="#A1886D" d="M92.3,193.7v-19.8c0,0,0-0.4,0.1-0.7c0.4-1,1.6-3.6,5-4c4.3-0.5,7.8,2.2,7.9,5.1c0.1,3,0,19.4,0,19.4H92.3z"
	/>
<rect x="82.9" y="130.6" fill="#FAAE5C" width="30.1" height="27.8"/>
<polygon fill="#FAAE5C" points="82.7,130.6 97.9,115.4 113,130.6 "/>
<rect x="91.9" y="49.1" fill="#E8E3DB" width="12.2" height="8"/>
<path fill="#D0D2D3" d="M91.8,49c0,0-3.2-1.7-2.5-5.1c0.8-3.5,2.9-4.4,4.7-6.2c1.8-1.8,3.4-2.9,3.6-4.5c0.2-1.7,0.5-3.3,0.5-3.3
	s0.4,4.3,1.7,5.3c2.6,2,5.9,3.9,7.1,7.2c0.7,2,0.3,6.7-2.7,6.7C102.1,49.1,91.8,49,91.8,49z"/>
<path fill="#D0D2D3" d="M11.3,125.8c0,0-0.4-7.4,0.4-11c0.8-3.6,2.2-6.4,4.9-9c2.7-2.6,5.4-4.6,10.1-5c4.7-0.4,9.7,0.3,13.5,3.2
	c2.7,2.1,6.1,5.8,6.7,10.8c0.5,4,0,11,0,11H11.3z"/>
<path fill="#D0D2D3" d="M149.3,125.4c0,0-0.4-7.4,0.4-11c0.8-3.6,2.2-6.4,4.9-9c2.7-2.6,5.4-4.6,10.1-5c4.7-0.4,9.7,0.3,13.5,3.2
	c2.7,2.1,6.1,5.8,6.7,10.8c0.5,4,0,11,0,11H149.3z"/>
<rect x="190.2" y="70.7" fill="#FFDEB2" width="20.6" height="121.3"/>
<polygon fill="#A1886D" points="190.2,70.7 200.5,37.3 210.8,70.7 "/>
<rect x="192.7" y="73.5" fill="#A1886D" width="15.6" height="7.8"/>
<rect x="188" y="83.6" fill="#A1886D" width="24.4" height="3.8"/>
<rect x="188.3" y="68.9" fill="#FAAE5C" width="24.4" height="3.8"/>
<rect x="192.7" y="93.4" fill="#A1886D" width="3.5" height="7.3"/>
<rect x="197.4" y="93.4" fill="#A1886D" width="3.5" height="7.3"/>
<rect x="201.9" y="93.4" fill="#A1886D" width="3.5" height="7.3"/>
<rect x="206.2" y="93.4" fill="#A1886D" width="3.5" height="7.3"/>
<path fill="#FFDEB2" d="M302.9,133.1h-0.5l0-1.9h2.7l-15.2-8l-17,8h3.1v1.9h-0.5l-85,21.8v38.8h38.8c0,0,20-25.9,59.1-27.2
	c39.1-1.3,63.1,27.2,63.1,27.2h37.8v-39L302.9,133.1z M193.1,177l-0.3-10.4c0,0-0.1-5.3,5.5-6c3.9-0.5,6.3,2,6.5,3.6
	c0.2,1.6,0.3,10,0.3,10L193.1,177z M207.1,173.7l-0.3-10.4c0,0-0.1-5.3,5.5-6c3.9-0.5,6.3,2,6.5,3.6c0.2,1.6,0.3,10,0.3,10
	L207.1,173.7z M220.9,170.2l-0.3-10.4c0,0-0.1-5.3,5.5-6c3.9-0.5,6.3,2,6.5,3.6c0.2,1.6,0.3,10,0.3,10L220.9,170.2z M234.9,166.7
	l-0.3-10.4c0,0-0.1-5.3,5.5-6c3.9-0.5,6.3,2,6.5,3.6c0.2,1.6,0.3,10,0.3,10L234.9,166.7z M248.9,163.1l-0.3-10.4c0,0-0.1-5.3,5.5-6
	c3.9-0.5,6.3,2,6.5,3.6c0.2,1.6,0.3,10,0.3,10L248.9,163.1z M262.6,159.9l-0.3-10.4c0,0-0.1-5.3,5.5-6c3.9-0.5,6.3,2,6.5,3.6
	c0.2,1.6,0.3,10,0.3,10L262.6,159.9z M279.4,156.5v-18.9c0,0,0-1.2,0.4-2.3c0.1-0.2,0.1-0.4,0.2-0.5c0,0,0,0,0-0.1
	c0.1-0.2,0.1-0.3,0.2-0.5c0,0,0,0,0,0c0.2-0.4,0.4-0.7,0.7-1.1l0,0c1.4-1.8,3.9-3.3,8.3-3.3c3.8,0,6.2,1.6,7.5,3.3l0,0
	c0.2,0.3,0.5,0.7,0.6,1c0,0,0,0,0,0c0.1,0.1,0.1,0.2,0.2,0.3c0,0,0,0.1,0,0.1c0.1,0.1,0.1,0.3,0.2,0.4c0,0.1,0.1,0.2,0.1,0.2
	c0,0,0,0.1,0,0.1c0,0.1,0.1,0.3,0.1,0.4c0.2,0.9,0.2,1.8,0.2,1.8v19.1H279.4z M316.3,149.7l-0.3,10.4l-12-2.8c0,0,0.1-8.4,0.3-10
	c0.2-1.6,2.7-4.1,6.5-3.6C316.5,144.5,316.3,149.7,316.3,149.7z M330,153l-0.3,10.4l-12-2.8c0,0,0.1-8.4,0.3-10
	c0.2-1.6,2.7-4.1,6.5-3.6C330.2,147.7,330,153,330,153z M344,156.6l-0.3,10.4l-12-2.8c0,0,0.1-8.4,0.3-10c0.2-1.6,2.7-4.1,6.5-3.6
	C344.1,151.3,344,156.6,344,156.6z M358,160.1l-0.3,10.4l-12-2.8c0,0,0.1-8.4,0.3-10c0.2-1.6,2.7-4.1,6.5-3.6
	C358.2,154.8,358,160.1,358,160.1z M371.8,163.6l-0.3,10.4l-12-2.8c0,0,0.1-8.4,0.3-10c0.2-1.6,2.7-4.1,6.5-3.6
	C371.9,158.3,371.8,163.6,371.8,163.6z M385.8,166.9l-0.3,10.4l-12-2.8c0,0,0.1-8.4,0.3-10c0.2-1.6,2.7-4.1,6.5-3.6
	C385.9,161.6,385.8,166.9,385.8,166.9z"/>
<g>
	<path fill="#51ABAD" d="M144,216.9c2,1.4,5.6,1.3,7.6,0c2.8-1.8,4.7-5.3,8-6.2c4.1-1.1,6.9,2.9,9.6,5.2c2,1.8,4.8,2.5,7.5,1.7
		c2.9-0.9,4.8-4.2,7.3-5.8c4.1-2.8,7.4,0.1,10.4,3c2.2,2.1,4.5,3.3,7.7,2.8c3.1-0.4,5-3.5,7.3-5.3c1.6-1.3,3.4-2.1,5.5-1.8
		c2.2,0.4,4,2.4,5.5,3.9c2.7,2.6,4.9,3.8,8.8,3.2c1.4-0.2,0.8-2.4-0.6-2.2c-3.9,0.6-5.4-1.7-8.1-4c-2.5-2.2-5.4-3.9-8.8-3
		c-3.3,0.9-5.4,3.8-7.9,5.9c-2.6,2.2-5.7,0.9-7.8-1.2c-2.6-2.5-5.2-5-9-4.9c-3.4,0.2-5.9,2.8-8.2,5c-1.2,1.1-2.2,2.1-3.9,2.2
		c-1.2,0.1-2.5-0.1-3.5-0.8c-2.9-2-4.8-5.4-8.4-6.3c-3.7-1-6.7,1.1-9.3,3.5c-1.2,1.1-2.4,2.8-4,3.3c-1.2,0.4-3.4,0.3-4.5-0.5
		C143.9,214,142.8,216,144,216.9L144,216.9z"/>
</g>
<g>
	<path fill="#51ABAD" d="M117.9,231.7c2,1.4,5.6,1.3,7.6,0c2.8-1.8,4.7-5.3,8-6.2c4.1-1.1,6.9,2.9,9.6,5.2c2,1.8,4.8,2.5,7.5,1.7
		c2.9-0.9,4.8-4.2,7.3-5.8c4.1-2.8,7.4,0.1,10.4,3c2.2,2.1,4.5,3.3,7.7,2.8c3.1-0.4,5-3.5,7.3-5.3c1.6-1.3,3.4-2.1,5.5-1.8
		c2.2,0.4,4,2.4,5.5,3.9c2.7,2.6,4.9,3.8,8.8,3.2c1.4-0.2,0.8-2.4-0.6-2.2c-3.9,0.6-5.4-1.7-8.1-4c-2.5-2.2-5.4-3.9-8.8-3
		c-3.3,0.9-5.4,3.8-7.9,5.9c-2.6,2.2-5.7,0.9-7.8-1.2c-2.6-2.5-5.2-5-9-4.9c-3.4,0.2-5.9,2.8-8.2,5c-1.2,1.1-2.2,2.1-3.9,2.2
		c-1.2,0.1-2.5-0.1-3.5-0.8c-2.9-2-4.8-5.4-8.4-6.3c-3.7-1-6.7,1.1-9.3,3.5c-1.2,1.1-2.4,2.8-4,3.3c-1.2,0.4-3.4,0.3-4.5-0.5
		C117.9,228.8,116.7,230.8,117.9,231.7L117.9,231.7z"/>
</g>
<g>
	<path fill="#51ABAD" d="M267.7,204c1.4,1,3.4,1,5,0.9c2.1-0.2,3.4-1.5,4.9-2.9c1.7-1.6,3.6-3.9,6.1-4.3c2.9-0.5,5.1,1.5,7.1,3.4
		c2.8,2.6,6.1,5.4,10.3,3.4c3.9-1.9,6.4-8,11.5-6.6c3.1,0.8,4.8,4,7.3,5.7c1.9,1.3,4.3,1.4,6.5,1.1c1.4-0.2,0.8-2.4-0.6-2.2
		c-2.4,0.3-4.1-0.2-5.8-1.8c-1.9-1.8-3.7-3.8-6.2-4.7c-4.7-1.8-8.3,1.5-11.4,4.5c-1.8,1.8-3.4,2.8-6.1,2c-1.7-0.5-2.9-2-4.1-3.2
		c-3.3-3.1-7.4-5.4-11.8-2.7c-2.2,1.3-3.8,3.3-5.7,4.9c-1.5,1.3-4.2,1.7-5.9,0.5C267.7,201.2,266.6,203.2,267.7,204L267.7,204z"/>
</g>
<g>
	<path fill="#51ABAD" d="M291.6,220.6c2,1.4,5.6,1.3,7.6,0c2.8-1.8,4.7-5.3,8-6.2c4.1-1.1,6.9,2.9,9.6,5.2c2,1.8,4.8,2.5,7.5,1.7
		c2.9-0.9,4.8-4.2,7.3-5.8c4.1-2.8,7.4,0.1,10.4,3c2.2,2.1,4.5,3.3,7.7,2.8c3.1-0.4,5-3.5,7.3-5.3c1.6-1.3,3.4-2.1,5.5-1.8
		c2.2,0.4,4,2.4,5.5,3.9c2.7,2.6,4.9,3.8,8.8,3.2c1.4-0.2,0.8-2.4-0.6-2.2c-3.9,0.6-5.4-1.7-8.1-4c-2.5-2.2-5.4-3.9-8.8-3
		c-3.3,0.9-5.4,3.8-7.9,5.9c-2.6,2.2-5.7,0.9-7.8-1.2c-2.6-2.5-5.2-5-9-4.9c-3.4,0.2-5.9,2.8-8.2,5c-1.2,1.1-2.2,2.1-3.9,2.2
		c-1.2,0.1-2.5-0.1-3.5-0.8c-2.9-2-4.8-5.4-8.4-6.3c-3.7-1-6.7,1.1-9.3,3.5c-1.2,1.1-2.4,2.8-4,3.3c-1.2,0.4-3.4,0.3-4.5-0.5
		C291.6,217.7,290.5,219.7,291.6,220.6L291.6,220.6z"/>
</g>
<rect x="223.2" y="121.9" fill="#D0D2D3" width="58" height="2.7"/>
<polygon fill="#FAAE5C" points="279.5,98.8 226,98.8 233.6,80.1 271.9,80.1 "/>
<path fill="#D0D2D3" d="M60,110.4c0,0-0.9-15.7,0.9-23.5c1.8-7.8,4.8-13.7,10.5-19.3C77,62.1,83,57.9,93,57
	c10-0.9,20.8,0.6,28.8,6.9c5.7,4.5,13.1,12.4,14.3,23.1c1,8.6,0,23.5,0,23.5H60z"/>
<path fill="#A1886D" d="M302.8,156.7h-26.9l-85.5,21v16.2h38.8c0,0,20-25.9,59.1-27.2c39.1-1.3,63.1,27.2,63.1,27.2h37.8v-15.9
	L302.8,156.7z"/>
<path fill="#A1886D" d="M28,193.7v-17.3c0,0,0-0.4,0.1-0.6c0.3-0.9,1.4-3.2,4.4-3.5c3.8-0.5,6.9,1.9,6.9,4.5c0.1,2.7,0,17,0,17H28z"
	/>
<rect x="164.4" y="96.6" fill="#E8E3DB" width="5.4" height="3.5"/>
<path fill="#D0D2D3" d="M164.3,96.6c0,0-1.4-0.7-1.1-2.3c0.3-1.5,1.3-1.9,2.1-2.7c0.8-0.8,1.5-1.3,1.6-2c0.1-0.7,0.2-1.5,0.2-1.5
	s0.2,1.9,0.8,2.3c1.2,0.9,2.6,1.7,3.1,3.2c0.3,0.9,0.1,3-1.2,3C168.9,96.6,164.3,96.6,164.3,96.6z"/>
<rect x="26.5" y="97" fill="#E8E3DB" width="5.4" height="3.5"/>
<path fill="#D0D2D3" d="M26.4,97c0,0-1.4-0.7-1.1-2.3c0.3-1.5,1.3-1.9,2.1-2.7c0.8-0.8,1.5-1.3,1.6-2c0.1-0.7,0.2-1.5,0.2-1.5
	s0.2,1.9,0.8,2.3c1.2,0.9,2.6,1.7,3.1,3.2c0.3,0.9,0.1,3-1.2,3C31,97,26.4,97,26.4,97z"/>
<path fill="#A1886D" d="M87.5,158.4v-17.1c0,0,0-0.5,0-0.9c0.2-2.4,2.2-7.4,9.9-7.4c7.8,0,10.6,4.6,10.7,8.3c0.1,4,0,17,0,17H87.5z"
	/>
<path fill="#FFFFFF" d="M181.2,133.2v-3.8c0,0,0-0.1,0-0.2c0-0.5-0.5-1.3-1.5-1.4c-1.3-0.1-2.4,0.4-2.4,1.2c0,0.7,0,4.2,0,4.2H181.2
	z"/>
<path fill="#FFFFFF" d="M173,133.2v-3.8c0,0,0-0.1,0-0.2c0-0.5-0.5-1.3-1.5-1.4c-1.3-0.1-2.4,0.4-2.4,1.2c0,0.7,0,4.2,0,4.2H173z"/>
<path fill="#FFFFFF" d="M164.5,133.2v-3.8c0,0,0-0.1,0-0.2c0-0.5-0.5-1.3-1.5-1.4c-1.3-0.1-2.4,0.4-2.4,1.2c0,0.7,0,4.2,0,4.2H164.5
	z"/>
</svg>
